<?xml version="1.0" standalone="no"?>
<!DOCTYPE svg PUBLIC "-//W3C//DTD SVG 20010904//EN"
 "http://www.w3.org/TR/2001/REC-SVG-20010904/DTD/svg10.dtd">
<svg version="1.0" xmlns="http://www.w3.org/2000/svg"
 width="3433.000000pt" height="3433.000000pt" viewBox="0 0 3433.000000 3433.000000"
 preserveAspectRatio="xMidYMid meet">
<metadata>
Created by potrace 1.14, written by Peter Selinger 2001-2017
</metadata>
<g transform="translate(0.000000,3433.000000) scale(0.100000,-0.100000)"
fill="#000000" stroke="none">
<path d="M8816 24368 c-523 -1203 -3846 -8878 -3846 -8882 0 -4 297 -5 661 -4
l661 3 566 1312 567 1312 1904 -2 1903 -2 573 -1310 573 -1310 666 -3 c382 -1
666 2 666 7 0 5 -882 2017 -1959 4472 l-1960 4464 -474 3 -474 2 -27 -62z
m1186 -3501 c383 -875 696 -1592 694 -1594 -1 -2 -624 -2 -1383 -1 l-1381 3
681 1597 c374 879 683 1595 686 1592 3 -3 319 -721 703 -1597z"/>
<path d="M20730 19955 l0 -4475 595 0 595 0 0 4475 0 4475 -595 0 -595 0 0
-4475z"/>
<path d="M16845 21465 c-264 -37 -476 -102 -704 -215 -238 -118 -500 -303
-718 -505 l-73 -67 0 356 0 356 -595 0 -595 0 0 -2955 0 -2955 595 0 595 0 0
2128 0 2129 67 79 c144 170 314 323 473 426 169 110 316 170 529 215 117 25
143 27 381 28 208 0 271 -3 344 -18 507 -103 760 -374 868 -932 22 -110 22
-112 25 -2082 l3 -1973 595 0 595 0 0 2063 c0 2215 1 2166 -51 2420 -82 404
-301 799 -576 1040 -267 234 -612 388 -1013 452 -146 24 -605 30 -745 10z"/>
<path d="M23413 19313 c3 -1897 5 -2088 21 -2198 72 -509 253 -889 562 -1185
134 -127 260 -215 434 -303 315 -159 631 -228 1045 -229 417 -1 720 68 1068
244 220 111 479 295 690 488 l67 62 0 -356 0 -356 595 0 595 0 0 2955 0 2955
-595 0 -595 0 0 -2128 0 -2127 -94 -105 c-368 -416 -734 -607 -1225 -640 -308
-20 -594 26 -806 131 -317 158 -487 449 -557 949 -8 62 -12 608 -15 2003 l-4
1917 -595 0 -595 0 4 -2077z"/>
<path d="M19869 15163 c11 -16 157 -197 324 -403 l303 -375 128 -3 c106 -2
127 0 124 11 -2 8 -109 191 -238 406 l-235 391 -213 0 -213 0 20 -27z"/>
<path d="M5090 13564 l0 -1615 678 4 c645 3 681 4 770 24 425 97 677 323 748
673 20 102 15 322 -11 415 -73 264 -275 463 -576 566 l-109 37 73 35 c197 94
320 246 363 447 23 107 14 346 -16 450 -37 128 -94 224 -190 321 -73 73 -100
93 -190 137 -120 59 -249 95 -398 111 -62 7 -311 11 -622 11 l-520 0 0 -1616z
m1147 1167 c148 -42 238 -117 278 -235 23 -65 31 -243 15 -319 -25 -122 -108
-235 -211 -287 -132 -68 -268 -90 -551 -90 l-208 0 0 481 0 481 298 -4 c272
-4 304 -6 379 -27z m152 -1389 c284 -63 411 -210 411 -477 0 -153 -42 -268
-128 -346 -51 -48 -119 -81 -228 -111 -74 -20 -106 -22 -481 -26 l-403 -4 0
497 0 497 368 -5 c325 -4 378 -7 461 -25z"/>
<path d="M8740 13612 l0 -1569 108 -31 c294 -86 424 -106 707 -106 256 -1 340
10 512 65 357 114 574 344 670 708 22 81 26 125 30 283 6 197 -3 290 -37 422
-75 284 -257 515 -507 640 -295 147 -744 138 -998 -22 l-50 -31 -3 604 -2 605
-215 0 -215 0 0 -1568z m1030 97 c252 -40 425 -189 507 -434 25 -75 27 -92 28
-260 0 -161 -2 -188 -23 -255 -69 -220 -210 -356 -437 -422 -69 -20 -102 -23
-240 -22 -162 0 -243 13 -387 60 l-48 16 0 584 0 584 43 27 c94 60 233 112
332 126 60 8 162 7 225 -4z"/>
<path d="M11180 13565 l0 -1615 215 0 215 0 0 1615 0 1615 -215 0 -215 0 0
-1615z"/>
<path d="M17200 13565 l0 -1615 215 0 215 0 0 769 0 770 79 78 c119 120 241
177 406 189 155 12 304 -33 377 -114 48 -54 65 -87 89 -179 18 -72 19 -116 19
-795 l0 -718 215 0 215 0 0 770 c0 664 -2 782 -16 848 -55 268 -228 452 -493
524 -105 29 -344 31 -446 4 -98 -25 -238 -95 -320 -160 -38 -31 -82 -65 -97
-76 l-28 -21 0 670 0 671 -215 0 -215 0 0 -1615z"/>
<path d="M7900 14951 c-111 -36 -180 -129 -180 -244 0 -93 74 -193 163 -223
159 -53 315 49 325 212 7 108 -42 195 -134 239 -43 21 -135 29 -174 16z"/>
<path d="M12306 14946 c-131 -49 -197 -203 -142 -331 83 -194 372 -191 453 4
10 24 14 60 11 112 -3 67 -7 83 -33 120 -63 90 -190 132 -289 95z"/>
<path d="M15749 14174 c-277 -309 -365 -413 -367 -435 l-3 -29 180 0 180 0 4
-637 c3 -606 5 -643 25 -732 69 -307 245 -431 611 -431 161 0 269 20 399 72
l72 30 0 204 c0 121 -4 204 -9 204 -6 0 -25 -9 -43 -19 -18 -11 -69 -32 -113
-47 -70 -25 -95 -28 -205 -28 -139 -1 -191 14 -243 70 -61 66 -61 62 -65 717
l-3 597 330 0 331 0 0 190 0 190 -330 0 -330 0 0 245 0 245 -29 0 c-25 0 -73
-50 -392 -406z"/>
<path d="M13992 14119 c-167 -21 -359 -97 -507 -200 -158 -109 -311 -300 -386
-481 -60 -145 -74 -224 -73 -423 0 -161 3 -190 27 -277 101 -378 391 -672 770
-782 127 -37 243 -50 392 -43 293 13 542 122 746 326 377 376 434 956 138
1393 -56 82 -186 216 -268 277 -233 173 -538 249 -839 210z m353 -433 c223
-71 382 -237 456 -476 30 -95 32 -260 6 -360 -83 -312 -354 -529 -660 -530
-368 -1 -677 318 -677 700 0 260 145 502 369 619 73 37 151 65 216 75 70 11
211 -3 290 -28z"/>
<path d="M20274 14116 c-337 -55 -595 -240 -743 -533 -77 -154 -112 -318 -112
-533 -1 -284 57 -498 187 -698 160 -246 426 -403 749 -443 201 -25 474 4 680
72 99 33 314 136 358 171 l28 23 -3 217 -3 217 -95 -56 c-574 -339 -1122 -321
-1344 45 -44 73 -83 189 -92 275 l-7 67 792 0 791 0 0 118 c0 545 -292 949
-755 1047 -106 23 -327 28 -431 11z m299 -371 c142 -30 271 -129 339 -260 35
-68 68 -171 68 -214 l0 -21 -550 0 c-464 0 -550 2 -550 14 0 27 43 152 71 208
39 77 135 178 206 216 126 66 276 87 416 57z"/>
<path d="M22610 14120 c-299 -42 -568 -215 -721 -464 -179 -291 -218 -721 -97
-1064 56 -160 119 -263 232 -380 125 -130 297 -227 486 -275 124 -31 406 -31
532 1 92 23 198 67 248 102 l30 21 0 -590 0 -591 215 0 215 0 0 1605 0 1605
-215 0 -215 0 0 -55 0 -54 -52 31 c-68 39 -162 75 -252 94 -86 19 -316 26
-406 14z m485 -404 c44 -14 112 -43 150 -64 l70 -38 0 -600 0 -599 -105 -52
c-136 -68 -232 -88 -380 -80 -128 8 -189 24 -299 78 -204 101 -323 301 -346
584 -9 100 9 256 41 355 76 239 267 399 527 441 95 15 254 3 342 -25z"/>
<path d="M27382 14120 c-472 -67 -794 -391 -869 -875 -22 -143 -12 -373 21
-518 48 -208 133 -372 264 -508 217 -228 504 -331 876 -316 283 11 534 87 779
234 l57 34 0 220 c0 120 -3 219 -6 219 -3 0 -38 -20 -78 -44 -171 -104 -348
-179 -524 -223 -94 -24 -126 -27 -267 -27 -146 0 -167 2 -240 27 -248 82 -394
268 -430 545 l-7 52 798 0 797 0 -6 138 c-23 542 -281 904 -722 1018 -112 28
-329 40 -443 24z m276 -375 c199 -47 338 -190 392 -401 11 -43 20 -81 20 -86
0 -4 -250 -8 -555 -8 -305 0 -555 1 -555 3 0 1 9 36 21 77 62 224 207 369 414
413 91 20 185 20 263 2z"/>
<path d="M7750 13020 l0 -1070 215 0 215 0 0 1070 0 1070 -215 0 -215 0 0
-1070z"/>
<path d="M12170 13020 l0 -1070 215 0 215 0 0 1070 0 1070 -215 0 -215 0 0
-1070z"/>
<path d="M24282 13293 c4 -794 4 -798 26 -871 76 -249 232 -403 479 -474 106
-31 351 -33 458 -4 134 36 274 113 384 212 l51 46 0 -126 0 -126 215 0 215 0
0 1070 0 1070 -215 0 -215 0 0 -768 0 -767 -46 -53 c-138 -157 -309 -231 -513
-219 -53 3 -119 12 -146 21 -113 35 -195 120 -238 247 -22 63 -22 73 -25 802
l-3 737 -215 0 -215 0 3 -797z"/>
<path d="M5080 11281 c0 -82 6 -101 31 -101 17 0 24 -11 20 -33 -1 -5 8 -6 19
-2 11 4 20 3 19 -2 -3 -20 2 -34 11 -28 6 3 10 -2 10 -12 0 -15 2 -16 10 -3 8
13 10 12 10 -3 0 -11 4 -15 12 -11 8 5 9 2 4 -11 -6 -16 -4 -16 11 -4 15 13
16 12 11 -9 -4 -12 -2 -20 2 -17 5 3 15 -2 24 -10 8 -9 19 -16 23 -16 4 -1 7
-6 5 -11 -2 -6 5 -8 14 -4 15 6 15 4 3 -11 -8 -9 -9 -14 -2 -10 14 9 45 -2 37
-14 -3 -5 5 -9 17 -9 18 0 19 -3 9 -15 -10 -12 -8 -13 10 -10 19 4 20 2 8 -12
-10 -13 -10 -15 0 -9 14 8 45 -11 37 -24 -2 -4 13 -15 35 -25 28 -13 37 -22
32 -34 -5 -14 -4 -14 11 -2 15 12 17 11 18 -10 0 -13 3 -19 6 -12 3 8 13 4 30
-13 18 -18 28 -22 37 -15 17 14 29 1 14 -16 -6 -7 -8 -16 -4 -20 3 -3 6 -1 6
5 0 7 7 12 16 12 8 0 12 -4 9 -10 -5 -9 16 -15 38 -11 5 1 6 -3 2 -9 -3 -6
-11 -8 -16 -5 -16 11 -10 0 13 -19 18 -15 20 -16 15 -2 -4 9 -2 16 3 16 6 0
10 -6 10 -14 0 -8 7 -17 16 -20 9 -3 12 -11 8 -18 -5 -8 -2 -9 9 -5 10 3 17 2
17 -4 0 -6 4 -7 10 -4 6 4 7 -1 3 -11 -4 -12 -3 -15 5 -10 7 4 12 2 12 -4 0
-6 5 -8 10 -5 6 3 10 -2 10 -12 0 -14 2 -15 9 -5 7 11 9 11 14 -2 4 -10 13
-13 23 -9 12 4 15 3 10 -5 -5 -8 0 -12 13 -12 12 0 21 -5 21 -11 0 -6 5 -9 12
-7 7 3 22 -7 35 -21 12 -15 23 -20 23 -13 0 7 5 10 11 7 6 -4 8 -12 6 -19 -3
-7 5 -13 16 -14 17 -1 19 1 7 8 -10 6 -11 10 -3 10 14 0 35 -34 27 -43 -3 -3
3 -3 15 0 15 4 21 1 21 -11 0 -10 5 -14 10 -11 6 3 10 1 10 -5 0 -6 4 -9 9 -6
5 3 12 -1 15 -10 5 -13 9 -14 20 -5 11 9 16 9 22 0 4 -7 3 -9 -3 -6 -5 3 -10
0 -10 -8 0 -19 2 -19 23 3 17 16 17 16 12 -3 -4 -16 0 -20 20 -22 13 0 28 -7
32 -13 5 -7 15 -10 25 -7 13 6 15 2 11 -16 -3 -12 -3 -16 0 -9 7 14 34 16 34
2 0 -5 9 -10 19 -10 10 0 21 -6 24 -14 4 -9 14 -13 29 -9 19 4 20 3 8 -7 -12
-10 -11 -11 8 -7 16 4 22 0 23 -11 0 -12 2 -13 6 -4 4 10 9 8 20 -7 8 -12 18
-19 23 -16 5 3 14 -3 20 -12 10 -16 11 -16 5 2 -5 16 -4 18 6 8 16 -16 33 -17
23 -1 -4 7 -3 8 5 4 9 -6 9 -11 -1 -24 -11 -13 -10 -15 5 -9 9 3 17 2 17 -3 0
-6 5 -10 11 -10 5 0 7 5 3 12 -5 7 -3 8 5 4 7 -5 10 -15 6 -23 -4 -13 -3 -13
9 -4 10 8 15 9 18 1 2 -6 13 -12 25 -13 12 0 19 -5 17 -9 -3 -4 0 -8 6 -8 6 0
8 -5 4 -12 -4 -7 -3 -8 5 -4 6 4 9 12 6 17 -3 5 1 6 9 3 9 -3 13 -10 10 -15
-5 -8 9 -13 29 -10 4 0 7 -3 7 -9 0 -5 5 -10 11 -10 5 0 7 5 3 12 -4 7 -3 8 5
4 6 -4 9 -11 6 -16 -3 -5 -1 -11 5 -15 5 -3 10 2 10 12 1 16 2 16 12 -2 16
-29 16 -29 35 -14 15 12 16 12 10 -6 -7 -20 -7 -20 8 -1 13 17 15 18 15 3 0
-20 4 -21 33 -5 20 10 21 10 8 -5 -9 -12 -10 -17 -2 -17 7 0 9 -5 5 -12 -4 -7
-3 -8 5 -4 6 4 9 11 7 15 -3 4 2 8 10 8 8 0 13 -6 10 -13 -3 -8 0 -16 6 -20 7
-4 8 -3 4 4 -4 7 -1 12 9 12 9 0 14 -4 11 -9 -3 -5 1 -12 10 -15 8 -3 12 -2 9
4 -3 6 -2 10 3 10 6 0 12 -7 16 -15 3 -8 14 -15 25 -15 11 0 23 -4 26 -10 3
-5 17 -10 31 -10 18 0 23 -4 18 -12 -5 -8 0 -7 11 2 10 8 16 10 12 4 -9 -15
19 -29 66 -32 11 -1 15 -7 11 -14 -4 -7 -3 -8 5 -4 6 4 9 11 6 16 -3 4 4 6 15
3 11 -3 18 -9 15 -13 -3 -5 -1 -11 4 -14 5 -4 13 -1 17 5 5 8 3 9 -7 4 -8 -5
-10 -4 -6 0 10 12 38 15 31 4 -3 -5 4 -9 16 -9 14 0 19 4 15 13 -4 6 7 -3 23
-22 21 -25 31 -31 37 -21 6 9 4 11 -5 5 -9 -6 -11 -4 -5 5 6 9 4 11 -5 5 -9
-5 -11 -4 -6 3 9 15 46 -7 46 -27 0 -12 3 -11 13 3 12 16 14 16 35 -4 14 -13
22 -16 22 -8 0 10 2 10 8 1 4 -7 17 -11 29 -9 17 4 20 0 17 -17 -2 -12 -1 -16
2 -9 5 10 9 10 20 1 17 -14 19 2 2 21 -7 8 -2 6 11 -5 13 -11 32 -19 42 -17
10 2 19 -2 19 -7 0 -6 3 -10 8 -10 28 5 52 -2 46 -13 -5 -9 -2 -9 9 1 14 11
17 11 17 0 0 -11 2 -11 10 1 8 12 10 12 11 -5 l0 -20 9 20 c6 14 9 16 10 5 2
-8 1 -19 0 -25 -1 -5 2 -7 5 -3 4 4 17 2 28 -4 16 -8 23 -7 34 8 12 16 13 16
13 1 0 -14 4 -16 18 -9 19 10 45 5 37 -8 -3 -4 8 -7 24 -6 17 1 28 -1 25 -5
-2 -4 1 -11 7 -15 8 -4 9 -3 5 4 -4 7 -2 12 4 12 6 0 8 5 4 12 -4 7 -3 8 4 4
7 -4 12 -13 12 -20 0 -9 9 -12 25 -8 14 2 22 9 18 15 -3 6 -1 7 6 3 9 -6 9
-11 -1 -24 -8 -10 -8 -13 -1 -9 6 4 14 1 16 -5 4 -10 6 -10 6 0 1 6 6 12 12
12 5 0 8 -4 5 -8 -3 -5 1 -9 9 -9 8 0 12 4 9 9 -10 16 9 8 22 -9 12 -16 15
-16 24 -3 8 13 10 12 10 -5 0 -17 2 -17 10 -5 8 12 10 12 10 1 0 -11 3 -11 15
-1 11 9 18 9 35 -3 11 -7 18 -16 15 -19 -3 -2 2 -5 10 -5 16 0 19 8 8 23 -5 5
-1 3 7 -6 16 -16 31 -21 65 -23 11 0 25 -4 32 -9 7 -6 15 -3 22 9 8 14 11 15
11 3 1 -12 3 -12 14 3 12 16 14 16 20 2 4 -11 2 -14 -7 -9 -6 4 -8 3 -4 -1 9
-11 39 -16 33 -6 -3 4 4 8 15 8 17 2 24 -8 20 -30 -1 -5 3 -6 9 -2 6 3 8 10 5
15 -3 4 1 10 9 13 10 4 12 0 9 -14 -3 -11 0 -19 6 -19 7 0 10 4 7 9 -3 5 2 15
12 22 15 13 16 12 4 -3 -9 -11 -10 -18 -2 -23 5 -3 10 0 11 7 0 7 4 4 9 -7 8
-19 9 -19 9 -1 1 20 1 20 16 0 8 -10 15 -14 15 -9 0 6 5 3 11 -5 8 -12 9 -9 4
10 -4 16 -3 20 3 12 5 -7 19 -14 30 -15 12 -1 22 -6 23 -12 0 -5 4 -1 9 10 l9
20 1 -20 c2 -11 2 -24 1 -30 -1 -5 8 1 19 14 15 17 20 19 20 8 0 -22 17 -30
24 -11 4 10 2 13 -6 8 -6 -4 -8 -3 -5 2 10 17 59 8 84 -16 13 -12 21 -16 18
-8 -4 9 0 15 10 15 8 0 15 -3 15 -6 0 -4 12 -7 28 -8 25 -2 26 -1 5 7 -13 5
-23 11 -23 14 0 7 40 -6 46 -15 3 -5 12 -9 20 -9 8 0 12 4 9 10 -4 6 2 7 17 1
13 -5 22 -14 21 -20 -4 -15 3 -14 21 4 13 13 16 13 29 0 13 -13 16 -13 21 0 3
8 11 15 18 15 9 0 9 -3 -2 -11 -12 -9 -11 -10 8 -6 12 3 22 1 22 -4 0 -5 5 -9
11 -9 5 0 8 4 5 8 -4 8 14 8 57 3 5 -1 5 -5 2 -11 -4 -6 2 -7 18 -1 15 6 29 6
38 -1 11 -7 9 -8 -6 -3 -17 5 -18 4 -7 -7 11 -11 16 -10 28 6 8 12 14 15 14 7
0 -11 3 -11 15 -1 12 10 16 9 21 -3 3 -9 12 -18 20 -21 10 -4 12 -2 8 6 -5 8
-2 9 10 5 10 -4 36 -7 57 -7 22 0 38 -4 35 -9 -7 -11 21 -8 31 4 4 4 2 5 -4 1
-9 -5 -11 -2 -6 9 4 12 8 13 13 5 4 -7 13 -9 19 -6 6 4 14 1 17 -8 3 -8 12
-17 20 -20 8 -3 13 -2 10 3 -3 4 1 16 8 27 13 17 14 15 10 -14 -3 -27 -1 -30
10 -20 8 7 12 16 9 21 -2 4 1 7 6 7 6 0 11 -4 11 -10 0 -5 5 -10 11 -10 5 0 8
4 5 8 -3 5 1 9 9 9 8 0 15 -4 15 -9 0 -4 5 -8 11 -8 5 0 8 4 5 8 -3 4 10 8 27
8 21 -1 36 -8 44 -21 7 -11 12 -14 13 -7 0 7 15 12 41 12 22 0 49 5 60 10 11
6 19 7 18 3 -3 -20 2 -23 21 -13 16 9 22 8 27 -5 5 -13 7 -14 14 -3 7 10 9 10
9 1 0 -7 5 -13 11 -13 5 0 8 4 5 9 -3 5 1 11 9 14 9 4 12 1 9 -7 -3 -7 2 -13
10 -13 8 0 13 4 10 9 -10 16 9 8 22 -9 12 -15 13 -16 8 -2 -3 10 0 20 6 24 6
3 10 3 9 -2 -4 -22 2 -25 16 -7 10 13 13 14 10 3 -4 -10 0 -16 9 -16 8 0 13 4
10 8 -6 11 19 17 36 9 8 -4 30 -6 48 -5 17 1 32 -3 32 -9 0 -6 5 -4 10 4 5 8
10 10 10 5 0 -12 44 -14 56 -2 14 13 26 7 20 -10 -5 -15 -4 -15 9 1 11 14 15
16 15 5 0 -9 3 -10 8 -3 9 14 42 14 42 0 0 -6 5 -4 10 4 6 10 10 11 10 3 0
-17 39 -11 52 8 7 10 8 8 4 -11 -5 -24 -4 -24 9 -6 11 14 15 16 15 5 0 -12 2
-12 10 1 6 10 10 11 10 3 0 -7 5 -13 11 -13 5 0 8 4 4 9 -3 5 -1 13 5 16 6 4
9 3 8 -2 -2 -4 2 -8 7 -8 5 0 9 4 7 8 -1 5 2 6 8 2 6 -3 8 -10 6 -14 -3 -3 11
-7 29 -7 18 0 32 3 30 6 -2 4 2 7 10 7 18 0 19 -9 3 -26 -10 -11 -8 -10 12 0
14 8 28 19 32 24 4 6 8 1 8 -9 0 -20 0 -20 16 0 13 16 15 16 10 2 -3 -10 -1
-18 4 -18 6 0 10 8 10 18 1 16 1 16 11 0 5 -9 16 -15 24 -12 8 4 12 10 9 15
-3 5 0 9 5 9 6 0 11 -5 11 -11 0 -6 9 -9 19 -6 11 3 30 -2 43 -11 23 -15 23
-15 5 5 -16 19 -16 20 0 18 10 -1 29 -7 41 -14 13 -7 26 -10 30 -7 3 3 -1 6
-8 6 -17 0 -4 13 15 16 8 1 13 -2 10 -6 -3 -5 0 -12 6 -16 7 -4 9 -3 5 4 -3 6
-2 13 4 17 5 3 10 1 10 -6 0 -8 5 -7 17 2 15 12 16 12 8 -1 -8 -13 -7 -13 10
0 11 9 16 10 11 3 -4 -7 -3 -13 3 -13 5 0 12 6 14 13 4 9 8 8 16 -3 7 -10 11
-11 11 -2 0 6 7 12 15 12 8 0 15 -4 15 -8 0 -4 9 -8 19 -8 11 0 17 5 14 10 -4
5 1 7 10 3 10 -3 17 -2 17 3 0 6 4 10 10 10 5 0 7 -8 4 -17 -4 -14 -1 -13 14
5 22 24 33 28 29 11 -1 -6 4 -14 12 -17 8 -2 11 -1 8 4 -5 8 9 9 57 5 5 -1 2
-9 -5 -18 -11 -15 -10 -15 8 1 13 10 20 23 16 29 -3 6 -1 7 5 3 6 -4 9 -14 6
-24 -4 -11 0 -9 13 6 16 19 21 21 31 10 14 -17 95 -12 85 6 -4 6 1 5 11 -3 15
-13 19 -13 28 0 8 11 9 11 4 -3 -7 -22 10 -24 18 -2 5 13 9 14 21 4 12 -10 15
-10 15 1 0 12 2 12 9 0 7 -11 9 -11 14 0 4 9 6 7 7 -6 l1 -20 9 20 c5 11 9 14
9 8 1 -7 6 -13 12 -13 5 0 8 4 5 8 -3 5 1 9 9 9 8 0 15 -3 15 -7 0 -10 33 -8
48 3 8 6 12 6 12 -1 0 -14 24 -9 46 8 11 9 15 10 10 3 -9 -16 -1 -16 26 -2 12
7 18 7 14 1 -3 -6 0 -12 6 -15 18 -5 48 4 48 15 0 5 -5 6 -12 2 -7 -5 -8 -3
-3 6 6 10 11 10 20 -3 15 -20 29 -22 22 -4 -3 8 1 14 9 14 8 0 13 -6 10 -13
-3 -7 2 -10 15 -7 10 3 17 9 14 13 -3 5 0 12 6 16 7 4 10 3 6 -2 -3 -5 1 -17
8 -27 13 -18 14 -17 20 2 3 12 10 19 15 16 5 -3 11 1 13 7 4 10 6 10 6 0 1 -7
6 -10 13 -6 7 5 9 2 6 -7 -4 -10 1 -15 13 -15 14 0 15 3 7 13 -8 11 -7 12 7 7
13 -5 16 -4 11 4 -5 8 -2 10 9 6 13 -5 13 -9 3 -23 -11 -14 -11 -14 3 -4 12
10 18 10 28 0 11 -10 11 -8 2 10 -10 20 -9 21 11 18 12 -3 25 -10 30 -17 6
-10 8 -10 8 0 0 6 4 12 10 12 5 0 7 -8 3 -17 -5 -15 -3 -15 11 2 10 11 15 13
11 5 -4 -10 -2 -9 8 3 18 22 28 22 21 0 -5 -17 -5 -17 8 -1 9 11 19 14 28 8
17 -11 33 -3 24 12 -4 7 -2 8 4 4 6 -4 9 -14 6 -24 -5 -15 -4 -15 6 -2 8 11
13 12 16 3 4 -8 11 -7 23 5 10 9 16 22 13 27 -3 6 1 4 9 -3 11 -11 12 -14 1
-21 -11 -7 -11 -9 2 -14 9 -4 15 -3 15 1 -5 28 2 35 17 16 8 -10 13 -14 11 -9
-3 6 2 19 10 30 15 19 15 19 8 -3 -6 -21 -5 -23 13 -13 25 13 35 14 28 3 -3
-5 1 -9 9 -9 8 0 12 4 9 9 -3 4 0 8 5 8 6 0 11 -4 11 -10 0 -6 9 -6 26 0 35
14 56 13 49 -2 -4 -7 0 -5 8 4 11 14 16 15 27 5 10 -10 12 -9 7 5 -4 12 -2 15
8 12 8 -3 13 -11 11 -17 -1 -7 -1 -9 1 -4 3 4 10 4 15 1 6 -4 8 -2 4 4 -3 6
-2 13 4 17 5 3 10 1 10 -6 0 -8 5 -7 17 2 11 10 14 10 9 2 -4 -7 -3 -13 3 -13
5 0 12 6 15 13 4 6 4 2 2 -11 -2 -12 0 -20 5 -16 5 3 9 12 9 20 0 8 5 12 10 9
6 -4 8 -11 5 -16 -3 -5 1 -6 9 -3 9 3 16 10 16 16 0 5 -5 6 -12 2 -7 -4 -8 -3
-4 4 4 6 13 9 21 6 8 -4 12 -11 8 -18 -4 -6 1 -5 10 3 14 11 17 11 17 0 0 -11
2 -12 9 -1 4 7 14 14 22 15 8 2 20 6 27 11 8 5 19 3 25 -3 9 -9 8 -11 -4 -6
-10 4 -20 1 -24 -4 -3 -6 -11 -9 -16 -6 -5 3 -6 -1 -3 -9 5 -14 8 -14 21 0 12
12 18 12 31 2 12 -10 14 -10 8 0 -5 8 -1 12 11 12 11 0 25 6 32 13 11 10 13
10 7 0 -4 -7 -2 -13 4 -13 6 0 8 -5 4 -12 -4 -7 -3 -8 5 -4 6 4 9 12 5 17 -3
6 4 7 20 3 18 -4 26 -2 26 7 0 11 3 11 10 -1 9 -13 10 -13 10 0 0 9 3 11 8 5
10 -14 39 -17 47 -5 3 5 15 10 25 10 10 0 20 3 23 8 2 4 2 2 1 -5 -5 -20 13
-24 27 -6 12 14 12 16 -1 8 -13 -7 -13 -6 -1 6 10 11 15 11 18 2 3 -7 11 -13
19 -13 9 0 13 4 10 8 -2 4 6 8 20 8 13 0 24 -5 24 -10 0 -6 5 -3 11 7 7 12 15
15 27 8 9 -4 23 -6 31 -3 8 2 11 0 7 -6 -3 -5 1 -12 9 -15 9 -4 12 -1 8 9 -3
7 0 14 6 14 6 0 11 -6 11 -12 0 -9 3 -9 9 1 8 12 12 12 25 2 12 -10 16 -9 25
8 11 19 18 20 69 5 15 -4 22 -2 22 7 0 11 2 11 10 -1 9 -13 12 -13 24 3 12 15
14 15 19 3 4 -9 -1 -20 -11 -25 -9 -6 -12 -11 -6 -11 6 0 17 7 24 15 7 9 19
14 27 11 8 -3 11 -1 8 4 -3 6 -1 10 4 10 6 0 11 -4 11 -10 0 -5 5 -10 11 -10
5 0 7 5 4 10 -4 6 9 9 34 7 23 -2 41 1 41 5 0 5 4 6 10 3 20 -12 50 -14 56 -3
5 7 2 8 -6 3 -9 -5 -11 -4 -6 4 6 9 11 9 24 -1 9 -8 13 -8 9 -2 -13 23 23 23
44 1 19 -20 20 -20 13 -2 -7 18 -6 18 9 6 9 -7 17 -10 17 -6 0 4 8 1 17 -6 15
-12 15 -10 -1 16 -15 24 -16 27 -3 17 9 -8 22 -12 29 -9 7 2 21 0 32 -5 12 -7
16 -7 12 0 -3 6 -2 13 4 17 5 3 10 2 10 -3 0 -5 7 -9 15 -9 10 0 14 6 10 16
-3 9 4 5 16 -9 11 -14 18 -19 14 -12 -3 6 -2 12 4 12 5 0 17 7 25 16 9 8 16
11 16 5 0 -5 -4 -13 -10 -16 -5 -3 -10 -12 -10 -18 0 -8 3 -7 9 2 5 7 13 11
19 7 6 -3 14 -1 18 5 5 8 3 9 -7 4 -12 -8 -12 -6 0 8 16 20 32 13 25 -11 -4
-10 -3 -13 3 -6 4 6 18 10 31 9 12 -1 22 4 22 12 0 7 5 13 11 13 5 0 7 -4 4
-10 -9 -14 8 -12 24 3 12 10 13 8 7 -8 -6 -18 -5 -19 7 -3 8 10 17 15 20 11 4
-3 1 -13 -6 -22 -11 -14 -10 -14 5 -2 10 7 15 17 12 22 -3 5 0 9 5 9 6 0 11
-4 11 -8 0 -11 39 -13 45 -1 3 5 0 6 -8 3 -8 -3 -18 -1 -22 5 -3 7 0 8 9 5 10
-4 16 -1 16 7 1 8 6 4 13 -8 9 -16 16 -20 27 -13 23 15 44 12 34 -3 -5 -7 -2
-5 8 5 12 13 18 15 21 6 3 -8 6 -5 6 6 1 18 2 18 19 -1 9 -10 13 -14 9 -7 -4
7 -3 15 3 19 5 3 10 1 10 -5 0 -6 5 -8 10 -5 6 4 19 1 28 -7 16 -12 16 -11 2
6 -13 17 -13 19 0 14 8 -3 23 -1 32 3 11 6 19 5 24 -3 4 -6 3 -8 -3 -5 -6 4
-17 -1 -24 -11 -13 -15 -12 -16 4 -3 9 7 17 10 17 6 0 -4 6 -3 13 3 6 6 26 9
44 8 23 -1 30 1 23 9 -7 8 -5 12 5 12 8 0 15 -7 16 -16 0 -12 3 -11 9 4 5 11
9 15 9 9 1 -7 8 -15 17 -18 13 -5 14 -4 6 7 -9 11 -8 13 6 12 9 0 24 -5 31
-10 10 -6 12 -4 7 6 -4 8 0 5 10 -6 13 -16 16 -17 11 -3 -3 10 -1 20 5 24 6 4
8 3 5 -3 -4 -6 0 -16 8 -23 13 -11 14 -10 8 6 -6 16 -4 17 8 7 18 -15 45 -1
34 18 -5 8 3 4 17 -9 18 -16 25 -18 25 -8 0 8 -5 12 -10 9 -6 -3 -7 -2 -4 4 7
11 117 10 137 -2 13 -8 13 -6 2 8 -12 15 -11 15 20 7 41 -12 41 -12 32 3 -5 8
-2 8 9 -2 9 -7 17 -10 17 -6 0 4 8 1 17 -6 14 -12 16 -12 8 0 -6 11 -2 13 18
9 18 -3 24 -1 20 6 -3 6 0 6 7 -1 11 -10 16 -9 27 5 13 15 13 15 8 -8 -6 -24
-6 -24 10 -5 14 17 17 18 26 5 9 -13 10 -13 6 1 -3 9 -1 22 4 30 8 11 9 11 7
-3 -2 -9 2 -17 7 -16 6 0 9 4 7 10 -1 5 2 7 8 3 6 -3 8 -10 5 -15 -3 -5 -1
-12 5 -15 6 -4 9 -1 8 6 -2 8 12 15 39 19 33 5 43 3 46 -9 4 -12 5 -12 6 2 1
16 7 18 41 12 30 -5 40 -3 40 7 0 10 3 9 10 -2 6 -9 10 -11 10 -3 0 7 7 10 15
7 12 -5 13 -2 8 12 -7 18 -6 18 11 2 9 -10 21 -18 26 -18 5 0 7 8 4 18 -4 10
-3 13 3 6 4 -6 16 -10 26 -8 9 1 15 -2 12 -6 -3 -5 0 -12 6 -16 7 -4 9 -3 6 3
-3 5 3 17 14 26 10 9 19 12 19 6 0 -5 4 -8 9 -4 5 3 12 1 15 -4 3 -4 -4 -8
-16 -7 -12 0 -23 -6 -25 -14 -3 -9 -1 -11 4 -5 8 10 37 16 87 17 20 0 25 3 15
9 -11 7 -11 9 3 9 9 0 19 -6 21 -12 4 -8 6 -7 6 3 1 9 7 19 15 22 10 4 13 -1
11 -18 -1 -14 2 -22 6 -19 5 3 9 12 9 20 0 17 12 18 28 2 9 -9 12 -9 12 -1 0
7 -4 15 -10 18 -5 3 -10 11 -10 16 0 6 12 -3 26 -18 14 -15 23 -22 19 -15 -3
6 -3 12 2 13 4 0 28 2 52 4 24 1 47 9 52 16 5 8 9 9 9 4 0 -6 -5 -16 -10 -21
-7 -7 -4 -10 9 -9 12 1 24 5 28 10 5 4 2 5 -4 1 -19 -10 -16 -1 4 15 11 10 14
10 9 2 -5 -9 1 -13 21 -13 21 0 24 3 13 10 -11 7 -8 8 12 6 15 -1 34 -9 43
-16 14 -11 16 -11 13 1 -2 8 -7 17 -13 21 -6 5 -6 8 2 8 7 0 17 -8 22 -17 10
-17 10 -17 11 0 0 9 5 17 11 17 5 0 8 -4 4 -9 -3 -5 -1 -12 5 -16 5 -3 10 -2
10 3 0 6 7 13 16 16 8 3 12 2 9 -4 -3 -6 -1 -10 5 -10 6 0 8 -5 4 -12 -4 -7
-3 -8 5 -4 6 4 9 12 6 17 -4 5 1 9 10 9 10 0 13 -5 9 -12 -4 -7 2 -5 13 5 16
14 23 15 29 6 5 -8 3 -10 -6 -4 -9 5 -11 4 -6 -4 4 -6 12 -9 17 -5 5 3 21 8
36 10 15 3 31 8 37 12 14 8 36 13 59 13 9 0 17 5 17 11 0 6 3 8 6 5 4 -4 1
-14 -7 -24 -12 -15 -12 -16 4 -10 10 4 21 7 23 7 2 0 4 8 5 18 1 11 4 9 9 -8
5 -17 8 -19 9 -7 1 17 2 17 28 0 15 -10 24 -13 21 -8 -4 6 -3 17 3 25 7 12 9
11 10 -5 l0 -20 9 20 c7 17 9 17 9 3 1 -12 6 -15 18 -11 12 5 14 3 8 -7 -5 -9
-4 -11 3 -6 7 4 12 14 12 23 0 11 5 9 21 -8 11 -13 18 -18 14 -11 -4 7 0 12
10 12 9 0 14 4 11 8 -3 5 1 9 9 9 8 0 12 -4 10 -8 -3 -4 3 -10 12 -13 10 -4
14 -4 11 0 -4 3 -2 12 5 19 9 10 14 9 24 -4 11 -15 12 -15 13 1 0 14 5 15 30
8 24 -7 30 -6 30 6 0 8 5 12 10 9 6 -4 8 -10 6 -14 -7 -10 32 -7 41 4 5 4 3 5
-3 2 -6 -3 -11 0 -11 8 0 13 3 13 16 2 25 -22 51 -28 44 -12 -3 8 -8 13 -12
10 -4 -2 -8 2 -8 10 0 13 4 12 19 -2 10 -9 18 -12 18 -7 0 5 7 1 14 -9 12 -16
14 -16 20 -1 4 10 12 14 22 10 15 -6 15 -4 3 11 -12 15 -11 15 8 -1 13 -10 20
-23 16 -29 -3 -6 -1 -7 6 -3 6 4 9 12 6 17 -4 5 5 10 19 10 34 2 39 3 53 12 6
4 14 3 18 -3 3 -5 11 -10 16 -10 6 0 7 5 4 10 -3 6 -2 10 4 10 5 0 12 -6 14
-12 4 -9 6 -9 6 1 1 11 5 10 16 -5 13 -18 14 -18 8 6 -5 24 -5 25 10 5 14 -16
16 -17 17 -4 0 20 48 18 62 -3 7 -10 8 -9 4 4 -3 10 -1 20 4 23 6 4 10 -1 10
-10 0 -9 5 -13 10 -10 6 4 8 10 6 14 -3 4 6 7 20 7 13 0 24 -3 24 -6 0 -4 7
-7 15 -7 11 0 12 4 3 14 -8 11 -7 12 5 7 8 -3 18 -12 21 -20 3 -8 11 -14 18
-14 9 0 8 3 -2 10 -8 5 -11 10 -6 10 5 0 2 7 -5 17 -13 15 -12 15 9 2 20 -12
24 -12 33 1 9 13 10 12 5 -2 -3 -10 -1 -18 4 -18 6 0 10 5 10 10 0 6 5 10 11
10 5 0 8 -3 6 -7 -3 -5 5 -8 18 -8 13 0 21 3 19 6 -2 4 12 5 31 3 20 -1 34 0
31 4 -2 4 4 8 14 8 13 0 16 -4 9 -12 -7 -8 -5 -11 8 -10 10 0 20 4 23 8 3 4
19 0 35 -8 19 -9 25 -10 18 -3 -18 18 -16 34 1 20 10 -9 16 -9 21 -1 5 8 11 8
21 -1 11 -9 17 -9 29 1 8 7 15 9 15 5 0 -4 6 -3 13 4 10 8 17 7 25 -1 8 -8 13
-7 18 6 6 15 7 15 20 -1 10 -13 13 -14 14 -4 0 11 5 9 22 -5 12 -10 18 -14 15
-8 -4 7 4 15 21 19 37 11 62 13 62 6 0 -3 12 -7 27 -8 19 -1 22 1 12 8 -11 6
-8 9 9 9 13 0 21 -4 18 -8 -3 -5 1 -9 9 -9 8 0 12 4 9 9 -8 13 11 9 25 -4 10
-11 11 -9 5 7 -5 15 -4 17 5 9 14 -13 61 -7 61 8 0 5 5 6 10 3 6 -4 8 -11 5
-16 -4 -5 -1 -9 4 -9 10 0 15 14 12 33 -1 5 3 6 9 2 5 -3 10 -14 11 -23 0 -14
2 -13 9 3 6 13 9 15 9 5 1 -13 2 -13 11 0 9 13 10 13 10 0 0 -13 1 -13 10 0 8
13 10 13 10 1 0 -11 3 -10 13 3 11 16 17 17 36 7 13 -7 19 -17 14 -24 -4 -7 0
-7 10 2 19 15 23 26 5 15 -7 -4 -8 -3 -4 5 4 6 11 9 16 6 4 -3 11 1 14 7 3 7
3 3 0 -9 -3 -13 -1 -23 5 -23 6 0 11 6 11 14 0 8 5 18 12 22 7 4 8 3 4 -4 -4
-7 -1 -12 6 -13 7 0 21 -2 30 -4 9 -2 19 3 22 11 3 8 11 14 17 14 9 0 8 -4 0
-14 -10 -12 -8 -13 8 -9 12 3 19 9 16 12 -2 4 2 8 10 8 8 0 12 -4 9 -9 -3 -4
-1 -8 5 -8 5 0 12 6 14 13 4 8 6 7 7 -3 0 -10 6 -6 16 10 13 22 14 22 9 3 -3
-12 -1 -25 6 -29 8 -5 9 -3 4 6 -6 10 -3 12 13 8 12 -4 20 -2 16 3 -3 5 0 9 5
9 6 0 11 -5 11 -11 0 -5 5 -7 10 -4 6 4 7 11 4 17 -4 7 0 7 13 0 11 -6 28 -9
39 -8 10 2 25 -2 33 -8 11 -8 13 -8 8 0 -4 7 1 18 10 25 9 8 14 9 10 3 -4 -7
0 -14 8 -18 8 -3 14 -2 14 2 -3 21 3 24 14 7 11 -14 16 -15 22 -5 6 9 4 11 -6
5 -8 -5 -10 -4 -6 0 10 12 38 15 31 4 -3 -5 0 -9 5 -9 6 0 11 6 11 13 0 8 4 7
10 -3 9 -13 10 -13 10 0 0 12 2 12 9 1 6 -9 11 -10 15 -2 5 8 12 7 22 -4 9 -8
20 -15 27 -15 6 0 2 7 -9 15 -18 14 -18 15 6 7 37 -11 94 -7 86 6 -8 13 40 8
56 -6 11 -8 17 -9 26 0 8 8 15 8 27 -2 13 -11 14 -10 8 6 -7 18 -6 18 19 2 25
-17 26 -17 21 5 -5 22 -5 22 10 2 l16 -20 1 20 c0 16 2 17 9 5 6 -8 7 -18 4
-24 -3 -5 -1 -6 6 -2 6 4 9 11 6 16 -3 5 -1 11 5 15 5 3 10 -2 10 -11 0 -16 1
-16 16 2 10 12 14 14 11 4 -3 -11 2 -15 19 -15 13 1 27 5 31 10 5 4 2 5 -4 1
-9 -5 -11 -2 -6 10 5 15 7 15 15 0 5 -9 14 -16 19 -16 6 0 7 5 4 10 -3 6 -1
10 4 10 6 0 11 -5 11 -11 0 -8 5 -7 16 2 13 10 17 10 24 0 6 -11 9 -11 13 0 4
10 6 10 6 2 1 -7 6 -13 12 -13 5 0 7 5 4 10 -3 6 -2 10 4 10 5 0 13 -5 16 -10
3 -5 12 -10 18 -10 8 0 8 3 -1 9 -10 6 -9 10 7 14 12 3 19 1 15 -4 -6 -11 -6
-11 33 0 27 8 31 7 25 -7 -5 -15 -4 -15 11 -3 9 7 14 18 10 25 -4 6 1 5 10 -3
9 -7 26 -11 37 -8 11 3 18 1 14 -4 -3 -5 0 -9 5 -9 6 0 11 6 11 13 0 8 4 7 10
-3 8 -13 10 -12 10 3 0 17 1 17 17 1 16 -15 17 -15 24 2 7 16 8 15 9 -6 l2
-25 8 25 c7 21 15 12 11 -12 0 -4 11 0 26 7 17 9 32 11 43 5 9 -5 22 -5 30 0
16 10 33 3 25 -11 -10 -15 2 -10 16 8 12 15 12 16 -1 8 -8 -4 -12 -4 -7 0 14
15 39 15 33 -1 -3 -8 -1 -14 3 -14 12 0 23 29 15 41 -3 5 -3 9 0 9 3 0 10 -10
17 -21 9 -17 8 -20 -2 -14 -8 6 -10 4 -5 -4 6 -9 13 -8 27 5 15 13 19 14 19 3
0 -11 2 -11 10 1 9 13 10 13 10 0 0 -13 1 -13 10 0 9 13 10 13 10 0 0 -13 1
-13 10 0 5 8 10 10 10 4 0 -6 7 -11 15 -11 11 0 12 4 3 14 -8 11 -7 12 6 7 9
-3 16 -10 16 -14 0 -4 7 -11 16 -14 15 -6 15 -4 3 10 -13 16 -12 16 9 5 15 -8
22 -8 22 -1 0 6 4 9 9 6 5 -4 12 0 14 6 4 8 6 7 6 -4 1 -10 9 -16 20 -15 15 1
17 4 9 14 -15 18 -3 16 16 -3 12 -12 16 -12 16 -2 0 10 3 9 10 -2 7 -11 10
-11 10 -2 0 7 4 11 9 7 5 -3 12 -1 16 4 8 15 35 2 36 -18 0 -12 2 -11 8 4 5
11 7 23 5 27 -6 9 24 4 33 -7 4 -4 3 -5 -4 -1 -6 3 -15 1 -19 -5 -4 -8 -3 -9
4 -5 7 4 12 1 12 -6 0 -9 3 -9 10 2 9 13 11 13 20 0 7 -11 10 -11 10 -2 0 8 5
10 12 6 8 -5 9 -2 5 10 -6 14 -1 13 25 -5 17 -13 28 -18 24 -11 -10 16 16 16
33 0 11 -10 13 -10 7 0 -5 8 3 12 29 12 26 0 34 -3 29 -12 -6 -10 -4 -10 7 -2
8 6 38 14 67 16 47 5 51 3 40 -11 -11 -14 -11 -14 3 -4 9 7 20 9 24 5 5 -4 5
-1 1 6 -4 7 -1 12 9 12 10 0 13 -5 9 -12 -4 -6 3 -4 17 5 27 19 39 21 39 7 0
-5 -3 -9 -7 -9 -20 3 -33 -2 -33 -12 0 -8 5 -8 15 1 12 10 15 10 15 -1 0 -11
2 -11 10 1 9 13 11 13 21 0 8 -12 9 -10 4 8 l-7 24 28 -19 c16 -10 25 -13 21
-6 -11 17 15 23 33 7 13 -11 20 -11 41 0 14 7 36 12 49 11 14 -2 31 2 38 8 9
7 11 5 5 -9 -6 -17 -5 -18 12 -4 17 14 18 13 12 -3 -4 -11 -3 -16 3 -12 6 3
10 12 10 20 0 19 17 28 26 14 4 -8 3 -9 -4 -5 -7 4 -12 1 -12 -8 0 -19 11 -21
28 -4 7 7 12 8 12 4 0 -5 7 -3 15 4 12 10 16 9 21 -4 5 -14 9 -14 22 -4 11 9
13 9 9 1 -4 -6 -2 -15 4 -19 8 -4 9 -3 5 4 -4 7 -2 12 4 12 6 0 8 5 5 10 -11
17 7 11 20 -7 11 -15 15 -16 31 -3 11 9 15 10 10 3 -5 -9 0 -13 16 -13 19 0
20 2 8 10 -11 8 -7 9 15 5 16 -2 36 -13 44 -22 12 -16 13 -15 7 12 -5 22 -4
26 3 15 6 -8 16 -15 23 -15 7 -1 12 -6 11 -13 -4 -17 2 -15 18 5 12 15 12 16
-1 8 -13 -7 -13 -6 -2 6 11 12 15 11 28 -5 8 -11 14 -14 14 -8 0 8 10 11 25 8
14 -3 23 -2 21 2 -2 4 7 8 20 8 16 1 24 -4 25 -15 0 -12 2 -12 9 4 5 11 9 14
9 7 1 -7 5 -11 10 -7 5 3 13 0 16 -5 5 -8 14 -5 28 7 19 17 20 17 14 0 -6 -15
-4 -16 13 -7 19 10 25 6 20 -15 -1 -5 8 -1 19 9 13 12 37 20 61 20 37 1 45 -4
40 -29 -1 -5 2 -6 7 -2 4 5 8 13 8 18 0 5 5 8 10 7 6 -2 9 -7 7 -11 -1 -5 3
-5 10 0 7 4 22 8 33 8 11 0 26 4 33 8 7 5 12 3 12 -4 0 -7 7 -4 15 7 14 17 14
17 9 1 -5 -14 -2 -18 12 -15 11 2 25 10 32 18 8 8 11 10 7 3 -4 -9 6 -11 34
-9 22 2 38 -1 35 -5 -8 -13 10 -11 25 4 11 10 13 10 7 0 -8 -15 10 -18 19 -3
3 6 11 10 18 10 8 0 8 -3 -1 -12 -21 -21 -13 -29 9 -9 16 15 26 18 40 11 23
-13 29 -12 29 1 0 5 -4 8 -9 4 -5 -3 -13 0 -17 7 -4 7 -4 10 1 6 4 -4 14 -3
22 4 8 6 13 7 12 2 -4 -20 2 -31 16 -31 10 0 14 6 10 16 -3 9 4 5 16 -9 11
-14 18 -20 15 -13 -4 6 -2 14 4 18 5 3 10 2 10 -3 0 -5 10 -12 23 -15 20 -6
21 -5 4 7 -17 13 -16 14 7 12 13 0 23 -3 21 -6 -2 -4 6 -12 18 -20 20 -12 21
-12 9 3 -8 9 -9 18 -4 21 6 3 12 -1 16 -9 4 -11 11 -13 29 -6 18 7 30 5 45 -5
15 -10 23 -11 28 -3 4 8 3 9 -4 5 -8 -5 -10 -2 -6 8 5 14 9 14 26 2 20 -14 62
-10 52 5 -3 5 3 6 12 2 11 -4 13 -8 6 -11 -20 -6 -13 -20 8 -15 11 3 17 9 14
14 -3 5 2 6 10 3 9 -3 14 -10 11 -14 -3 -5 -1 -12 5 -15 6 -4 9 -1 8 6 -2 6 3
14 11 17 9 3 11 0 6 -9 -5 -8 -5 -11 0 -7 4 4 16 3 26 -3 15 -7 17 -6 13 6 -3
8 -11 12 -17 8 -6 -3 -7 -1 -3 5 7 12 36 5 36 -8 0 -4 7 -10 15 -14 13 -4 14
-2 5 14 -9 16 -8 18 5 14 8 -4 15 -10 15 -15 0 -5 5 -9 11 -9 5 0 7 4 4 10 -3
5 -2 10 4 10 5 0 12 -4 15 -9 4 -5 14 -8 24 -6 9 1 23 -2 30 -8 9 -7 11 -6 7
6 -4 8 -1 18 6 23 7 4 10 3 5 -4 -3 -6 -2 -13 3 -16 5 -4 12 2 14 11 4 15 5
16 6 2 0 -9 8 -20 17 -23 14 -5 15 -4 5 8 -10 12 -9 14 4 12 9 -1 21 -9 26
-17 7 -12 9 -11 9 2 0 9 7 16 15 16 11 0 12 -4 3 -14 -6 -7 -8 -16 -4 -20 3
-3 6 -1 6 5 0 7 9 12 20 12 11 0 20 5 20 11 0 5 5 7 12 3 7 -5 5 -11 -7 -21
-11 -7 -14 -13 -9 -13 6 0 14 3 18 8 4 4 12 7 16 7 5 0 16 9 25 20 12 16 14
17 9 3 -3 -10 -1 -18 5 -18 6 0 11 6 11 13 0 9 2 9 8 -1 11 -17 52 -25 46 -8
-3 7 2 13 10 13 8 0 13 -4 11 -8 -3 -3 6 -9 20 -11 13 -3 22 -1 19 3 -3 5 0 9
5 9 6 0 11 -8 12 -17 1 -12 4 -10 9 7 4 14 8 18 9 10 1 -11 14 -15 55 -15 30
0 52 3 49 8 -2 4 -8 5 -13 2 -5 -3 -11 -2 -14 3 -2 4 6 8 20 8 13 0 24 -6 24
-12 0 -7 4 -15 9 -18 5 -4 7 4 5 16 -2 13 -2 17 2 10 3 -6 11 -9 16 -6 7 4 8
2 4 -4 -4 -7 -1 -12 9 -12 9 0 14 4 10 9 -3 5 0 13 6 17 8 5 9 3 4 -6 -6 -10
-4 -12 8 -7 9 3 19 1 23 -5 4 -7 3 -8 -4 -4 -7 4 -12 2 -12 -3 0 -16 11 -13
32 6 15 13 18 14 13 2 -4 -12 2 -15 27 -13 47 2 50 3 43 14 -3 6 1 7 9 4 9 -3
14 -9 12 -13 -2 -3 9 -6 24 -6 16 -1 26 3 24 7 -3 4 -1 8 5 8 5 0 11 -6 14
-12 3 -10 9 -10 27 0 12 8 19 9 16 4 -3 -5 6 -12 19 -15 14 -2 28 0 32 6 3 5
2 7 -3 4 -6 -3 -16 -1 -24 4 -13 9 -13 10 0 6 8 -2 23 0 34 5 12 7 16 7 12 0
-3 -5 2 -16 11 -23 12 -10 14 -10 9 -2 -4 8 -1 13 9 13 10 0 13 -5 9 -12 -4
-7 3 -4 16 7 13 11 20 15 17 9 -4 -7 0 -15 9 -18 10 -4 13 -2 8 6 -5 8 -2 9
12 4 22 -9 30 -10 62 -2 14 3 20 1 16 -5 -3 -6 11 -3 30 5 20 8 35 12 32 8 -3
-5 -1 -14 5 -22 6 -10 9 -11 9 -2 0 6 5 12 11 12 5 0 8 -4 4 -9 -3 -5 0 -13 6
-17 7 -4 9 -3 5 4 -3 6 -2 13 3 17 5 3 15 -3 21 -12 9 -14 10 -14 7 -2 -3 9
-1 22 5 30 8 11 9 11 4 -3 -3 -10 -1 -20 4 -23 6 -4 10 0 10 7 0 10 2 10 9 -1
5 -7 14 -10 21 -6 9 6 9 9 -1 16 -10 6 -10 9 -2 9 16 0 35 -35 25 -46 -4 -5 4
0 18 12 14 11 31 19 38 18 6 -1 17 -2 24 -3 6 0 3 -10 -8 -23 -18 -21 -18 -22
0 -8 22 17 40 22 89 22 20 1 37 6 37 12 1 6 8 0 16 -14 8 -14 13 -17 10 -8 -7
24 9 31 25 11 12 -14 12 -16 0 -8 -9 5 -12 4 -7 -3 9 -14 38 -3 30 12 -3 6 2
2 10 -8 15 -18 21 -15 17 8 -1 5 4 4 11 -2 11 -8 21 -7 44 4 18 9 24 10 17 3
-18 -18 -16 -34 1 -20 11 9 15 9 20 -1 3 -7 4 -2 2 12 l-5 25 20 -24 c10 -13
19 -18 19 -12 0 6 8 11 18 11 14 0 14 -2 3 -9 -10 -7 -7 -9 12 -8 14 1 23 5
21 9 -3 4 2 5 10 2 10 -4 16 -1 16 7 0 7 3 9 6 6 4 -4 1 -14 -7 -23 -13 -16
-12 -16 8 -6 28 15 36 15 27 0 -4 -7 -4 -10 1 -6 4 4 15 2 24 -4 13 -10 14
-10 4 2 -17 18 -16 27 2 27 8 0 12 -3 10 -7 -2 -3 6 -12 18 -20 20 -12 21 -12
8 4 -13 16 -12 17 15 10 16 -4 32 -12 36 -18 6 -8 8 -8 8 0 0 7 7 15 16 18 8
3 13 2 10 -2 -3 -5 10 -8 29 -8 18 1 31 4 29 8 -2 4 1 10 7 14 8 5 9 3 4 -6
-6 -10 -3 -12 13 -8 12 4 25 2 28 -4 3 -5 12 -1 20 9 16 22 18 10 2 -20 -10
-21 -10 -21 7 -7 10 8 19 13 21 10 1 -3 6 -1 11 4 5 5 2 6 -6 1 -9 -5 -12 -4
-7 3 10 17 15 15 26 -10 7 -19 9 -19 9 -5 1 10 6 15 11 12 6 -3 10 0 10 7 0 9
3 9 8 2 4 -6 17 -10 29 -9 12 1 20 -2 17 -7 -3 -4 2 -8 11 -8 9 0 14 4 11 8
-3 5 1 9 9 9 8 0 12 -4 9 -9 -3 -4 4 -8 15 -8 11 0 23 -5 26 -10 10 -16 25 -1
19 18 -4 10 -2 13 3 7 4 -6 22 -16 38 -23 l30 -13 -25 21 c-24 21 -24 21 -1
10 12 -7 31 -10 41 -7 12 3 17 0 14 -7 -3 -7 5 -12 18 -13 13 0 17 1 11 4 -21
8 -15 22 7 16 11 -3 17 -10 13 -16 -4 -6 9 0 28 13 30 21 32 21 16 3 -18 -21
-18 -21 6 -19 14 0 23 4 20 9 -2 4 1 7 6 7 6 0 11 -6 11 -12 0 -9 4 -8 10 2 8
12 10 12 10 1 0 -11 3 -11 17 0 11 10 14 10 9 2 -4 -8 -2 -13 4 -13 6 0 8 -5
4 -12 -4 -7 -3 -8 5 -4 6 4 9 11 6 16 -3 5 -1 11 5 15 5 3 10 0 10 -7 0 -8 12
-13 30 -13 17 0 30 3 30 7 0 5 10 6 23 4 12 -3 26 -5 30 -5 5 -1 5 -7 1 -13
-5 -9 -3 -9 9 1 9 7 14 18 11 25 -3 6 4 0 15 -13 12 -13 21 -19 21 -13 0 15
28 23 36 10 5 -7 2 -8 -6 -3 -9 5 -11 4 -6 -4 4 -6 11 -9 16 -6 4 3 11 -1 13
-7 4 -10 6 -10 6 0 1 10 6 10 21 2 24 -13 26 -7 4 14 -18 19 -2 22 18 4 17
-16 42 -22 33 -8 -9 15 4 12 21 -5 9 -8 21 -15 27 -14 9 0 8 2 0 6 -21 8 -15
18 11 18 13 0 22 -3 19 -7 -4 -8 5 -10 45 -11 12 0 22 -5 22 -11 0 -7 3 -7 8
1 9 14 98 20 127 8 18 -8 19 -7 5 11 -11 15 -11 16 0 6 8 -6 28 -12 45 -12 23
0 26 -3 15 -10 -9 -6 -10 -10 -3 -10 7 0 17 8 22 18 10 16 10 16 11 0 0 -9 5
-20 12 -24 7 -4 8 -3 4 4 -4 7 -2 12 4 12 6 0 9 4 5 9 -3 5 -1 13 5 16 6 4 10
3 9 -2 -5 -27 1 -33 22 -23 11 7 35 13 52 15 18 2 26 1 20 -2 -7 -2 -13 -9
-13 -14 0 -6 5 -7 11 -3 21 12 83 14 91 1 5 -8 8 -7 8 5 0 9 4 19 9 22 5 4 7
-4 3 -16 -4 -16 -2 -20 10 -15 9 3 21 0 28 -6 10 -9 11 -9 6 0 -9 17 61 5 94
-15 23 -14 24 -14 11 2 -12 14 -12 19 -1 29 7 7 10 8 8 2 -3 -5 0 -16 8 -23
12 -11 14 -9 14 9 0 12 3 19 8 15 4 -4 7 -13 7 -19 0 -5 10 -11 22 -12 12 -1
20 2 17 7 -3 4 2 8 10 8 9 0 16 -6 16 -12 0 -9 4 -8 10 2 6 10 10 11 10 3 0
-7 5 -13 11 -13 5 0 7 5 3 12 -5 7 -1 9 13 6 11 -3 27 -1 36 3 10 6 21 4 31
-7 11 -11 16 -12 16 -3 0 7 6 5 14 -6 13 -18 13 -18 24 1 8 14 12 15 12 4 0
-13 1 -13 10 0 9 13 10 13 11 0 1 -8 0 -19 -1 -25 -1 -5 11 1 25 15 l27 25 -6
-25 c-5 -17 -4 -21 2 -12 5 8 12 13 16 13 22 -3 27 1 22 15 -5 13 -3 14 6 7 7
-6 23 -9 35 -8 12 1 20 -2 17 -7 -3 -4 2 -9 10 -9 29 -3 34 -4 42 -12 12 -11
21 -8 28 9 4 10 2 13 -7 8 -9 -5 -8 -3 1 7 11 12 14 12 22 -1 5 -8 12 -11 16
-8 4 4 15 3 25 -3 15 -8 19 -6 19 6 0 9 5 13 10 10 6 -4 8 -10 5 -15 -3 -5 0
-12 6 -16 8 -4 9 -3 5 4 -4 7 -1 12 9 12 10 0 14 -5 10 -12 -4 -7 2 -2 13 11
14 18 21 21 27 11 5 -8 4 -11 -2 -7 -5 3 -10 0 -10 -8 0 -8 5 -11 11 -7 6 4
27 8 46 8 59 3 61 3 54 17 -6 9 -4 9 7 0 7 -7 19 -13 27 -13 8 0 21 -8 29 -17
13 -16 13 -16 4 4 -6 12 -16 24 -23 26 -8 3 -9 6 -2 6 6 1 17 -6 24 -14 17
-20 31 -19 23 3 -5 14 -3 13 10 -3 10 -12 16 -15 17 -7 0 7 5 10 10 7 6 -4 8
-10 6 -14 -6 -10 31 -7 41 3 5 4 2 6 -6 4 -7 -2 -16 4 -18 12 -4 13 -3 13 6 0
6 -8 11 -10 11 -5 0 6 8 1 17 -10 15 -20 15 -20 10 4 -4 18 -3 21 6 12 14 -14
30 -15 22 -1 -3 5 -1 10 4 10 6 0 11 -5 11 -11 0 -6 7 -8 16 -5 8 3 12 2 9 -4
-3 -6 1 -7 9 -4 9 3 13 11 9 17 -3 6 4 3 16 -5 12 -9 31 -14 42 -11 10 3 26 0
34 -7 13 -11 14 -10 10 3 -4 8 -1 18 5 22 6 3 10 3 9 -2 -3 -20 2 -34 11 -28
6 4 7 12 3 18 -3 7 3 3 15 -7 12 -11 25 -16 29 -13 3 4 1 7 -5 7 -7 0 -12 4
-12 10 0 11 32 1 42 -14 5 -8 8 -7 8 1 0 6 8 10 18 8 9 -1 27 1 38 6 12 4 25
5 28 2 8 -8 86 -10 86 -3 0 3 -6 12 -12 19 -11 11 -10 12 2 5 8 -5 18 -9 22
-9 3 0 10 -4 15 -9 5 -5 3 -6 -4 -2 -19 10 -16 1 4 -15 11 -10 14 -10 9 -2 -4
8 -2 13 4 13 6 0 8 5 4 12 -4 6 3 4 15 -5 13 -8 30 -13 39 -10 11 5 13 3 7 -7
-5 -9 -4 -11 3 -6 7 4 12 13 12 21 0 7 6 12 13 11 13 -2 19 -18 10 -26 -4 -3
-3 1 2 9 6 10 4 12 -4 7 -7 -5 -10 -11 -6 -14 8 -9 35 -11 34 -4 -3 21 4 23
27 7 15 -9 24 -13 21 -9 -5 10 12 28 31 31 16 4 16 -14 0 -20 -10 -4 -10 -6
-1 -6 7 -1 17 8 23 19 6 11 16 20 23 19 9 0 9 -2 0 -6 -18 -7 -16 -20 2 -20 8
0 15 4 15 9 0 4 6 8 14 8 8 0 16 5 18 12 3 8 7 6 11 -5 3 -9 3 -16 -1 -16 -19
3 -32 -2 -32 -12 0 -8 5 -8 15 1 8 7 15 9 15 5 0 -4 6 -3 13 2 6 6 24 13 39
17 23 5 27 3 22 -11 -4 -11 -3 -14 3 -7 10 14 86 27 78 14 -4 -6 2 -7 11 -3
13 5 15 3 9 -7 -5 -9 -4 -11 4 -6 8 5 9 12 2 20 -6 7 -6 17 -1 26 8 13 10 12
10 -2 0 -23 19 -33 33 -18 9 10 9 11 0 6 -7 -4 -13 -2 -13 4 0 7 7 9 16 6 9
-3 18 -6 20 -6 3 0 2 -5 -2 -12 -4 -7 -3 -8 4 -4 6 4 9 13 5 21 -3 8 0 15 6
15 6 0 3 8 -6 18 -21 22 -32 19 -13 -3 8 -9 8 -15 2 -15 -6 0 -14 9 -17 20 -3
11 -12 20 -19 20 -7 0 -18 10 -25 23 -6 12 -9 14 -7 5 4 -12 1 -15 -10 -11 -7
3 -14 12 -14 20 0 8 -4 11 -10 8 -12 -7 -53 19 -43 28 3 4 -1 7 -11 7 -9 0
-14 5 -11 10 3 6 -3 10 -14 10 -12 0 -21 5 -21 10 0 6 -9 10 -19 10 -10 0 -22
7 -25 16 -3 9 -13 14 -21 11 -8 -4 -16 2 -20 14 -6 18 -17 24 -39 20 -5 -1 -6
6 -2 15 5 14 4 15 -8 5 -12 -10 -15 -8 -18 10 -2 15 -11 23 -26 24 -26 2 -44
23 -35 39 3 5 1 6 -6 2 -6 -4 -9 -12 -6 -17 3 -5 -1 -6 -9 -3 -9 3 -13 10 -10
15 3 5 -2 9 -11 9 -11 0 -15 5 -12 14 4 10 1 13 -8 9 -8 -3 -12 -10 -8 -17 4
-6 -1 -5 -11 3 -10 8 -15 23 -12 33 4 16 2 17 -10 7 -11 -9 -14 -9 -14 0 0 7
-4 9 -10 6 -5 -3 -10 -1 -10 5 0 7 -6 10 -14 7 -10 -4 -13 0 -11 14 4 18 2 19
-12 7 -12 -9 -15 -9 -9 0 4 7 2 12 -4 12 -6 0 -9 4 -5 9 3 6 -3 8 -13 6 -10
-2 -29 6 -43 17 l-24 20 30 -16 30 -17 -24 21 c-19 17 -26 18 -39 8 -12 -10
-14 -10 -8 0 4 7 2 12 -6 12 -10 0 -10 2 1 9 11 7 9 10 -10 13 -14 2 -23 9
-21 17 3 12 0 12 -12 2 -12 -10 -17 -9 -25 7 -6 11 -7 23 -3 28 4 5 0 3 -9 -4
-13 -10 -19 -9 -29 3 -7 8 -17 12 -23 8 -5 -3 -7 -1 -4 4 4 6 0 14 -9 17 -8 3
-12 10 -9 16 4 6 -1 7 -11 3 -13 -5 -15 -3 -9 8 7 12 6 12 -7 1 -13 -11 -19
-9 -36 12 -10 14 -22 22 -26 19 -3 -3 -6 -1 -6 6 0 7 -5 9 -12 5 -8 -5 -9 -2
-5 9 7 18 -8 24 -18 7 -8 -13 -46 11 -38 25 3 5 1 5 -6 -1 -16 -14 -53 -6 -44
10 3 6 -2 4 -13 -5 -10 -9 -26 -20 -34 -24 -13 -8 -13 -7 -1 8 9 12 10 17 2
17 -6 0 -14 -7 -17 -15 -4 -11 -11 -12 -24 -5 -12 6 -23 5 -36 -5 -23 -17 -34
-19 -34 -4 0 5 5 7 12 3 7 -5 8 -3 3 6 -6 10 -11 10 -20 -3 -14 -20 -26 -12
-18 11 4 14 3 15 -5 2 -6 -8 -9 -17 -6 -21 2 -4 -1 -11 -7 -15 -8 -4 -9 -3 -5
4 9 15 -6 16 -21 1 -7 -7 -14 -6 -24 3 -8 7 -21 14 -28 16 -12 3 -12 0 -1 -13
11 -13 10 -15 -4 -9 -9 3 -16 11 -16 17 0 6 -3 7 -7 4 -3 -4 -12 -2 -20 5 -11
9 -13 8 -11 -3 2 -8 -2 -13 -9 -12 -7 2 -10 -4 -7 -15 5 -16 5 -16 -6 1 -6 9
-8 22 -4 29 4 7 3 8 -4 4 -7 -4 -12 -16 -12 -27 0 -10 -5 -19 -11 -19 -6 0 -9
6 -6 14 5 11 -2 11 -36 -2 -23 -9 -46 -21 -50 -27 -5 -5 -6 0 -2 12 3 12 1 24
-4 28 -7 3 -8 0 -5 -10 4 -9 3 -15 -2 -14 -21 4 -33 -2 -37 -18 -4 -15 -5 -15
-6 -2 0 9 -13 21 -28 28 -23 9 -25 9 -13 -1 31 -26 19 -37 -16 -16 l-37 21 12
-22 c11 -20 11 -21 -8 -9 -11 6 -18 15 -16 18 2 4 -2 7 -9 7 -9 0 -12 -7 -8
-16 5 -13 3 -14 -9 -5 -19 15 -51 14 -45 -2 3 -8 0 -11 -9 -7 -8 3 -13 8 -11
12 3 4 -10 6 -27 5 -18 -1 -36 3 -40 9 -5 7 -5 1 -1 -13 6 -24 6 -24 -12 -9
-21 17 -63 18 -73 1 -5 -8 -14 -8 -32 2 -21 11 -26 11 -26 0 0 -7 5 -10 10 -7
6 3 7 1 3 -5 -4 -6 -13 -9 -21 -6 -8 4 -13 10 -10 14 3 5 0 12 -6 16 -7 4 -9
3 -6 -3 3 -5 -14 -15 -39 -21 -29 -8 -43 -16 -38 -24 5 -7 3 -8 -6 -3 -14 8
-14 8 37 43 10 7 3 5 -15 -3 -18 -9 -38 -13 -44 -9 -7 5 -8 3 -3 -6 5 -8 3
-11 -6 -8 -8 3 -13 11 -11 17 1 7 -2 10 -7 7 -5 -4 -8 -16 -6 -28 3 -11 1 -17
-3 -14 -4 4 -7 12 -7 18 0 16 -43 29 -51 16 -5 -7 -2 -8 6 -3 9 6 11 4 5 -5
-6 -10 -4 -12 11 -6 15 6 16 5 7 -5 -10 -10 -16 -9 -30 3 -29 24 -51 28 -68
12 -11 -12 -15 -12 -15 -2 0 10 -3 9 -10 -2 -9 -13 -10 -13 -11 0 0 10 -3 8
-9 -5 -7 -16 -9 -17 -9 -3 -1 18 -34 19 -61 3 -10 -6 -12 -4 -7 8 3 9 1 19 -5
23 -7 5 -8 2 -3 -6 6 -10 3 -12 -13 -8 -15 4 -19 2 -15 -8 3 -8 9 -11 14 -8 5
3 6 -2 2 -11 -5 -13 -7 -14 -14 -3 -5 7 -13 13 -19 13 -6 0 -14 6 -19 13 -7
11 -9 10 -14 -3 -4 -9 -3 -13 3 -10 16 10 12 -1 -6 -15 -8 -8 -14 -9 -13 -4 4
23 -3 26 -23 8 -13 -10 -17 -12 -10 -4 6 8 12 17 12 20 0 9 -63 6 -77 -3 -7
-5 -13 -4 -13 0 0 5 -27 8 -60 9 -33 0 -60 -4 -60 -8 0 -5 5 -6 10 -3 16 10
11 -1 -7 -16 -14 -12 -16 -12 -8 0 6 11 4 13 -8 8 -10 -4 -14 -2 -11 7 3 7 -2
13 -10 13 -8 0 -12 -6 -9 -13 3 -9 -2 -11 -17 -7 -15 4 -18 8 -9 14 7 4 -5 5
-27 2 -82 -10 -143 -10 -137 1 4 6 -1 5 -10 -3 -11 -9 -17 -10 -17 -2 0 6 -5
11 -11 11 -5 0 -7 -6 -3 -12 5 -8 0 -7 -11 2 -11 9 -16 10 -11 3 4 -7 2 -13
-3 -13 -6 0 -11 5 -11 10 0 6 -5 10 -11 10 -5 0 -8 -4 -4 -9 3 -5 0 -13 -6
-17 -7 -4 -9 -3 -5 4 7 11 -9 25 -32 28 -8 2 -11 -3 -8 -11 6 -16 -20 -13 -55
5 -12 7 -19 8 -15 2 3 -5 -3 -12 -14 -15 -21 -5 -28 9 -8 15 9 3 9 6 0 12 -7
4 -12 2 -12 -4 0 -6 -5 -8 -12 -4 -8 5 -9 1 -5 -12 5 -14 2 -13 -13 6 -11 14
-18 18 -14 9 6 -19 -11 -35 -21 -19 -5 8 -12 7 -23 -2 -15 -11 -15 -11 -4 4
10 12 10 18 1 24 -8 5 -9 3 -4 -6 6 -10 2 -11 -20 -6 -24 6 -27 4 -21 -11 4
-12 -1 -9 -13 7 -14 18 -19 20 -18 8 1 -9 -2 -17 -8 -17 -5 -1 -10 4 -10 9 0
6 -4 10 -10 10 -5 0 -10 -4 -10 -9 0 -5 -4 -13 -9 -18 -5 -4 -6 -3 -3 3 4 7 0
14 -8 18 -9 3 -15 0 -15 -10 0 -8 -5 -12 -10 -9 -6 4 -8 10 -5 15 3 5 0 12 -6
16 -8 4 -9 3 -5 -4 5 -8 -2 -12 -21 -12 -15 0 -34 -4 -42 -9 -17 -11 -53 8
-43 24 3 5 -2 4 -11 -4 -9 -7 -14 -18 -11 -23 10 -15 -39 13 -54 31 -11 14
-11 14 -5 -3 5 -15 3 -17 -8 -10 -20 12 -38 14 -45 3 -3 -5 -11 -6 -17 -2 -30
19 -47 9 -27 -15 7 -9 7 -9 -2 -2 -17 14 -41 13 -32 -2 5 -9 2 -9 -9 1 -9 7
-17 10 -17 6 0 -4 -11 0 -25 9 -26 17 -33 10 -12 -14 9 -11 8 -11 -8 0 -11 8
-23 20 -27 25 -5 7 -8 6 -8 -1 0 -5 -19 -11 -41 -11 -23 0 -46 -7 -51 -14 -8
-11 -8 -10 -4 4 5 15 2 17 -14 12 -13 -4 -20 -2 -20 6 0 7 -6 4 -14 -7 -14
-18 -15 -18 -25 6 -5 14 -10 18 -10 10 -1 -16 -51 -24 -51 -8 0 4 -5 8 -11 8
-5 0 -7 -4 -4 -10 3 -6 2 -10 -3 -10 -17 0 -22 13 -9 29 11 14 10 14 -6 2 -10
-8 -16 -20 -13 -27 4 -11 2 -11 -14 -1 -11 6 -20 16 -20 21 0 6 -7 1 -16 -10
-11 -14 -17 -16 -21 -6 -4 10 -10 9 -27 -5 -11 -10 -18 -14 -14 -9 10 11 -11
38 -23 30 -5 -3 -9 0 -9 6 0 7 -7 5 -16 -4 -16 -17 -26 -19 -59 -17 -17 2 -17
0 -5 -8 11 -8 11 -11 2 -11 -7 0 -17 10 -22 23 -9 22 -9 22 -10 -3 0 -19 -2
-22 -9 -10 -6 8 -7 19 -4 25 3 5 0 5 -7 -2 -9 -8 -19 -9 -31 -3 -10 6 -20 6
-23 2 -3 -5 1 -9 9 -10 8 -1 22 -3 30 -4 8 -1 12 -5 9 -10 -3 -4 -13 -4 -22 1
-9 4 -22 6 -29 4 -6 -2 -13 4 -16 14 -4 17 -5 17 -6 1 0 -10 -6 -18 -12 -18
-5 0 -7 6 -3 13 4 6 4 9 0 5 -5 -4 -19 -3 -32 2 -19 8 -22 6 -17 -8 6 -15 5
-16 -12 -2 -10 8 -16 10 -12 3 4 -6 2 -15 -4 -19 -7 -4 -10 -3 -6 2 3 5 -1 17
-8 27 -11 16 -13 16 -19 2 -4 -11 -2 -14 7 -9 6 4 8 3 4 -1 -10 -11 -39 -16
-32 -5 11 17 -30 19 -118 7 -15 -3 -30 0 -33 4 -3 5 -10 9 -15 9 -6 0 -7 -4
-4 -10 4 -6 -1 -7 -11 -3 -13 5 -15 3 -9 -7 5 -9 4 -11 -4 -6 -9 6 -9 11 1 24
12 14 10 14 -10 3 -13 -7 -26 -10 -29 -7 -3 3 -14 1 -24 -5 -13 -6 -19 -6 -19
1 0 5 -4 10 -10 10 -5 0 -9 -3 -7 -8 1 -4 -2 -7 -8 -7 -5 0 -9 3 -8 7 4 12
-11 10 -24 -3 -8 -8 -13 -8 -17 0 -4 6 -12 11 -18 11 -6 0 -5 -7 3 -17 13 -15
12 -15 -8 -3 -12 8 -19 19 -15 25 3 5 -2 4 -11 -4 -9 -7 -17 -9 -17 -4 0 5 -7
10 -15 10 -12 0 -12 -3 -2 -16 10 -12 9 -13 -2 -7 -8 5 -16 4 -21 -4 -5 -8 -9
-7 -13 5 -4 9 -3 13 3 10 6 -3 10 -1 10 4 0 15 -11 14 -32 -5 -16 -16 -18 -15
-25 1 -6 18 -7 18 -14 -1 -7 -17 -8 -17 -8 -1 -1 17 -12 22 -25 10 -13 -14
-38 -12 -32 3 3 8 3 14 0 14 -2 0 -9 -10 -14 -22 -6 -16 -9 -18 -9 -7 -1 22
-28 45 -28 24 0 -8 5 -11 11 -8 6 4 5 -1 -2 -9 -14 -18 -42 -14 -42 6 0 6 -4
5 -9 -4 -6 -8 -7 -19 -3 -25 3 -5 -2 -4 -11 4 -9 7 -17 19 -17 27 0 7 -4 15
-9 18 -5 4 -7 -4 -4 -16 3 -17 2 -19 -5 -9 -7 9 -11 10 -17 2 -5 -9 -11 -9
-23 1 -12 10 -14 10 -8 1 4 -8 2 -13 -5 -13 -6 0 -9 8 -6 20 7 27 -1 25 -12
-3 -7 -18 -16 -23 -46 -22 -20 1 -41 8 -46 16 -6 10 -9 10 -9 2 0 -7 -5 -13
-11 -13 -5 0 -7 6 -3 13 4 6 -3 3 -16 -8 -13 -11 -20 -14 -15 -6 6 11 4 13 -8
8 -10 -4 -17 -1 -17 6 0 8 -4 6 -10 -3 -7 -11 -10 -11 -10 -2 0 7 -5 10 -10 7
-6 -4 -8 -10 -5 -15 3 -5 0 -12 -6 -16 -7 -4 -9 -3 -5 4 9 15 -15 21 -42 11
-17 -7 -21 -6 -16 3 5 8 2 9 -9 5 -10 -4 -20 0 -25 10 -8 14 -10 13 -15 -1 -5
-11 -3 -15 5 -10 7 4 8 3 4 -4 -7 -11 -36 -6 -36 7 0 4 -18 7 -40 7 -31 0 -39
-4 -35 -15 5 -12 3 -12 -11 0 -10 8 -20 14 -23 14 -3 0 -5 4 -3 8 1 5 -2 6 -8
2 -6 -3 -8 -11 -5 -16 4 -5 1 -9 -4 -9 -6 0 -11 5 -11 12 0 9 -3 9 -11 1 -6
-6 -18 -9 -25 -6 -8 3 -14 0 -14 -6 0 -6 -8 -3 -18 7 -11 9 -17 21 -14 26 3 5
0 6 -7 2 -9 -6 -9 -11 -1 -21 8 -10 8 -15 -1 -21 -8 -4 -9 -3 -5 4 4 7 4 12
-1 13 -48 5 -71 4 -67 -3 3 -4 0 -8 -5 -8 -6 0 -11 8 -11 18 0 14 -2 14 -9 3
-5 -8 -17 -16 -26 -17 -12 -2 -14 3 -11 19 3 12 3 16 0 9 -3 -6 -11 -9 -16 -6
-6 4 -8 2 -5 -3 4 -6 0 -14 -9 -17 -12 -5 -15 -2 -10 9 3 9 2 13 -3 10 -5 -3
-12 -1 -16 5 -4 6 -13 5 -25 -2 -10 -7 -16 -16 -14 -20 3 -4 1 -8 -5 -8 -5 0
-12 6 -14 13 -4 10 -6 10 -6 0 -1 -15 -31 -18 -31 -3 0 6 -5 10 -11 10 -5 0
-8 -4 -4 -9 3 -5 1 -13 -5 -16 -6 -4 -9 -1 -8 6 3 14 -20 19 -37 9 -5 -3 -17
-6 -25 -5 -8 0 -19 -4 -23 -10 -5 -6 -7 -4 -4 5 2 8 10 14 16 12 7 -1 10 2 6
7 -6 10 -45 -2 -74 -23 -11 -8 -13 -8 -8 0 4 7 0 15 -9 18 -8 3 -13 2 -10 -3
3 -5 -1 -11 -9 -14 -9 -4 -12 -1 -9 7 3 7 -2 13 -11 13 -9 0 -14 -6 -11 -14 4
-9 2 -11 -7 -6 -22 14 -60 15 -51 2 4 -8 3 -9 -5 -5 -6 4 -9 11 -6 16 3 5 1
12 -5 15 -6 4 -9 3 -8 -2 2 -4 -2 -8 -7 -8 -6 0 -9 4 -7 10 2 5 -5 2 -16 -8
-24 -22 -39 -22 -21 0 12 14 12 15 0 9 -8 -5 -17 -3 -23 5 -8 11 -9 10 -4 -3
3 -10 1 -20 -4 -23 -6 -4 -10 -1 -10 4 0 6 -7 11 -16 11 -14 0 -15 -2 -3 -17
12 -16 12 -17 -2 -6 -9 7 -20 9 -24 5 -5 -4 -6 0 -3 8 4 11 0 16 -13 16 -11 0
-15 -4 -9 -11 5 -6 -1 -11 -17 -12 -19 -1 -22 1 -12 8 10 6 4 9 -18 9 -19 0
-33 5 -33 12 0 6 -3 8 -6 5 -4 -4 -1 -15 7 -24 7 -10 0 -7 -15 7 -16 14 -26
19 -22 13 5 -9 0 -13 -13 -13 -11 0 -23 -4 -26 -10 -8 -13 -25 -13 -25 1 0 5
4 8 9 5 5 -3 14 1 20 8 10 12 9 14 -6 11 -10 -2 -20 -4 -23 -5 -3 -1 -9 -2
-14 -1 -5 1 -6 -4 -3 -11 3 -10 -8 -13 -40 -14 -33 0 -42 3 -38 13 3 9 0 11
-6 7 -6 -4 -16 0 -21 7 -7 10 -8 8 -3 -8 4 -15 2 -21 -9 -19 -9 1 -19 6 -23
11 -4 4 -2 5 4 1 9 -5 11 -2 6 10 -4 11 -8 13 -11 6 -2 -7 -21 -12 -43 -12
-22 0 -38 4 -35 8 2 4 -6 8 -19 8 -13 0 -21 -4 -19 -8 3 -4 -1 -8 -10 -8 -8 0
-16 3 -19 8 -2 4 -2 2 -1 -5 2 -7 -1 -15 -6 -18 -6 -4 -10 -2 -10 3 0 6 -7 13
-16 16 -14 5 -15 4 -5 -8 10 -12 8 -13 -10 -9 -17 5 -20 3 -14 -7 5 -9 4 -11
-3 -6 -7 4 -12 15 -13 24 0 14 -2 13 -9 -3 -5 -11 -9 -14 -9 -7 -1 8 -6 10
-13 5 -20 -12 -48 -14 -48 -3 0 6 5 10 11 10 5 0 7 5 3 11 -4 8 -11 4 -19 -11
-9 -17 -14 -19 -18 -9 -5 12 -6 12 -6 0 -1 -11 -5 -10 -17 5 -8 10 -13 14 -10
7 4 -6 2 -14 -4 -18 -5 -3 -10 -2 -10 4 0 6 -8 7 -17 4 -16 -6 -17 -5 -3 13
14 18 14 18 -2 5 -10 -7 -16 -17 -13 -21 3 -5 1 -12 -5 -15 -6 -4 -9 -3 -8 2
2 4 -2 8 -7 8 -5 0 -9 -4 -7 -8 1 -5 -2 -5 -8 -2 -6 4 -33 8 -61 8 -37 2 -49
-2 -50 -13 0 -8 -4 -5 -10 8 -7 19 -29 23 -29 6 0 -3 4 -3 8 0 5 3 9 -2 9 -10
0 -10 -4 -11 -11 -4 -14 14 -29 13 -20 -2 6 -10 4 -10 -8 0 -8 7 -22 10 -31 6
-8 -3 -18 -1 -22 5 -3 7 0 8 9 5 9 -3 16 -2 16 4 0 6 -8 9 -17 7 -10 -1 -17
-10 -17 -19 2 -13 -1 -14 -12 -5 -8 6 -14 8 -14 3 0 -5 -9 2 -20 16 -18 23
-19 23 -16 4 3 -15 -1 -20 -15 -19 -10 1 -22 5 -26 10 -5 4 -2 5 5 1 6 -4 12
-2 12 4 0 7 -7 9 -16 6 -9 -3 -18 -6 -20 -6 -3 0 -2 -6 2 -12 5 -10 4 -10 -6
-1 -11 10 -18 9 -34 -5 -11 -9 -16 -11 -12 -4 7 11 -7 17 -29 12 -5 -1 -16 -3
-23 -3 -7 0 -10 -7 -7 -16 3 -9 -3 -5 -13 8 -15 18 -21 21 -27 11 -6 -9 -4
-11 5 -5 8 5 11 4 7 -2 -9 -14 -47 -9 -58 8 -7 12 -9 11 -9 -3 0 -16 -22 -19
-36 -5 -4 4 -14 1 -22 -6 -13 -10 -14 -9 -8 2 6 9 5 12 -5 9 -8 -3 -13 -11
-12 -17 2 -6 -2 -11 -7 -11 -6 0 -10 5 -10 10 0 12 -26 14 -33 3 -2 -5 -2 -2
-1 5 2 6 -1 12 -6 12 -6 0 -10 -6 -10 -12 0 -9 -4 -8 -10 2 -8 12 -10 12 -11
-5 -1 -17 -2 -16 -9 5 -6 18 -8 20 -9 7 -1 -10 -6 -15 -11 -12 -6 4 -7 11 -4
17 4 7 2 8 -5 4 -6 -4 -9 -12 -6 -17 4 -5 1 -10 -4 -10 -6 -1 -17 -2 -23 -3
-7 -1 -21 1 -30 6 -10 5 -18 3 -21 -5 -3 -8 -7 -7 -12 5 -6 15 -8 15 -27 -4
-11 -11 -23 -17 -26 -13 -4 3 0 11 8 16 11 8 8 9 -10 4 -40 -11 -45 -11 -42 4
3 12 0 12 -12 2 -8 -7 -21 -9 -27 -5 -8 5 -9 3 -4 -6 5 -8 3 -11 -6 -8 -8 3
-13 11 -11 17 1 7 -2 10 -8 6 -6 -3 -8 -10 -5 -15 3 -4 -2 -11 -11 -14 -12 -5
-15 -2 -10 11 6 16 6 16 -12 0 -21 -19 -32 -22 -32 -6 0 5 5 7 12 3 7 -4 8 -3
4 5 -6 9 -11 9 -23 -1 -23 -19 -46 -19 -38 0 5 13 2 13 -15 -3 -11 -10 -20
-15 -20 -10 0 4 -7 2 -16 -5 -12 -11 -15 -11 -12 -1 2 8 -5 15 -14 16 -10 2
-18 -1 -18 -6 0 -6 -6 -7 -12 -2 -21 12 -48 14 -48 2 0 -5 4 -7 10 -4 6 3 7
-1 3 -10 -3 -9 -9 -13 -12 -8 -8 13 -51 14 -51 2 0 -6 -4 -8 -10 -4 -5 3 -7
12 -3 20 3 8 0 15 -7 15 -6 0 -9 -4 -6 -8 2 -4 1 -14 -5 -22 -7 -13 -9 -13 -9
-1 0 11 -4 9 -15 -5 -10 -13 -13 -14 -10 -3 4 10 0 16 -10 16 -10 0 -14 -6
-10 -16 5 -13 3 -12 -12 1 -24 22 -32 22 -50 1 -8 -10 -12 -13 -10 -8 3 6 -2
16 -10 24 -13 12 -14 11 -8 -10 8 -24 8 -24 -14 -5 -19 17 -21 17 -15 3 5 -13
2 -16 -10 -11 -9 3 -16 10 -16 16 0 5 -7 2 -16 -6 -8 -9 -20 -14 -25 -10 -6 3
-17 0 -26 -8 -14 -11 -16 -11 -8 1 6 11 4 13 -7 8 -9 -3 -25 1 -37 9 -19 14
-20 13 -14 -3 6 -16 5 -16 -10 -4 -12 9 -17 10 -17 2 0 -7 -5 -9 -10 -6 -6 4
-7 12 -4 18 4 7 3 8 -2 4 -5 -5 -10 -13 -10 -18 -1 -5 -2 -12 -3 -16 0 -4 -8
2 -17 13 -15 18 -15 18 -10 0 5 -15 4 -17 -7 -8 -10 9 -17 8 -27 -1 -10 -10
-12 -8 -6 7 5 16 4 17 -9 6 -14 -12 -20 -7 -15 15 1 6 -11 -1 -26 -15 -15 -14
-25 -20 -21 -15 3 6 -4 12 -16 12 -17 2 -19 0 -7 -7 9 -6 10 -10 3 -10 -6 0
-15 4 -18 10 -4 6 -17 3 -33 -7 -25 -16 -26 -16 -14 -1 12 15 10 16 -14 14
-16 -2 -30 -11 -34 -21 -5 -15 -8 -16 -12 -4 -6 16 -82 19 -96 4 -4 -5 -1 -5
7 0 9 5 12 4 7 -3 -7 -11 -51 -10 -63 1 -13 14 -25 6 -13 -8 11 -13 10 -14 -4
-9 -9 3 -16 10 -16 15 0 6 -8 5 -19 -1 -13 -7 -22 -7 -26 0 -4 7 -12 7 -25 0
-23 -12 -43 -13 -36 -2 3 5 -1 9 -9 9 -8 0 -12 -4 -9 -9 3 -4 -4 -8 -15 -8
-10 0 -22 6 -24 13 -3 6 -6 1 -6 -12 -1 -24 -1 -24 -17 -5 -8 10 -13 14 -10 8
11 -22 -23 -23 -39 -1 -17 25 -20 7 -4 -26 l10 -22 -18 22 c-20 25 -75 40 -67
19 3 -7 -2 -13 -11 -13 -8 0 -15 4 -15 9 0 5 -5 6 -10 3 -6 -4 -8 -12 -4 -18
3 -7 -2 -3 -10 7 -9 11 -16 14 -16 8 0 -16 -37 -15 -43 1 -3 6 -6 3 -7 -8 -1
-20 -1 -20 -15 -1 -8 11 -15 14 -15 8 0 -14 -36 -12 -59 2 -9 6 -12 5 -8 -1 9
-14 -39 -23 -51 -11 -6 6 -13 5 -17 -3 -6 -8 -4 -10 6 -4 12 7 12 6 0 -6 -11
-11 -14 -11 -18 -1 -4 10 -8 10 -19 1 -11 -9 -14 -8 -15 2 0 8 -4 5 -9 -6 l-9
-20 -1 20 c-1 18 -2 18 -10 3 -6 -9 -19 -15 -30 -13 -11 2 -22 -1 -26 -6 -4
-6 -17 -1 -32 13 -14 13 -22 17 -17 9 6 -11 4 -13 -8 -8 -22 8 -49 -2 -40 -16
3 -5 2 -7 -4 -4 -17 10 -63 16 -63 8 0 -5 -9 -11 -21 -14 -16 -4 -18 -3 -8 9
7 9 8 14 1 14 -6 0 -14 -4 -17 -10 -3 -5 -22 -10 -41 -10 -19 0 -34 -5 -34
-11 0 -5 -5 -7 -10 -4 -8 5 -8 11 0 20 8 10 8 15 -1 21 -7 4 -10 3 -6 -2 3 -5
-1 -18 -9 -29 -8 -10 -14 -13 -14 -7 0 7 -5 12 -11 12 -5 0 -7 -6 -3 -12 4 -7
-3 -4 -16 7 l-23 20 12 -22 c10 -20 9 -21 -11 -18 -13 3 -24 9 -26 15 -2 6 -8
7 -13 4 -20 -12 -69 -23 -64 -13 11 16 -7 10 -22 -8 -14 -17 -14 -17 -9 -1 3
10 0 20 -6 24 -6 4 -8 3 -5 -3 7 -11 -16 -25 -43 -27 -8 -1 -20 -4 -26 -8 -6
-4 -22 -1 -37 7 -23 12 -25 11 -19 -3 5 -15 4 -16 -13 -2 -17 14 -18 13 -11
-5 4 -11 4 -16 0 -12 -4 4 -14 1 -23 -6 -14 -10 -14 -10 -3 5 18 22 -8 31 -26
9 -8 -9 -11 -10 -7 -3 3 6 1 12 -4 12 -6 0 -11 -6 -11 -12 0 -9 -4 -8 -10 2
-9 13 -10 13 -10 0 0 -13 -1 -13 -10 0 -9 13 -10 13 -10 0 0 -13 -1 -13 -10 0
-9 14 -15 6 -10 -15 1 -5 -2 -7 -6 -3 -4 4 -13 3 -21 -4 -8 -6 -13 -7 -12 -2
3 20 -2 22 -31 14 -23 -7 -32 -5 -41 8 -10 16 -10 16 -5 0 5 -15 0 -17 -34
-15 -21 2 -37 0 -35 -4 3 -3 -11 -6 -29 -5 -19 0 -32 4 -30 7 2 4 -8 9 -21 12
-14 2 -28 0 -32 -6 -3 -5 -2 -7 3 -4 6 3 16 2 24 -3 9 -6 2 -8 -20 -6 -19 2
-41 -1 -48 -7 -9 -7 -11 -5 -5 9 6 17 5 17 -10 5 -9 -7 -15 -17 -12 -20 2 -4
-2 -8 -10 -8 -10 0 -12 4 -5 12 8 9 6 14 -5 19 -9 3 -13 2 -10 -4 3 -5 -4 -8
-15 -7 -11 1 -20 5 -20 10 0 5 -9 -1 -21 -14 -15 -17 -19 -19 -15 -6 3 9 1 17
-4 17 -9 0 -14 -13 -12 -31 1 -3 -6 -6 -13 -6 -11 0 -12 4 -4 13 8 10 4 12
-18 8 -15 -3 -33 -12 -39 -20 -9 -11 -13 -12 -16 -3 -2 7 -12 13 -21 15 -10 1
-14 -2 -11 -8 4 -6 1 -8 -7 -6 -8 3 -13 11 -11 17 1 7 -2 10 -8 6 -6 -3 -8
-11 -5 -16 4 -5 -1 -9 -10 -9 -10 0 -13 5 -9 13 6 9 4 9 -7 1 -8 -6 -26 -10
-41 -9 -20 1 -25 -2 -21 -14 4 -14 3 -14 -9 1 -13 15 -15 15 -26 0 -10 -15
-11 -15 -5 2 4 13 3 17 -4 13 -6 -4 -14 -1 -17 5 -3 7 -3 2 0 -12 l7 -25 -22
19 c-22 20 -22 20 -15 0 7 -19 7 -19 -15 1 -12 11 -22 15 -21 10 5 -21 -1 -25
-20 -15 -16 9 -18 8 -14 -5 5 -11 2 -13 -9 -9 -9 3 -14 13 -10 22 4 14 3 15
-5 2 -8 -10 -7 -19 1 -29 10 -12 9 -13 -2 -7 -8 5 -17 3 -23 -5 -6 -10 -7 -6
-3 11 6 24 5 24 -9 6 -15 -18 -20 -15 -17 9 1 6 -6 0 -16 -12 -13 -16 -22 -20
-32 -14 -8 5 -24 6 -35 1 -11 -4 -32 -4 -46 -1 -14 4 -31 6 -37 5 -7 -1 -17
-2 -23 -3 -5 0 -7 -9 -4 -18 5 -15 4 -15 -5 -3 -12 17 -91 21 -84 4 2 -6 -3
-11 -12 -11 -9 0 -14 6 -11 12 2 6 -2 12 -9 12 -7 0 -11 -6 -8 -14 3 -7 1 -13
-5 -13 -6 0 -13 6 -15 13 -4 10 -6 10 -6 0 -1 -7 -8 -13 -17 -13 -8 0 -13 -4
-10 -8 2 -4 -6 -8 -19 -8 -21 0 -26 9 -7 12 18 2 42 17 42 26 0 6 -7 4 -16 -3
-21 -17 -44 -20 -45 -6 0 7 -4 2 -9 -10 -5 -13 -15 -23 -22 -23 -9 0 -9 3 2
10 12 8 9 10 -12 10 -14 0 -29 -6 -31 -12 -3 -7 -6 -2 -7 12 -1 25 -1 25 -10
3 -10 -23 -30 -32 -30 -12 0 5 5 7 12 3 7 -4 8 -3 4 5 -4 6 -12 9 -17 5 -5 -3
-18 0 -27 7 -14 11 -15 11 -4 -1 16 -18 15 -27 -3 -27 -8 0 -12 3 -10 7 4 6
-15 7 -48 1 -5 0 -5 -6 -2 -11 4 -6 3 -10 -2 -9 -4 1 -10 0 -13 -1 -17 -7 -70
-5 -70 2 0 5 -5 6 -10 3 -6 -4 -7 -11 -4 -17 4 -7 2 -8 -5 -4 -6 4 -9 11 -7
15 3 4 -1 8 -9 8 -8 0 -12 -4 -9 -9 9 -14 -7 -9 -24 8 -14 15 -17 15 -27 0
-13 -17 -30 -23 -20 -7 3 5 1 13 -5 16 -6 4 -10 3 -9 -2 4 -20 -2 -27 -12 -13
-9 12 -10 11 -6 -7 3 -13 1 -23 -4 -23 -5 0 -9 10 -10 23 0 12 -3 16 -6 10 -2
-7 -17 -13 -33 -13 -16 0 -31 -6 -33 -12 -4 -9 -6 -9 -6 1 -1 11 -5 10 -16 -5
-10 -13 -13 -14 -10 -3 4 9 0 16 -9 16 -8 0 -12 -6 -10 -12 3 -8 -5 -10 -27
-7 -21 3 -27 7 -18 13 10 6 7 8 -8 7 -11 -1 -19 -7 -16 -14 2 -7 -1 -15 -8
-20 -7 -4 -10 -3 -6 2 3 6 -3 16 -15 23 -15 9 -18 10 -12 0 5 -9 1 -11 -14 -7
-15 4 -19 2 -15 -8 3 -8 0 -14 -6 -14 -6 0 -11 5 -11 11 0 8 -4 8 -14 0 -11
-9 -15 -9 -19 1 -4 9 -6 8 -6 -3 -1 -9 -8 -20 -17 -23 -14 -5 -15 -4 -5 8 9
11 9 16 0 22 -8 4 -9 3 -5 -4 4 -7 3 -12 -3 -12 -5 0 -13 5 -16 11 -5 7 -13 5
-24 -5 -10 -9 -21 -13 -26 -9 -4 5 -4 -3 0 -17 7 -23 7 -23 -9 -7 -19 18 -31
23 -21 8 3 -5 0 -13 -6 -17 -7 -4 -9 -3 -6 3 4 6 1 16 -7 22 -10 9 -15 8 -20
-4 -4 -11 -2 -14 6 -9 7 4 8 3 4 -4 -4 -6 -14 -8 -23 -5 -11 4 -14 3 -9 -5 11
-18 0 -14 -15 5 -8 10 -9 14 -2 10 6 -4 14 -4 17 1 2 4 -6 8 -19 8 -20 0 -22
-3 -14 -19 9 -16 8 -17 -10 -7 -12 6 -21 7 -21 3 0 -4 -5 -1 -10 7 -6 10 -10
11 -10 3 0 -7 -9 -13 -21 -13 -11 0 -17 5 -14 10 3 6 1 10 -4 10 -6 0 -11 -9
-11 -21 0 -11 -5 -17 -10 -14 -6 4 -8 10 -5 15 3 4 -4 6 -15 3 -11 -3 -18 -9
-15 -13 3 -5 1 -11 -4 -14 -5 -4 -13 -1 -17 5 -5 8 -3 9 7 4 8 -5 10 -4 6 0
-10 12 -38 15 -31 4 3 -5 1 -9 -5 -9 -5 0 -11 6 -14 13 -3 9 -8 9 -18 -2 -12
-12 -12 -13 0 -6 10 6 12 4 6 -5 -6 -10 -12 -7 -25 10 -13 17 -19 20 -25 10
-5 -9 -4 -11 3 -6 7 4 12 2 12 -3 0 -6 -9 -11 -21 -11 -13 0 -18 4 -13 13 6
10 4 10 -7 0 -17 -17 -32 -17 -24 0 4 6 1 5 -7 -4 -7 -8 -22 -18 -33 -22 -19
-7 -19 -7 -1 7 17 14 17 15 -8 12 -14 -1 -29 -6 -34 -11 -4 -4 -1 -5 6 -1 6 4
12 2 12 -3 0 -16 -11 -13 -33 7 -19 16 -20 16 -9 -4 9 -16 8 -21 -3 -21 -8 0
-13 5 -12 11 1 6 -16 11 -38 11 -31 1 -45 -4 -62 -24 -12 -14 -22 -20 -23 -13
0 6 5 12 10 12 6 0 10 8 10 18 0 14 -2 15 -10 2 -9 -13 -11 -13 -20 0 -7 11
-10 11 -10 2 0 -7 -4 -11 -9 -8 -5 3 -14 -1 -21 -8 -13 -17 -50 -17 -50 -1 0
5 -4 3 -9 -5 -6 -8 -7 -18 -4 -24 3 -5 1 -6 -6 -2 -6 4 -9 11 -6 16 3 4 -2 11
-11 14 -23 9 -31 7 -14 -4 13 -8 13 -11 1 -22 -8 -7 -11 -8 -8 -3 3 6 -3 16
-13 23 -16 9 -18 9 -14 -2 3 -8 0 -17 -7 -22 -8 -4 -10 -3 -5 4 7 12 -7 16
-52 14 -14 -1 -20 3 -16 10 4 7 3 8 -4 4 -6 -4 -9 -12 -6 -20 3 -7 -2 -13 -10
-13 -8 0 -13 4 -10 9 3 4 -2 5 -10 2 -9 -3 -14 -10 -11 -14 3 -5 -9 -5 -27 1
-40 11 -40 11 -34 1 2 -4 -14 -6 -36 -4 -32 4 -39 2 -32 -9 6 -12 5 -12 -9 0
-10 8 -21 11 -24 7 -4 -4 -1 -11 7 -16 9 -6 10 -10 3 -10 -6 0 -15 5 -18 10
-4 6 -11 8 -16 5 -5 -4 -9 -1 -9 5 0 6 -4 9 -10 5 -5 -3 -7 -13 -4 -23 3 -9
-2 -6 -10 8 -8 14 -15 19 -16 12 0 -8 -11 -11 -35 -9 -25 3 -35 0 -35 -9 0 -8
-5 -14 -11 -14 -5 0 -7 6 -3 13 5 7 0 6 -11 -3 -14 -11 -17 -12 -11 -1 6 9 5
12 -5 9 -8 -3 -13 -11 -11 -17 1 -7 -2 -10 -8 -6 -6 3 -8 11 -5 16 4 5 2 9 -3
9 -6 0 -13 -7 -16 -16 -6 -15 -9 -15 -30 5 -17 16 -23 18 -23 7 0 -8 4 -13 9
-10 4 3 8 0 8 -6 0 -7 -7 -9 -15 -6 -8 3 -22 9 -30 12 -9 4 -15 3 -14 -2 4
-21 -2 -26 -16 -14 -10 8 -19 9 -27 3 -7 -6 -26 -8 -41 -6 -21 3 -27 0 -21 -8
4 -8 3 -9 -4 -5 -7 4 -12 15 -13 24 0 14 -2 13 -9 -3 -5 -12 -9 -14 -9 -6 -1
8 -4 11 -8 8 -3 -4 -12 -2 -20 5 -10 8 -12 8 -8 -4 4 -11 -2 -14 -25 -12 -23
2 -28 -1 -21 -10 7 -8 5 -12 -9 -12 -10 0 -17 3 -14 7 5 9 -18 17 -34 12 -6
-3 -9 -10 -5 -16 4 -7 -1 -6 -10 2 -19 15 -19 15 -36 -14 -11 -19 -12 -19 -6
3 8 27 -1 28 -23 4 -10 -10 -14 -13 -10 -7 13 20 -4 26 -19 7 -12 -14 -14 -14
-10 -1 3 9 -1 16 -9 16 -9 0 -13 -6 -9 -16 3 -8 3 -12 -1 -8 -4 4 -14 1 -22
-6 -10 -7 -13 -8 -9 -1 4 7 -3 14 -17 16 -19 4 -23 1 -18 -11 3 -11 -5 -7 -24
9 -15 14 -23 18 -16 9 11 -14 9 -16 -13 -11 -15 2 -22 9 -18 16 3 6 -3 2 -15
-8 -24 -21 -31 -36 -8 -17 11 9 16 9 22 -1 4 -7 4 -10 -1 -6 -4 4 -14 3 -21
-3 -11 -9 -16 -6 -23 12 -9 21 -10 22 -11 4 -1 -18 -2 -18 -11 -3 -5 9 -16 15
-24 12 -8 -4 -12 -10 -9 -15 3 -5 1 -9 -5 -9 -5 0 -15 8 -21 18 -9 14 -10 13
-4 -8 5 -20 4 -23 -7 -12 -15 13 -33 17 -25 4 8 -13 -30 -8 -47 6 -12 10 -16
9 -21 -3 -3 -9 -2 -13 3 -10 5 3 12 1 15 -4 7 -11 -13 -9 -33 3 -11 7 -13 5
-8 -10 7 -18 6 -18 -8 1 -14 17 -17 18 -25 5 -7 -10 -10 -11 -10 -2 0 6 -5 12
-10 12 -6 0 -9 -3 -9 -7 3 -20 -2 -23 -17 -9 -18 18 -34 21 -34 5 0 -5 5 -7
10 -4 6 3 10 1 10 -5 0 -7 -6 -10 -14 -7 -8 3 -17 1 -20 -6 -3 -9 -5 -8 -5 1
-1 7 -6 10 -13 6 -7 -4 -8 -3 -4 5 4 6 12 8 18 5 7 -4 8 -2 4 5 -5 8 -12 9
-20 2 -7 -6 -29 -9 -50 -7 -26 3 -36 0 -33 -8 3 -7 -5 -12 -19 -12 -13 0 -24
3 -24 7 0 4 -7 10 -16 13 -14 6 -15 4 -4 -9 11 -13 11 -16 -1 -13 -8 2 -17 8
-21 13 -5 6 -8 5 -8 -2 0 -7 -4 -13 -10 -13 -5 0 -6 8 -3 17 6 15 5 16 -9 3
-9 -8 -14 -18 -12 -22 2 -4 0 -10 -6 -13 -6 -4 -9 -1 -8 6 2 7 -2 13 -9 14 -6
0 -14 3 -18 7 -8 8 -37 -2 -47 -16 -5 -7 -8 -7 -8 -1 0 14 -119 8 -138 -7 -9
-7 -13 -8 -9 -2 4 7 -4 14 -20 17 -25 5 -26 4 -9 -8 18 -13 17 -14 -3 -12 -11
1 -21 6 -21 12 0 5 -5 3 -10 -5 -5 -8 -10 -10 -10 -5 0 13 -38 17 -45 4 -3 -5
0 -6 8 -3 8 3 20 -3 28 -13 13 -17 13 -17 -5 -3 -15 11 -20 12 -23 3 -3 -7 -9
-13 -14 -13 -6 0 -8 4 -5 8 2 4 1 14 -5 22 -7 12 -9 11 -10 -5 l0 -20 -9 20
c-7 16 -9 17 -9 3 -1 -9 -5 -20 -11 -23 -6 -3 -7 1 -4 10 5 11 2 14 -10 9 -9
-3 -14 -10 -11 -14 3 -4 -12 -6 -33 -3 -20 2 -49 6 -64 7 -15 2 -25 0 -22 -5
3 -5 10 -6 16 -3 7 4 8 2 4 -4 -5 -9 -13 -9 -26 -2 -14 8 -21 6 -28 -6 -8 -15
-10 -15 -15 0 -5 11 -3 15 5 10 7 -4 8 -3 4 4 -5 9 -13 9 -27 2 -24 -13 -25
-22 -1 -13 18 7 17 5 -12 -17 -11 -8 -17 -10 -13 -3 5 7 -1 16 -12 22 -15 8
-23 7 -35 -5 -9 -8 -16 -11 -16 -6 0 6 -7 13 -16 16 -13 5 -14 3 -6 -7 8 -10
6 -13 -8 -13 -10 0 -16 4 -13 9 3 5 0 7 -8 5 -8 -3 -13 -10 -12 -15 1 -5 -8
-10 -19 -10 -19 -2 -19 -1 -3 11 14 10 15 15 5 21 -8 5 -11 4 -7 -2 4 -6 -2
-13 -13 -16 -11 -3 -20 -1 -20 3 0 11 -28 6 -41 -7 -14 -14 -42 -5 -33 9 4 6
-5 2 -20 -7 -14 -10 -26 -13 -26 -7 0 6 6 12 13 15 6 3 2 4 -11 4 -12 -1 -21
-6 -19 -12 7 -17 -97 -13 -105 5 -5 12 -7 12 -7 -2 -1 -10 -4 -18 -8 -19 -5 0
-18 -2 -30 -3 -12 -1 -20 1 -17 6 8 13 -10 10 -25 -4 -8 -7 -11 -8 -8 -3 3 6
-4 17 -16 25 -19 12 -21 11 -10 -2 13 -15 8 -28 -9 -28 -5 0 -7 4 -4 9 3 5 -1
12 -10 15 -8 3 -13 2 -10 -3 3 -5 -2 -15 -11 -22 -9 -8 -14 -9 -10 -3 4 7 -1
18 -10 25 -13 11 -15 11 -9 1 5 -9 3 -13 -5 -11 -35 4 -42 0 -28 -18 12 -16
12 -17 -2 -6 -9 7 -19 10 -23 6 -4 -4 -4 1 0 12 7 18 6 18 -9 6 -9 -7 -15 -17
-12 -21 3 -5 -6 -3 -19 3 -13 7 -22 16 -19 22 2 5 -3 1 -11 -9 -15 -18 -16
-18 -16 -2 0 9 -5 14 -10 11 -6 -4 -8 -10 -5 -15 3 -5 0 -12 -6 -16 -8 -4 -9
-3 -5 4 4 7 2 12 -4 12 -6 0 -8 5 -4 12 4 7 -8 1 -27 -12 -23 -16 -29 -18 -20
-6 13 16 12 17 -15 10 -16 -3 -31 -7 -34 -6 -23 0 -30 3 -25 12 3 6 -1 7 -9 4
-9 -3 -13 -11 -9 -18 4 -6 -2 -4 -12 4 -17 14 -18 13 -12 -5 6 -17 5 -17 -11
3 -12 15 -24 21 -35 16 -14 -5 -15 -9 -5 -23 7 -9 0 -5 -15 9 -23 20 -27 21
-21 6 5 -14 4 -17 -5 -12 -6 4 -20 2 -29 -6 -15 -12 -16 -11 -3 5 13 17 12 18
-15 11 -16 -4 -36 -12 -44 -18 -8 -5 -12 -6 -8 -2 10 12 -22 35 -39 29 -7 -3
-13 -11 -13 -19 0 -17 -16 -18 -26 -2 -5 7 -3 8 6 3 9 -5 11 -4 6 4 -6 9 -14
8 -33 -4 -14 -10 -22 -12 -19 -6 4 6 4 11 -1 12 -51 5 -61 4 -53 -7 7 -7 5
-11 -5 -11 -8 0 -15 5 -15 10 0 5 -9 7 -19 4 -11 -3 -30 2 -42 11 -21 14 -22
14 -16 -1 10 -26 -10 -30 -27 -5 -13 18 -16 19 -16 6 0 -9 -5 -20 -10 -23 -6
-4 -10 -3 -9 2 3 20 -2 34 -11 28 -6 -4 -8 -11 -5 -16 3 -5 -1 -6 -9 -3 -9 3
-13 11 -9 17 4 6 -9 0 -28 -13 -19 -13 -28 -17 -21 -8 11 14 9 16 -17 14 -16
0 -27 -4 -24 -9 2 -4 10 -4 16 -1 7 4 9 3 5 -1 -12 -12 -58 -15 -58 -4 0 6 4
8 8 5 5 -3 9 1 9 9 0 11 -4 12 -14 4 -7 -6 -13 -8 -13 -4 0 5 -9 0 -20 -10
-16 -15 -23 -16 -33 -6 -9 10 -8 11 8 6 15 -5 17 -4 6 3 -8 6 -21 8 -29 4 -11
-4 -13 -1 -8 9 4 8 1 6 -7 -3 -16 -20 -28 -23 -24 -7 1 6 -4 13 -11 15 -7 1
-8 0 -2 -3 5 -2 7 -9 4 -15 -3 -5 -15 -2 -27 9 -11 10 -17 12 -13 6 5 -9 0
-13 -16 -13 -13 0 -30 -6 -37 -12 -8 -7 -11 -8 -8 -2 9 15 -40 37 -49 22 -4
-6 -3 -8 4 -4 6 3 13 2 16 -3 8 -13 -19 -8 -37 7 -15 13 -51 6 -42 -8 3 -5 0
-12 -6 -16 -8 -4 -9 -3 -5 4 4 7 2 12 -4 12 -6 0 -9 3 -7 8 3 4 -5 7 -18 7
-13 0 -21 -3 -18 -7 2 -5 -1 -8 -7 -8 -6 0 -8 -5 -4 -12 5 -7 3 -8 -5 -4 -7 5
-10 14 -7 22 4 11 0 11 -19 -2 -21 -14 -26 -14 -30 -2 -6 14 -35 21 -35 8 0
-3 -9 -6 -21 -7 -15 -1 -19 2 -15 15 5 13 3 13 -9 -2 -13 -18 -15 -18 -15 -3
0 16 -2 16 -29 2 -28 -14 -30 -14 -51 13 -15 19 -18 20 -11 5 11 -22 0 -26
-26 -10 -6 4 -15 2 -19 -4 -5 -9 -11 -7 -21 6 -7 11 -13 13 -13 7 0 -7 -5 -12
-11 -12 -5 0 -8 3 -5 8 2 4 -22 8 -55 8 -32 0 -53 -4 -46 -8 8 -5 7 -8 -5 -8
-10 0 -18 6 -18 13 0 8 -4 7 -10 -3 -8 -12 -10 -12 -11 5 0 19 -1 19 -8 1 -7
-18 -8 -18 -14 -3 -7 19 -27 23 -27 6 0 -5 5 -7 12 -3 7 5 8 3 4 -5 -6 -9 -12
-9 -25 3 -14 13 -20 13 -30 3 -10 -9 -11 -8 -5 6 5 15 3 16 -20 7 -14 -5 -26
-6 -26 -1 0 11 -19 9 -39 -3 -10 -7 -12 -5 -6 4 6 9 -2 11 -34 6 -30 -4 -40
-2 -35 6 5 7 3 8 -7 2 -16 -10 -69 -12 -63 -3 2 3 -8 5 -21 3 -14 -1 -25 3
-25 9 0 7 -5 5 -10 -3 -5 -8 -10 -10 -10 -4 0 6 -23 12 -52 13 -68 3 -107 8
-137 17 -19 6 -22 4 -16 -7 8 -12 6 -12 -8 0 -9 7 -14 18 -10 25 3 6 -3 3 -14
-7 -16 -14 -23 -15 -29 -6 -5 8 -3 10 7 4 8 -5 10 -4 6 0 -10 11 -39 16 -32 5
3 -4 -1 -10 -9 -13 -11 -4 -13 1 -11 21 l4 27 -13 -29 c-12 -27 -13 -28 -19
-6 -5 18 -9 20 -26 11 -26 -14 -34 -14 -24 2 4 6 -6 3 -22 -7 -28 -18 -29 -18
-15 -1 14 17 13 18 -2 12 -9 -3 -19 -1 -22 6 -3 8 -5 7 -6 -3 0 -10 -6 -6 -15
10 -14 25 -14 25 -15 3 0 -13 -5 -23 -11 -23 -5 0 -8 4 -5 8 2 4 1 14 -4 22
-7 11 -11 11 -23 1 -12 -9 -16 -9 -19 1 -4 10 -10 10 -34 0 -23 -11 -26 -11
-16 -1 6 7 12 18 12 24 0 6 -3 7 -8 0 -9 -13 -56 -39 -49 -28 3 5 2 15 -3 23
-8 13 -11 13 -22 1 -11 -11 -11 -13 1 -6 10 5 12 4 7 -4 -4 -6 -12 -9 -17 -5
-5 3 -7 10 -4 15 9 13 -9 11 -24 -3 -11 -11 -13 -10 -9 2 4 10 -1 15 -17 15
-13 0 -21 -4 -18 -9 3 -4 -5 -5 -17 -1 -15 5 -26 2 -32 -6 -7 -11 -8 -9 -4 5
5 13 2 17 -9 12 -8 -3 -15 -1 -15 3 0 15 -31 21 -50 11 -15 -8 -21 -6 -29 9
-6 10 -8 21 -6 25 3 3 -1 2 -7 -4 -15 -13 -31 -13 -23 0 4 6 -1 7 -11 3 -15
-5 -15 -7 0 -15 9 -5 22 -6 29 -2 9 5 9 4 1 -5 -17 -19 -58 4 -49 27 5 13 3
14 -6 5 -6 -6 -18 -9 -27 -6 -10 4 -13 2 -8 -5 4 -7 3 -12 -3 -12 -5 0 -11 4
-13 9 -1 5 -10 11 -18 13 -8 2 -22 12 -31 23 -16 19 -18 19 -24 3 -4 -10 -11
-15 -16 -12 -5 3 -7 9 -5 13 3 4 -2 8 -10 8 -9 0 -13 -6 -9 -16 3 -10 -1 -9
-11 4 -15 20 -44 22 -55 3 -4 -6 -10 -1 -14 11 -5 17 -13 21 -40 19 -23 -1
-39 4 -52 18 -10 11 -13 13 -8 5 8 -12 3 -11 -19 3 -16 10 -26 14 -23 9 3 -5
-5 -9 -18 -9 -13 0 -21 4 -19 8 3 5 10 6 15 3 5 -3 6 1 2 10 -3 10 -8 13 -12
6 -4 -6 -12 -6 -21 -1 -9 5 -19 5 -26 -1 -8 -7 -14 -6 -19 1 -3 5 -15 10 -26
10 -14 0 -18 4 -13 13 5 8 2 8 -9 -2 -14 -11 -17 -11 -18 0 -1 8 -1 18 0 22 1
5 -3 6 -9 2 -6 -3 -8 -12 -4 -18 3 -7 -1 -4 -9 6 -15 18 -15 18 -20 0 -4 -15
-5 -15 -6 -2 0 9 -8 19 -15 22 -11 4 -13 1 -9 -11 3 -9 -3 -6 -13 8 -10 14
-18 29 -16 34 2 5 -3 4 -10 -2 -8 -6 -30 -10 -50 -9 -28 2 -34 5 -26 15 8 9 7
11 -6 6 -9 -3 -24 0 -33 7 -9 8 -14 9 -10 2 12 -19 -22 -8 -38 13 -15 19 -15
19 -9 -1 5 -19 5 -19 -10 -1 -8 10 -21 16 -29 13 -8 -3 -27 3 -42 13 -15 10
-33 16 -40 14 -6 -3 -18 3 -26 12 -9 12 -10 15 -1 10 6 -4 12 -2 12 3 0 14
-13 14 -27 0 -8 -8 -20 -2 -42 20 -18 17 -35 31 -39 31 -4 0 2 -7 12 -15 11
-8 17 -17 15 -20 -3 -3 -15 4 -26 14 -16 15 -23 17 -33 8 -10 -9 -11 -9 -6 1
4 7 1 12 -8 12 -8 0 -20 8 -25 18 -6 10 -11 12 -11 4 0 -10 -5 -10 -20 -2 -11
6 -26 8 -32 4 -7 -5 -9 -2 -5 8 4 12 0 15 -19 13 -13 -1 -29 4 -35 12 -10 11
-8 12 7 7 10 -4 16 -4 12 0 -3 4 -21 10 -40 12 -18 3 -41 14 -50 25 -9 11 -19
20 -22 19 -20 -1 -27 1 -22 8 2 4 -5 9 -16 9 -11 1 -26 10 -34 20 -7 10 -14
14 -14 9 0 -5 -8 -2 -17 5 -14 12 -16 12 -9 -1 4 -9 2 -8 -7 2 -8 10 -17 15
-20 11 -4 -3 -7 -1 -7 6 0 7 -4 10 -9 7 -4 -3 -21 5 -37 19 -15 13 -31 22 -35
19 -10 -6 -51 17 -62 34 -4 6 -15 12 -23 12 -9 0 -12 -5 -8 -12 4 -7 3 -8 -4
-4 -6 4 -9 13 -5 22 6 16 -17 16 -29 -1 -4 -5 -8 -1 -8 11 0 28 -10 36 -27 23
-10 -9 -13 -6 -14 12 0 22 -1 23 -9 4 -7 -16 -9 -16 -9 -4 -1 18 -27 33 -42
24 -5 -4 -6 2 -2 11 5 13 2 16 -8 12 -16 -6 -62 26 -51 36 3 4 -2 4 -12 0 -13
-5 -17 -4 -13 3 5 7 -1 9 -15 6 -19 -4 -20 -3 -8 6 12 9 11 11 -8 11 -24 0
-55 23 -47 34 3 3 2 4 -2 1 -3 -3 -13 1 -21 8 -13 9 -14 9 -8 0 12 -21 -1 -15
-29 12 -14 14 -25 23 -25 19 0 -5 -6 1 -14 11 -8 11 -12 24 -9 29 4 5 1 6 -5
2 -6 -3 -14 -1 -17 5 -4 5 -14 8 -23 4 -9 -3 -13 -3 -9 1 9 10 -51 66 -63 59
-6 -3 -10 1 -10 10 0 9 -4 13 -10 10 -5 -3 -10 -1 -10 5 0 6 -4 8 -10 5 -5 -3
-10 -2 -10 4 0 5 6 11 13 14 6 3 2 4 -10 4 -12 -1 -19 -5 -16 -11 4 -5 1 -6
-6 -2 -7 5 -10 14 -8 20 3 7 0 13 -7 13 -7 0 -26 9 -42 20 -16 11 -41 28 -56
37 -16 9 -28 23 -28 32 0 8 -4 12 -10 9 -5 -3 -10 0 -10 8 0 8 -7 17 -15 21
-12 4 -15 -6 -15 -63z m366 -222 c19 -22 19 -22 -3 -8 -13 8 -23 17 -23 21 0
12 6 9 26 -13z m545 -326 c13 -16 12 -17 -3 -4 -17 13 -22 21 -14 21 2 0 10
-8 17 -17z m15134 -12 c3 -5 1 -12 -5 -16 -5 -3 -10 1 -10 9 0 18 6 21 15 7z
m994 -12 c-16 -10 -23 -4 -14 10 3 6 11 8 17 5 6 -4 5 -9 -3 -15z m4917 9 c4
-7 3 -8 -4 -4 -7 4 -12 2 -12 -5 0 -7 -3 -10 -6 -6 -6 5 3 27 11 27 2 0 7 -5
11 -12z m-4501 -18 c3 -6 -1 -7 -9 -4 -18 7 -21 14 -7 14 6 0 13 -4 16 -10z
m4395 -5 c-7 -9 -15 -13 -19 -10 -3 3 1 10 9 15 21 14 24 12 10 -5z m-6583
-10 c0 -8 -4 -12 -9 -9 -5 3 -6 10 -3 15 9 13 12 11 12 -6z m3343 10 c0 -7
-30 -13 -34 -7 -3 4 4 9 15 9 10 1 19 0 19 -2z m360 -10 c-7 -8 -17 -15 -23
-15 -6 0 -2 7 9 15 25 19 30 19 14 0z m2800 5 c0 -5 -5 -10 -11 -10 -5 0 -7 5
-4 10 3 6 8 10 11 10 2 0 4 -4 4 -10z m-2150 -6 c0 -8 -19 -13 -24 -6 -3 5 1
9 9 9 8 0 15 -2 15 -3z m1794 -2 c3 -5 -1 -9 -9 -9 -8 0 -12 4 -9 9 3 4 7 8 9
8 2 0 6 -4 9 -8z m30 -8 c3 -8 2 -12 -4 -9 -6 3 -10 10 -10 16 0 14 7 11 14
-7z m49 1 c-3 -9 -8 -14 -10 -11 -3 3 -2 9 2 15 9 16 15 13 8 -4z m90 0 c-3
-9 -8 -14 -10 -11 -3 3 -2 9 2 15 9 16 15 13 8 -4z m-6859 -11 c3 -8 2 -12 -4
-9 -6 3 -10 10 -10 16 0 14 7 11 14 -7z m6346 -1 c0 -3 -7 -3 -15 1 -8 3 -15
0 -15 -6 0 -6 -3 -9 -6 -5 -11 10 6 26 21 20 8 -3 15 -7 15 -10z m-426 -5 c-3
-4 -12 -4 -21 -1 -12 5 -14 3 -8 -7 5 -9 4 -11 -4 -6 -16 10 -4 25 19 23 10
-1 17 -5 14 -9z m91 2 c3 -6 -1 -7 -9 -4 -18 7 -21 14 -7 14 6 0 13 -4 16 -10z
m-6505 -20 c0 -5 -5 -10 -11 -10 -5 0 -7 5 -4 10 3 6 8 10 11 10 2 0 4 -4 4
-10z m-1045 -58 c-3 -3 -11 0 -18 7 -9 10 -8 11 6 5 10 -3 15 -9 12 -12z
m-12295 -28 c0 -8 -19 -13 -24 -6 -3 5 1 9 9 9 8 0 15 -2 15 -3z m11784 -2 c3
-5 -1 -9 -9 -9 -8 0 -15 4 -15 9 0 4 4 8 9 8 6 0 12 -4 15 -8z m-884 -86 c0
-2 -8 -10 -17 -17 -16 -13 -17 -12 -4 4 13 16 21 21 21 13z m-520 -42 c0 -8
-19 -13 -24 -6 -3 5 1 9 9 9 8 0 15 -2 15 -3z m-425 -46 c5 4 5 1 1 -6 -6 -10
-11 -10 -22 -1 -8 6 -14 14 -14 16 0 3 6 0 13 -6 8 -6 18 -7 22 -3z m-9020
-28 c3 -5 1 -10 -4 -10 -6 0 -11 5 -11 10 0 6 2 10 4 10 3 0 8 -4 11 -10z
m8545 -9 c0 -6 -4 -12 -8 -15 -5 -3 -9 1 -9 9 0 8 4 15 9 15 4 0 8 -4 8 -9z
m-8993 -63 c-3 -8 -6 -5 -6 6 -1 11 2 17 5 13 3 -3 4 -12 1 -19z m8342 -9
c-16 -10 -23 -4 -14 10 3 6 11 8 17 5 6 -4 5 -9 -3 -15z m-7429 -59 c0 -5 -5
-10 -11 -10 -5 0 -7 5 -4 10 3 6 8 10 11 10 2 0 4 -4 4 -10z m14288 -15 c-3
-3 -9 2 -12 12 -6 14 -5 15 5 6 7 -7 10 -15 7 -18z m-14204 -1 c3 -8 2 -12 -4
-9 -6 3 -10 10 -10 16 0 14 7 11 14 -7z m6721 6 c3 -6 -1 -7 -9 -4 -18 7 -21
14 -7 14 6 0 13 -4 16 -10z m-121 -12 c-3 -4 -9 -8 -15 -8 -5 0 -9 4 -9 8 0 5
7 9 15 9 8 0 12 -4 9 -9z m6276 7 c0 -7 -30 -13 -34 -7 -3 4 4 9 15 9 10 1 19
0 19 -2z m100 -5 c0 -5 -2 -10 -4 -10 -3 0 -8 5 -11 10 -3 6 -1 10 4 10 6 0
11 -4 11 -10z m-780 -4 c0 -2 -8 -10 -17 -17 -16 -13 -17 -12 -4 4 13 16 21
21 21 13z m2980 0 c0 -3 -4 -8 -10 -11 -5 -3 -10 -1 -10 4 0 6 5 11 10 11 6 0
10 -2 10 -4z m-8807 -21 c-3 -9 -8 -14 -10 -11 -3 3 -2 9 2 15 9 16 15 13 8
-4z m5887 9 c0 -8 -19 -13 -24 -6 -3 5 1 9 9 9 8 0 15 -2 15 -3z m3874 -2 c3
-5 -1 -9 -9 -9 -8 0 -12 4 -9 9 3 4 7 8 9 8 2 0 6 -4 9 -8z m-259 -12 c3 -5 1
-10 -4 -10 -6 0 -11 5 -11 10 0 6 2 10 4 10 3 0 8 -4 11 -10z m-4464 -23 c-10
-9 -11 -8 -5 6 3 10 9 15 12 12 3 -3 0 -11 -7 -18z m109 9 c0 -3 -4 -8 -10
-11 -5 -3 -10 -1 -10 4 0 6 5 11 10 11 6 0 10 -2 10 -4z m4977 -18 c-3 -8 -6
-5 -6 6 -1 11 2 17 5 13 3 -3 4 -12 1 -19z m-17157 2 c0 -5 -2 -10 -4 -10 -3
0 -8 5 -11 10 -3 6 -1 10 4 10 6 0 11 -4 11 -10z m905 0 c3 -6 -1 -7 -9 -4
-18 7 -21 14 -7 14 6 0 13 -4 16 -10z m10889 2 c3 -5 -1 -9 -9 -9 -8 0 -12 4
-9 9 3 4 7 8 9 8 2 0 6 -4 9 -8z m6020 -24 c-3 -4 -11 -5 -19 -1 -21 7 -19 12
4 10 11 0 18 -5 15 -9z m377 -25 c13 -16 12 -17 -3 -4 -17 13 -22 21 -14 21 2
0 10 -8 17 -17z m-16794 -38 c0 -8 -4 -12 -9 -9 -5 3 -6 10 -3 15 9 13 12 11
12 -6z m17543 11 c0 -3 -4 -8 -10 -11 -5 -3 -10 -1 -10 4 0 6 5 11 10 11 6 0
10 -2 10 -4z m34 -4 c3 -5 -1 -9 -9 -9 -8 0 -12 4 -9 9 3 4 7 8 9 8 2 0 6 -4
9 -8z m-13707 -44 c-3 -8 -6 -5 -6 6 -1 11 2 17 5 13 3 -3 4 -12 1 -19z
m14590 0 c-3 -8 -6 -5 -6 6 -1 11 2 17 5 13 3 -3 4 -12 1 -19z m60 0 c-3 -8
-6 -5 -6 6 -1 11 2 17 5 13 3 -3 4 -12 1 -19z m436 7 c-3 -9 -8 -14 -10 -11
-3 3 -2 9 2 15 9 16 15 13 8 -4z m508 -2 c13 -16 12 -17 -3 -4 -17 13 -22 21
-14 21 2 0 10 -8 17 -17z m274 5 c5 4 5 1 1 -6 -6 -10 -11 -10 -22 -1 -8 6
-14 14 -14 16 0 3 6 0 13 -6 8 -6 18 -7 22 -3z m118 4 c4 9 6 9 6 1 2 -20 -16
-24 -30 -5 -13 15 -12 16 3 4 13 -10 17 -10 21 0z m-20919 -18 c3 -8 2 -12 -4
-9 -6 3 -10 10 -10 16 0 14 7 11 14 -7z m9694 -9 c-3 -3 -9 2 -12 12 -6 14 -5
15 5 6 7 -7 10 -15 7 -18z m10076 9 c3 -8 2 -12 -4 -9 -6 3 -10 10 -10 16 0
14 7 11 14 -7z m216 12 c0 -3 -4 -8 -10 -11 -5 -3 -10 -1 -10 4 0 6 5 11 10
11 6 0 10 -2 10 -4z m-19945 -24 c-3 -3 -11 0 -18 7 -9 10 -8 11 6 5 10 -3 15
-9 12 -12z m9225 -22 c0 -5 -5 -10 -11 -10 -5 0 -7 5 -4 10 3 6 8 10 11 10 2
0 4 -4 4 -10z m-6876 -36 c5 -14 4 -15 -9 -4 -17 14 -19 20 -6 20 5 0 12 -7
15 -16z m766 0 c0 -8 -5 -12 -10 -9 -6 4 -8 11 -5 16 9 14 15 11 15 -7z m190
6 c0 -5 -2 -10 -4 -10 -3 0 -8 5 -11 10 -3 6 -1 10 4 10 6 0 11 -4 11 -10z
m-2700 -110 c0 -5 -4 -10 -10 -10 -5 0 -10 5 -10 10 0 6 5 10 10 10 6 0 10 -4
10 -10z m6937 -12 c-3 -8 -6 -5 -6 6 -1 11 2 17 5 13 3 -3 4 -12 1 -19z
m-6400 -100 c-3 -8 -6 -5 -6 6 -1 11 2 17 5 13 3 -3 4 -12 1 -19z m4658 -46
c-3 -3 -11 0 -18 7 -9 10 -8 11 6 5 10 -3 15 -9 12 -12z m-550 -22 c-3 -5 -12
-10 -18 -10 -7 0 -6 4 3 10 19 12 23 12 15 0z m-851 -51 c-3 -5 -10 -7 -15 -3
-5 3 -7 10 -3 15 3 5 10 7 15 3 5 -3 7 -10 3 -15z m53 6 c0 -8 -4 -12 -9 -9
-5 3 -6 10 -3 15 9 13 12 11 12 -6z m90 -7 c-3 -8 -6 -5 -6 6 -1 11 2 17 5 13
3 -3 4 -12 1 -19z m-2017 -2 c0 -2 -7 -7 -16 -10 -8 -3 -12 -2 -9 4 6 10 25
14 25 6z m490 -16 c8 -5 11 -10 5 -10 -5 0 -17 5 -25 10 -8 5 -10 10 -5 10 6
0 17 -5 25 -10z m164 2 c3 -5 -1 -9 -9 -9 -8 0 -12 4 -9 9 3 4 7 8 9 8 2 0 6
-4 9 -8z"/>
<path d="M5147 11289 c7 -7 15 -10 18 -7 3 3 -2 9 -12 12 -14 6 -15 5 -6 -5z"/>
<path d="M5695 10910 c3 -5 8 -10 11 -10 2 0 4 5 4 10 0 6 -5 10 -11 10 -5 0
-7 -4 -4 -10z"/>
<path d="M27135 10749 c-4 -6 -13 -8 -21 -5 -8 3 -11 0 -7 -10 5 -13 8 -13 24
2 19 17 23 24 15 24 -3 0 -8 -5 -11 -11z"/>
<path d="M27415 10751 c-3 -5 -1 -12 5 -16 5 -3 10 1 10 9 0 18 -6 21 -15 7z"/>
<path d="M20760 10730 c-9 -6 -10 -10 -3 -10 6 0 15 5 18 10 8 12 4 12 -15 0z"/>
<path d="M21325 10731 c-3 -5 -2 -12 3 -15 5 -3 9 1 9 9 0 17 -3 19 -12 6z"/>
<path d="M21850 10730 c0 -5 5 -10 11 -10 5 0 7 5 4 10 -3 6 -8 10 -11 10 -2
0 -4 -4 -4 -10z"/>
<path d="M22036 10727 c3 -10 9 -15 12 -12 3 3 0 11 -7 18 -10 9 -11 8 -5 -6z"/>
<path d="M22370 10731 c0 -6 4 -13 10 -16 6 -3 7 1 4 9 -7 18 -14 21 -14 7z"/>
<path d="M21290 10720 c0 -5 5 -10 11 -10 5 0 7 5 4 10 -3 6 -8 10 -11 10 -2
0 -4 -4 -4 -10z"/>
<path d="M23556 10717 c3 -10 9 -15 12 -12 3 3 0 11 -7 18 -10 9 -11 8 -5 -6z"/>
<path d="M27496 10717 c3 -10 9 -15 12 -12 3 3 0 11 -7 18 -10 9 -11 8 -5 -6z"/>
<path d="M20240 10710 c-9 -6 -10 -10 -3 -10 6 0 15 5 18 10 8 12 4 12 -15 0z"/>
<path d="M20586 10708 c3 -5 10 -6 15 -3 13 9 11 12 -6 12 -8 0 -12 -4 -9 -9z"/>
<path d="M22827 10709 c7 -7 15 -10 18 -7 3 3 -2 9 -12 12 -14 6 -15 5 -6 -5z"/>
<path d="M20090 10706 c0 -2 7 -7 16 -10 8 -3 12 -2 9 4 -6 10 -25 14 -25 6z"/>
<path d="M23996 10698 c3 -5 10 -6 15 -3 13 9 11 12 -6 12 -8 0 -12 -4 -9 -9z"/>
<path d="M24266 10698 c3 -5 10 -6 15 -3 13 9 11 12 -6 12 -8 0 -12 -4 -9 -9z"/>
<path d="M24746 10688 c3 -4 9 -8 15 -8 5 0 9 4 9 8 0 5 -7 9 -15 9 -8 0 -12
-4 -9 -9z"/>
<path d="M24811 10693 c-1 -18 13 -23 29 -11 12 8 12 9 -2 5 -9 -3 -19 -1 -22
6 -3 9 -5 9 -5 0z"/>
<path d="M25100 10691 c0 -6 4 -13 10 -16 6 -3 7 1 4 9 -7 18 -14 21 -14 7z"/>
<path d="M25230 10696 c0 -2 8 -10 18 -17 15 -13 16 -12 3 4 -13 16 -21 21
-21 13z"/>
<path d="M25484 10692 c3 -5 0 -13 -6 -15 -9 -4 -10 -6 -1 -6 17 -1 25 16 12
25 -7 4 -9 3 -5 -4z"/>
<path d="M19576 10682 c-3 -5 1 -9 9 -9 8 0 12 4 9 9 -3 4 -7 8 -9 8 -2 0 -6
-4 -9 -8z"/>
<path d="M27515 10680 c3 -5 8 -10 11 -10 2 0 4 5 4 10 0 6 -5 10 -11 10 -5 0
-7 -4 -4 -10z"/>
<path d="M18585 10620 c-3 -6 1 -7 9 -4 18 7 21 14 7 14 -6 0 -13 -4 -16 -10z"/>
<path d="M27615 10620 c3 -5 8 -10 11 -10 2 0 4 5 4 10 0 6 -5 10 -11 10 -5 0
-7 -4 -4 -10z"/>
<path d="M17807 10573 c-4 -3 -7 -11 -7 -17 0 -6 5 -5 12 2 6 6 9 14 7 17 -3
3 -9 2 -12 -2z"/>
<path d="M17836 10572 c-3 -5 1 -9 9 -9 8 0 12 4 9 9 -3 4 -7 8 -9 8 -2 0 -6
-4 -9 -8z"/>
<path d="M17225 10520 c-3 -5 -13 -7 -23 -4 -14 5 -14 4 -2 -4 9 -7 19 -7 26
-2 6 6 15 6 19 2 5 -4 5 -1 1 6 -9 15 -13 15 -21 2z"/>
<path d="M6530 10491 c0 -5 7 -12 16 -15 14 -5 15 -4 4 9 -14 17 -20 19 -20 6z"/>
<path d="M16786 10478 c3 -5 10 -6 15 -3 13 9 11 12 -6 12 -8 0 -12 -4 -9 -9z"/>
<path d="M6595 10460 c-3 -5 -1 -10 4 -10 6 0 11 5 11 10 0 6 -2 10 -4 10 -3
0 -8 -4 -11 -10z"/>
<path d="M6651 10444 c0 -11 3 -14 6 -6 3 7 2 16 -1 19 -3 4 -6 -2 -5 -13z"/>
<path d="M6751 10404 c0 -11 3 -14 6 -6 3 7 2 16 -1 19 -3 4 -6 -2 -5 -13z"/>
<path d="M15927 10409 c7 -7 15 -10 18 -7 3 3 -2 9 -12 12 -14 6 -15 5 -6 -5z"/>
<path d="M15390 10351 c0 -7 -5 -9 -12 -5 -7 5 -8 3 -3 -5 5 -9 10 -10 18 -2
6 6 8 14 4 18 -4 3 -7 1 -7 -6z"/>
<path d="M7246 10248 c3 -5 10 -6 15 -3 13 9 11 12 -6 12 -8 0 -12 -4 -9 -9z"/>
<path d="M13986 10198 c3 -5 10 -6 15 -3 13 9 11 12 -6 12 -8 0 -12 -4 -9 -9z"/>
<path d="M20965 10190 c-4 -6 -11 -7 -17 -4 -7 4 -8 2 -4 -4 7 -12 36 -5 36 9
0 12 -7 11 -15 -1z"/>
<path d="M20711 10174 c0 -11 3 -14 6 -6 3 7 2 16 -1 19 -3 4 -6 -2 -5 -13z"/>
<path d="M20796 10178 c3 -4 11 -5 19 -1 21 7 19 12 -4 10 -11 0 -18 -5 -15
-9z"/>
<path d="M21143 10175 c0 -8 4 -12 9 -9 5 3 6 10 3 15 -9 13 -12 11 -12 -6z"/>
<path d="M21531 10174 c0 -11 3 -14 6 -6 3 7 2 16 -1 19 -3 4 -6 -2 -5 -13z"/>
<path d="M21562 10181 c-11 -7 -11 -9 0 -14 9 -3 15 1 15 9 0 8 -1 14 -1 14
-1 0 -7 -4 -14 -9z"/>
<path d="M21816 10181 c-4 -5 -2 -12 3 -15 5 -4 12 -2 15 3 4 5 2 12 -3 15 -5
4 -12 2 -15 -3z"/>
<path d="M21976 10177 c3 -10 9 -15 12 -12 3 3 0 11 -7 18 -10 9 -11 8 -5 -6z"/>
<path d="M28290 10171 c0 -6 4 -13 10 -16 6 -3 7 1 4 9 -7 18 -14 21 -14 7z"/>
<path d="M13231 10136 c-7 -8 -22 -13 -33 -11 -11 3 -18 1 -14 -2 14 -14 35
-10 52 8 9 10 15 19 12 19 -3 0 -11 -6 -17 -14z"/>
<path d="M23760 10130 c-9 -6 -10 -10 -3 -10 6 0 15 5 18 10 8 12 4 12 -15 0z"/>
<path d="M23976 10118 c3 -5 10 -6 15 -3 13 9 11 12 -6 12 -8 0 -12 -4 -9 -9z"/>
<path d="M24055 10109 c-3 -4 2 -6 10 -5 21 3 28 13 10 13 -9 0 -18 -4 -20 -8z"/>
<path d="M18150 10089 c0 -5 5 -7 10 -4 6 3 10 8 10 11 0 2 -4 4 -10 4 -5 0
-10 -5 -10 -11z"/>
<path d="M24835 10080 c-3 -5 -1 -10 4 -10 6 0 11 5 11 10 0 6 -2 10 -4 10 -3
0 -8 -4 -11 -10z"/>
<path d="M28455 10051 c-3 -5 -2 -12 3 -15 5 -3 9 1 9 9 0 17 -3 19 -12 6z"/>
<path d="M17410 10030 c0 -5 5 -10 11 -10 5 0 7 5 4 10 -3 6 -8 10 -11 10 -2
0 -4 -4 -4 -10z"/>
<path d="M25846 10028 c3 -5 10 -6 15 -3 13 9 11 12 -6 12 -8 0 -12 -4 -9 -9z"/>
<path d="M26075 10030 c-3 -5 -1 -10 4 -10 6 0 11 5 11 10 0 6 -2 10 -4 10 -3
0 -8 -4 -11 -10z"/>
<path d="M26186 10013 c-6 -14 -5 -15 5 -6 7 7 10 15 7 18 -3 3 -9 -2 -12 -12z"/>
<path d="M8635 10010 c-3 -5 -1 -10 4 -10 6 0 11 5 11 10 0 6 -2 10 -4 10 -3
0 -8 -4 -11 -10z"/>
<path d="M11631 10007 c-8 -10 -7 -14 4 -14 8 0 15 6 15 14 0 7 -2 13 -4 13
-2 0 -9 -6 -15 -13z"/>
<path d="M26574 10009 c-4 -7 -3 -9 4 -5 5 3 13 0 15 -6 4 -9 6 -10 6 -1 1 17
-16 25 -25 12z"/>
<path d="M16955 10000 c-3 -5 -1 -10 4 -10 6 0 11 5 11 10 0 6 -2 10 -4 10 -3
0 -8 -4 -11 -10z"/>
<path d="M26794 9999 c-3 -6 -3 -13 0 -16 3 -4 6 -1 6 7 0 10 3 10 15 0 9 -7
15 -8 15 -2 0 14 -28 23 -36 11z"/>
<path d="M16920 9990 c-9 -6 -10 -10 -3 -10 6 0 15 5 18 10 8 12 4 12 -15 0z"/>
<path d="M27176 9992 c-3 -4 4 -9 15 -9 23 -2 25 3 4 10 -8 4 -16 3 -19 -1z"/>
<path d="M11075 9979 c-4 -6 -5 -12 -2 -15 2 -3 7 2 10 11 7 17 1 20 -8 4z"/>
<path d="M9190 9959 c0 -5 5 -7 10 -4 6 3 10 8 10 11 0 2 -4 4 -10 4 -5 0 -10
-5 -10 -11z"/>
<path d="M10986 9958 c3 -5 10 -6 15 -3 13 9 11 12 -6 12 -8 0 -12 -4 -9 -9z"/>
<path d="M10735 9950 c3 -5 8 -10 11 -10 2 0 4 5 4 10 0 6 -5 10 -11 10 -5 0
-7 -4 -4 -10z"/>
<path d="M16230 9945 c0 -2 6 -8 13 -14 10 -8 14 -7 14 2 0 8 -6 14 -14 14 -7
0 -13 -1 -13 -2z"/>
<path d="M7390 9921 c0 -5 7 -12 16 -15 14 -5 15 -4 4 9 -14 17 -20 19 -20 6z"/>
<path d="M15794 9894 c-18 -14 -18 -15 4 -4 12 6 22 13 22 15 0 8 -5 6 -26
-11z"/>
<path d="M15276 9848 c3 -5 10 -6 15 -3 13 9 11 12 -6 12 -8 0 -12 -4 -9 -9z"/>
<path d="M14786 9818 c3 -5 10 -6 15 -3 13 9 11 12 -6 12 -8 0 -12 -4 -9 -9z"/>
<path d="M14820 9825 c0 -2 6 -8 13 -14 10 -8 14 -7 14 2 0 8 -6 14 -14 14 -7
0 -13 -1 -13 -2z"/>
<path d="M8130 9746 c0 -2 7 -7 16 -10 8 -3 12 -2 9 4 -6 10 -25 14 -25 6z"/>
<path d="M13327 9694 c6 -16 13 -17 33 -4 8 5 11 10 5 11 -5 0 -18 2 -27 4
-11 2 -15 -2 -11 -11z"/>
<path d="M13166 9687 c3 -10 9 -15 12 -12 3 3 0 11 -7 18 -10 9 -11 8 -5 -6z"/>
<path d="M13110 9686 c0 -2 8 -10 18 -17 15 -13 16 -12 3 4 -13 16 -21 21 -21
13z"/>
<path d="M8733 9655 c0 -8 4 -15 9 -15 4 0 8 4 8 9 0 6 -4 12 -8 15 -5 3 -9
-1 -9 -9z"/>
<path d="M9016 9608 c3 -5 10 -6 15 -3 13 9 11 12 -6 12 -8 0 -12 -4 -9 -9z"/>
<path d="M11875 9600 c-3 -5 -1 -10 4 -10 6 0 11 5 11 10 0 6 -2 10 -4 10 -3
0 -8 -4 -11 -10z"/>
<path d="M11243 9575 c0 -8 4 -12 9 -9 5 3 6 10 3 15 -9 13 -12 11 -12 -6z"/>
<path d="M11410 9581 c0 -6 4 -13 10 -16 6 -3 7 1 4 9 -7 18 -14 21 -14 7z"/>
<path d="M10026 9565 c4 -8 11 -15 16 -15 6 0 5 6 -2 15 -7 8 -14 15 -16 15
-2 0 -1 -7 2 -15z"/>
<path d="M11350 9570 c0 -5 5 -10 11 -10 5 0 7 5 4 10 -3 6 -8 10 -11 10 -2 0
-4 -4 -4 -10z"/>
</g>
</svg>
