<?xml version="1.0" standalone="no"?>
<!DOCTYPE svg PUBLIC "-//W3C//DTD SVG 20010904//EN"
 "http://www.w3.org/TR/2001/REC-SVG-20010904/DTD/svg10.dtd">
<svg version="1.0" xmlns="http://www.w3.org/2000/svg"
 width="750.000000pt" height="750.000000pt" viewBox="0 0 750.000000 750.000000"
 preserveAspectRatio="xMidYMid meet">
<metadata>
Created by potrace 1.14, written by Peter Selinger 2001-2017
</metadata>
<g transform="translate(0.000000,750.000000) scale(0.100000,-0.100000)"
fill="#000000" stroke="none">
<path d="M3017 5582 c-31 -88 -46 -169 -33 -183 8 -9 8 -10 -1 -5 -10 5 -13
-9 -14 -56 -6 -281 52 -515 211 -851 39 -85 64 -126 72 -121 7 4 8 3 4 -4 -9
-15 62 -155 74 -147 5 3 8 0 5 -7 -7 -17 64 -150 76 -143 5 3 7 0 4 -7 -7 -17
84 -190 96 -183 5 3 6 -1 3 -9 -7 -20 14 -58 28 -50 7 4 8 2 4 -5 -4 -7 19
-70 52 -144 109 -239 171 -452 188 -642 5 -55 12 -84 23 -93 14 -11 14 -11 -1
-6 -13 4 -16 0 -15 -15 5 -65 56 26 73 129 3 19 8 37 10 39 2 2 -2 11 -9 19
-7 10 -8 13 -1 9 18 -11 23 35 20 193 -3 147 -19 243 -67 400 -48 160 -136
363 -152 353 -5 -3 -7 -1 -3 5 8 13 -11 65 -22 58 -5 -3 -8 5 -8 17 1 13 -4
21 -12 19 -8 -1 -11 2 -8 7 9 13 -12 63 -23 56 -5 -3 -13 0 -17 6 -4 8 -3 9 4
5 20 -12 14 2 -44 110 -33 62 -60 101 -66 98 -7 -4 -8 -2 -4 5 4 6 -13 48 -37
94 -25 45 -61 115 -82 154 -20 40 -40 71 -44 68 -4 -2 -7 6 -7 18 1 13 -4 21
-12 19 -8 -1 -11 2 -6 9 8 14 -46 130 -58 123 -4 -3 -5 1 -3 8 3 8 -8 47 -25
88 -52 125 -98 284 -116 399 -11 71 -22 108 -28 104 -6 -3 -6 -1 1 7 7 7 8 22
4 39 -5 14 -6 31 -4 38 2 6 0 14 -5 17 -4 3 -16 -16 -25 -42z m23 -12 c0 -5
-5 -10 -11 -10 -5 0 -7 5 -4 10 3 6 8 10 11 10 2 0 4 -4 4 -10z m-33 -82 c-3
-8 -6 -5 -6 6 -1 11 2 17 5 13 3 -3 4 -12 1 -19z m50 -60 c-3 -8 -6 -5 -6 6
-1 11 2 17 5 13 3 -3 4 -12 1 -19z m10 -60 c-3 -7 -5 -2 -5 12 0 14 2 19 5 13
2 -7 2 -19 0 -25z m-80 -25 c-3 -10 -5 -4 -5 12 0 17 2 24 5 18 2 -7 2 -21 0
-30z m0 -170 c-3 -10 -5 -4 -5 12 0 17 2 24 5 18 2 -7 2 -21 0 -30z m10 -85
c-3 -8 -6 -5 -6 6 -1 11 2 17 5 13 3 -3 4 -12 1 -19z m107 -384 c3 -8 2 -12
-4 -9 -6 3 -10 10 -10 16 0 14 7 11 14 -7z m404 -349 c-3 -3 -9 2 -12 12 -6
14 -5 15 5 6 7 -7 10 -15 7 -18z m349 -867 c-3 -8 -6 -5 -6 6 -1 11 2 17 5 13
3 -3 4 -12 1 -19z m10 -60 c-3 -8 -6 -5 -6 6 -1 11 2 17 5 13 3 -3 4 -12 1
-19z m10 -180 c-2 -24 -4 -7 -4 37 0 44 2 63 4 43 2 -21 2 -57 0 -80z m-100
-60 c-3 -8 -6 -5 -6 6 -1 11 2 17 5 13 3 -3 4 -12 1 -19z m10 -50 c-3 -8 -6
-5 -6 6 -1 11 2 17 5 13 3 -3 4 -12 1 -19z m10 -60 c-3 -8 -6 -5 -6 6 -1 11 2
17 5 13 3 -3 4 -12 1 -19z m10 -105 c-3 -10 -5 -4 -5 12 0 17 2 24 5 18 2 -7
2 -21 0 -30z"/>
<path d="M5162 5305 c-67 -38 -103 -66 -97 -75 3 -5 0 -12 -6 -16 -8 -4 -9 -3
-5 4 14 24 -10 11 -57 -29 -27 -24 -44 -46 -40 -52 3 -7 2 -9 -2 -4 -5 4 -28
-12 -52 -35 -45 -44 -60 -76 -20 -42 l22 19 -19 -22 c-10 -13 -22 -20 -27 -17
-4 2 -26 -20 -48 -49 -41 -54 -51 -74 -29 -61 7 4 8 3 4 -5 -4 -6 -11 -9 -16
-6 -5 3 -20 -14 -34 -38 -29 -49 -32 -62 -13 -51 7 4 9 3 4 -2 -5 -5 -14 -9
-20 -9 -7 0 -12 -10 -11 -22 0 -12 -4 -19 -9 -16 -6 4 -8 -1 -4 -11 4 -10 3
-15 -3 -11 -12 8 -33 -33 -26 -51 3 -8 2 -13 -3 -10 -12 8 -90 -177 -141 -334
-32 -98 -182 -574 -192 -609 -5 -18 -25 -74 -44 -124 -19 -50 -32 -98 -29
-106 3 -8 3 -12 -1 -8 -4 3 -41 -62 -83 -146 -92 -186 -86 -171 -71 -162 9 5
11 4 6 -4 -4 -6 -11 -9 -16 -6 -4 3 -18 -10 -29 -29 -24 -37 -27 -51 -9 -40 7
4 8 3 4 -5 -4 -6 -11 -9 -16 -6 -4 3 -20 -11 -34 -29 -30 -40 -34 -54 -8 -35
15 13 16 12 3 -4 -8 -9 -16 -15 -19 -12 -7 7 -52 -35 -52 -48 0 -5 8 -3 18 4
15 13 16 12 3 -4 -8 -9 -16 -15 -19 -12 -7 6 -32 -15 -32 -27 0 -5 5 -6 12 -2
7 4 8 3 4 -5 -4 -6 -11 -9 -16 -6 -12 8 -43 -40 -38 -59 2 -13 11 -12 56 9 35
16 51 29 46 36 -4 8 -3 9 5 5 15 -9 94 41 86 54 -3 5 0 12 6 16 8 4 9 3 5 -4
-12 -20 5 -13 45 19 21 17 38 35 36 42 -1 6 3 11 8 12 20 1 46 22 49 39 1 9 5
15 8 14 9 -4 58 43 58 55 0 5 -8 3 -17 -4 -15 -11 -14 -10 1 9 20 23 32 30 21
12 -3 -5 -2 -10 3 -10 6 0 13 7 16 16 9 22 8 26 -6 18 -7 -5 -8 -3 -4 5 5 7
11 10 14 7 7 -7 32 13 32 26 0 5 -5 6 -12 2 -7 -4 -8 -3 -4 5 4 6 11 9 16 6 5
-3 16 5 24 17 19 26 21 42 4 32 -7 -4 -8 -3 -4 5 4 6 11 9 16 6 12 -7 52 65
46 82 -3 8 -1 11 4 8 12 -8 73 113 66 132 -3 8 -2 12 3 9 18 -12 178 412 166
442 -2 7 -1 11 3 8 5 -3 33 75 62 172 97 324 184 562 266 724 46 92 50 103 34
93 -6 -3 -7 1 -3 10 4 13 8 14 14 4 6 -11 9 -10 14 3 4 10 3 22 -1 29 -4 7 -3
9 3 6 6 -4 25 15 42 41 33 51 38 68 19 56 -7 -4 -8 -3 -4 5 4 6 11 9 16 6 4
-3 20 11 34 29 28 38 33 51 14 40 -8 -4 -10 -3 -5 2 5 5 12 9 17 9 7 0 100 82
100 88 0 1 -11 4 -26 5 -14 1 -23 -2 -19 -8 3 -6 2 -10 -4 -10 -5 0 -11 4 -13
10 -1 5 -22 -2 -46 -15z m-142 -119 c0 -2 -8 -10 -17 -17 -16 -13 -17 -12 -4
4 13 16 21 21 21 13z m60 -76 c-6 -11 -13 -20 -16 -20 -2 0 0 9 6 20 6 11 13
20 16 20 2 0 0 -9 -6 -20z m-947 -1845 c-3 -9 -8 -14 -10 -11 -3 3 -2 9 2 15
9 16 15 13 8 -4z m-198 -355 c-3 -5 -12 -10 -18 -10 -7 0 -6 4 3 10 19 12 23
12 15 0z"/>
<path d="M830 4096 c0 -14 43 -75 50 -71 5 3 12 0 16 -6 4 -8 3 -9 -4 -5 -7 4
-12 3 -12 -2 0 -12 25 -33 32 -27 3 3 13 -5 24 -17 l19 -23 -22 19 c-42 35
-23 1 25 -47 51 -51 81 -65 41 -19 l-24 27 27 -24 c16 -14 26 -27 23 -29 -6
-7 25 -42 37 -42 5 0 6 6 2 13 -4 7 -3 9 2 4 5 -5 9 -12 9 -15 0 -13 16 -32
26 -32 6 0 7 6 3 13 -4 7 -3 9 2 4 5 -5 9 -14 9 -19 0 -6 6 -13 14 -16 9 -3
11 0 6 8 -5 9 -4 11 4 6 6 -4 9 -11 6 -16 -3 -4 10 -18 29 -29 37 -24 51 -27
40 -9 -4 7 -3 8 5 4 6 -4 9 -12 5 -17 -7 -12 193 -107 300 -143 122 -41 356
-98 382 -93 13 2 22 1 19 -2 -2 -4 21 -11 51 -17 30 -5 54 -6 54 -2 0 4 5 8
11 8 5 0 7 -5 3 -11 -5 -8 3 -10 24 -7 17 2 29 1 27 -3 -4 -6 18 -11 110 -24
52 -7 199 -31 321 -51 52 -9 104 -14 115 -11 10 3 17 2 15 -2 -4 -5 122 -32
154 -33 3 0 15 -4 28 -9 15 -6 22 -5 22 4 0 8 3 9 8 1 4 -6 62 -25 129 -42
138 -35 286 -88 385 -138 73 -37 83 -40 72 -22 -4 7 -3 8 5 4 6 -4 9 -11 6
-16 -3 -4 17 -22 43 -39 51 -33 68 -38 56 -19 -5 7 -3 8 5 4 7 -5 10 -11 7
-14 -3 -3 3 -12 14 -19 25 -17 80 -34 80 -25 -1 17 -47 87 -57 87 -6 0 -15 4
-20 9 -5 5 -3 6 5 2 16 -9 15 4 -2 27 -15 19 -31 23 -20 5 4 -7 -23 16 -59 51
-37 36 -64 67 -62 70 6 6 -15 31 -27 31 -5 0 -6 -6 -2 -12 4 -8 3 -10 -2 -5
-5 5 -9 14 -9 20 0 7 -31 33 -69 59 -69 48 -94 59 -80 36 4 -7 3 -8 -5 -4 -6
4 -9 12 -6 17 8 12 -155 91 -178 85 -9 -2 -15 -1 -12 4 2 4 -17 17 -44 28 -37
15 -52 17 -61 9 -10 -9 -11 -9 -6 0 8 14 -174 74 -188 61 -6 -4 -15 -8 -20 -8
-6 0 -5 4 2 8 8 6 1 12 -23 19 -20 7 -37 7 -41 2 -3 -5 -13 -9 -22 -8 -14 0
-13 2 3 9 17 7 17 9 3 9 -10 1 -19 1 -20 0 -2 0 -15 4 -30 10 -17 6 -29 7 -33
1 -4 -6 -12 -10 -18 -10 -9 0 -8 3 1 8 8 6 -3 12 -33 19 -25 6 -48 6 -51 2 -3
-5 -13 -9 -22 -8 -14 0 -13 2 3 9 17 7 17 9 3 9 -10 1 -19 1 -20 1 -2 1 -20 5
-41 9 -21 5 -39 5 -43 0 -3 -5 -11 -9 -17 -9 -8 0 -8 3 1 9 11 6 9 9 -6 13
-11 3 -26 1 -33 -6 -8 -6 -10 -6 -5 -1 12 15 -175 45 -193 31 -11 -8 -13 -8
-8 0 9 16 -108 34 -124 20 -9 -8 -10 -8 -6 0 5 8 -21 16 -81 25 -48 7 -89 13
-92 14 -10 2 -105 16 -115 17 -5 0 -20 4 -32 9 -13 5 -25 4 -28 -1 -4 -6 -14
-10 -23 -9 -14 0 -14 2 2 8 14 5 -5 13 -65 25 -136 29 -345 103 -472 167 -65
33 -123 56 -129 53 -7 -4 -8 -2 -4 4 4 7 -13 21 -43 37 -51 25 -61 29 -61 21z
m697 -292 c-3 -3 -12 -4 -19 -1 -8 3 -5 6 6 6 11 1 17 -2 13 -5z m200 -40 c-3
-3 -12 -4 -19 -1 -8 3 -5 6 6 6 11 1 17 -2 13 -5z m120 -20 c-3 -3 -12 -4 -19
-1 -8 3 -5 6 6 6 11 1 17 -2 13 -5z m-80 -210 c-3 -3 -12 -4 -19 -1 -8 3 -5 6
6 6 11 1 17 -2 13 -5z m480 -90 c-3 -3 -12 -4 -19 -1 -8 3 -5 6 6 6 11 1 17
-2 13 -5z m190 -30 c-3 -3 -12 -4 -19 -1 -8 3 -5 6 6 6 11 1 17 -2 13 -5z
m130 -20 c-3 -3 -12 -4 -19 -1 -8 3 -5 6 6 6 11 1 17 -2 13 -5z m230 -40 c-3
-3 -12 -4 -19 -1 -8 3 -5 6 6 6 11 1 17 -2 13 -5z m598 -52 c-3 -3 -11 0 -18
7 -9 10 -8 11 6 5 10 -3 15 -9 12 -12z"/>
<path d="M2397 3323 c-41 -3 -56 -7 -51 -16 5 -8 4 -9 -4 -2 -16 14 -104 6
-95 -9 4 -7 1 -7 -9 1 -8 7 -17 11 -19 9 -2 -2 -33 -7 -69 -11 -36 -4 -67 -8
-70 -10 -3 -2 -30 -6 -60 -10 -30 -3 -71 -10 -90 -15 -19 -5 -51 -11 -70 -14
-19 -3 -59 -10 -89 -16 -29 -5 -56 -10 -60 -11 -3 0 3 -4 14 -9 16 -7 17 -9 3
-9 -9 -1 -19 3 -22 8 -3 4 -52 -2 -108 -14 -57 -13 -121 -26 -143 -30 -22 -4
-47 -8 -55 -10 -8 -2 -22 -4 -30 -5 -10 -1 -9 -4 5 -10 16 -7 17 -9 3 -9 -9
-1 -19 3 -22 8 -3 5 -15 7 -27 4 -16 -4 -17 -8 -7 -14 9 -6 9 -9 1 -9 -6 0
-14 4 -17 9 -4 5 -22 5 -43 1 -97 -22 -396 -59 -476 -60 -34 0 -46 -3 -41 -12
5 -7 3 -8 -7 -2 -20 12 -111 12 -128 0 -11 -8 -13 -8 -8 0 4 8 -20 14 -76 19
-102 9 -98 9 -122 0 -16 -5 -17 -5 -5 4 12 9 11 11 -10 11 -14 0 -56 6 -95 14
-38 8 -86 17 -105 20 l-35 5 35 -30 c103 -89 344 -189 514 -215 23 -3 43 -8
45 -10 2 -2 11 2 19 9 13 9 14 9 8 0 -5 -9 1 -13 21 -14 15 0 52 -2 82 -4 34
-2 49 0 40 6 -9 5 -10 9 -2 9 6 0 15 -4 18 -10 9 -15 27 -12 19 3 -6 10 -4 10
7 0 16 -16 33 -17 23 -2 -5 8 -1 8 14 0 26 -14 35 -14 26 0 -5 8 -1 8 14 0 11
-6 23 -11 27 -11 3 0 3 5 -1 11 -5 8 -1 8 14 0 26 -14 35 -14 27 -1 -4 6 2 7
17 2 42 -15 258 3 258 21 0 8 4 7 9 -2 5 -7 13 -11 17 -8 5 3 29 8 54 11 25 4
54 8 65 10 11 3 28 5 38 5 12 1 16 6 11 14 -5 9 -4 9 5 1 12 -11 64 -7 57 5
-2 3 10 6 26 5 17 0 83 10 147 23 64 13 127 26 141 28 155 28 248 50 243 58
-3 6 1 6 12 0 11 -7 35 -6 71 3 30 7 95 18 144 25 60 8 87 15 83 23 -4 6 0 6
9 -1 8 -7 17 -11 19 -9 2 2 40 8 84 12 44 4 91 8 105 9 14 2 47 3 73 4 27 1
46 5 43 9 -2 4 5 9 17 9 17 2 19 0 7 -7 -10 -7 7 -10 55 -11 39 0 84 -3 100
-5 147 -21 242 -37 262 -45 16 -6 23 -5 23 4 0 9 2 9 8 1 4 -6 22 -15 41 -19
26 -5 32 -4 28 6 -2 8 -10 13 -16 12 -6 -2 -10 3 -8 10 1 6 -3 11 -10 10 -7
-2 -10 4 -6 13 5 13 2 15 -15 10 -11 -4 -23 -2 -27 3 -4 7 1 9 12 5 16 -5 16
-4 -2 10 -11 9 -25 14 -33 11 -7 -2 -10 0 -7 5 8 13 -101 67 -215 106 -74 25
-98 30 -109 21 -11 -9 -13 -9 -8 0 16 26 -258 67 -331 50 -13 -4 -20 -2 -17 4
8 12 -6 11 -25 -1 -8 -5 -19 -5 -25 -1 -14 12 -45 10 -45 -3 0 -6 -5 -5 -12 2
-7 7 -14 11 -17 10 -4 -1 -32 -3 -64 -5z m26 -20 c-7 -2 -21 -2 -30 0 -10 3
-4 5 12 5 17 0 24 -2 18 -5z m284 1 c-3 -3 -12 -4 -19 -1 -8 3 -5 6 6 6 11 1
17 -2 13 -5z m-510 -20 c-3 -3 -12 -4 -19 -1 -8 3 -5 6 6 6 11 1 17 -2 13 -5z
m-510 -90 c-3 -3 -12 -4 -19 -1 -8 3 -5 6 6 6 11 1 17 -2 13 -5z m-50 -10 c-3
-3 -12 -4 -19 -1 -8 3 -5 6 6 6 11 1 17 -2 13 -5z m1171 -61 c-10 -2 -26 -2
-35 0 -10 3 -2 5 17 5 19 0 27 -2 18 -5z m140 0 c-10 -2 -28 -2 -40 0 -13 2
-5 4 17 4 22 1 32 -1 23 -4z m-281 -9 c-3 -3 -12 -4 -19 -1 -8 3 -5 6 6 6 11
1 17 -2 13 -5z m386 -1 c-7 -2 -19 -2 -25 0 -7 3 -2 5 12 5 14 0 19 -2 13 -5z
m-2826 -9 c-3 -3 -12 -4 -19 -1 -8 3 -5 6 6 6 11 1 17 -2 13 -5z m2340 0 c-3
-3 -12 -4 -19 -1 -8 3 -5 6 6 6 11 1 17 -2 13 -5z m620 -10 c-3 -3 -12 -4 -19
-1 -8 3 -5 6 6 6 11 1 17 -2 13 -5z m-2860 -10 c-3 -3 -12 -4 -19 -1 -8 3 -5
6 6 6 11 1 17 -2 13 -5z m766 -1 c-7 -2 -19 -2 -25 0 -7 3 -2 5 12 5 14 0 19
-2 13 -5z m1334 1 c-3 -3 -12 -4 -19 -1 -8 3 -5 6 6 6 11 1 17 -2 13 -5z m-60
-10 c-3 -3 -12 -4 -19 -1 -8 3 -5 6 6 6 11 1 17 -2 13 -5z m-1874 -11 c-7 -2
-21 -2 -30 0 -10 3 -4 5 12 5 17 0 24 -2 18 -5z m1814 1 c-3 -3 -12 -4 -19 -1
-8 3 -5 6 6 6 11 1 17 -2 13 -5z m-1740 -10 c-3 -3 -12 -4 -19 -1 -8 3 -5 6 6
6 11 1 17 -2 13 -5z m261 -1 c-10 -2 -26 -2 -35 0 -10 3 -2 5 17 5 19 0 27 -2
18 -5z m1219 -39 c-3 -3 -12 -4 -19 -1 -8 3 -5 6 6 6 11 1 17 -2 13 -5z m-160
-30 c-3 -3 -12 -4 -19 -1 -8 3 -5 6 6 6 11 1 17 -2 13 -5z m-150 -30 c-3 -3
-12 -4 -19 -1 -8 3 -5 6 6 6 11 1 17 -2 13 -5z m-230 -40 c-3 -3 -12 -4 -19
-1 -8 3 -5 6 6 6 11 1 17 -2 13 -5z m-60 -10 c-3 -3 -12 -4 -19 -1 -8 3 -5 6
6 6 11 1 17 -2 13 -5z m-80 -10 c-3 -3 -12 -4 -19 -1 -8 3 -5 6 6 6 11 1 17
-2 13 -5z m-110 -10 c-3 -3 -12 -4 -19 -1 -8 3 -5 6 6 6 11 1 17 -2 13 -5z"/>
<path d="M5000 3323 c-35 -3 -156 -19 -220 -29 -125 -21 -438 -151 -433 -181
1 -6 -5 -17 -15 -25 -15 -12 -16 -11 -3 5 7 9 9 17 4 17 -12 0 -66 -60 -60
-66 2 -3 71 9 153 26 82 16 164 30 182 30 23 0 31 4 26 12 -5 7 -3 8 6 3 18
-11 202 -6 217 6 6 6 22 9 35 6 20 -4 19 -5 -7 -7 -21 -2 -13 -5 25 -10 31 -4
60 -3 67 2 7 5 20 8 30 5 13 -3 12 -5 -7 -7 -16 -2 -9 -5 20 -10 30 -5 48 -3
52 4 6 8 8 8 8 0 0 -15 80 -24 80 -9 0 6 3 6 8 -1 9 -14 225 -49 249 -40 9 4
14 3 9 -1 -4 -4 61 -22 146 -38 102 -21 155 -27 160 -20 5 7 8 6 8 -1 0 -9 85
-32 185 -49 11 -2 41 -7 68 -13 34 -7 47 -6 47 2 0 8 2 8 8 0 11 -18 98 -33
113 -20 9 8 10 8 5 -1 -4 -8 -2 -13 6 -14 7 0 22 -2 33 -4 49 -7 181 -23 250
-29 17 -1 36 2 44 8 11 8 13 8 7 -1 -4 -7 -3 -13 1 -13 5 0 15 6 22 13 11 10
13 10 7 0 -5 -10 6 -13 46 -13 30 0 60 6 67 13 11 10 13 10 7 0 -5 -9 0 -13
13 -13 10 0 22 6 24 13 4 10 6 10 6 0 1 -7 6 -13 12 -13 5 0 7 5 3 12 -5 7 -3
8 7 3 7 -5 24 -9 36 -8 13 1 46 1 74 2 37 1 48 4 43 14 -6 9 -4 9 7 1 25 -20
317 49 312 74 -2 6 4 9 12 6 8 -4 23 -3 32 0 15 6 15 8 3 17 -12 8 -10 9 7 4
25 -7 87 21 78 35 -3 6 1 7 9 4 15 -6 97 40 95 54 -3 19 2 30 18 36 15 6 15 4
-2 -14 -10 -11 -14 -20 -8 -20 12 0 58 48 52 55 -3 2 -27 -3 -54 -11 -64 -19
-192 -44 -228 -44 -20 0 -26 -4 -21 -12 5 -9 4 -10 -4 -3 -12 11 -145 7 -138
-4 3 -4 -1 -8 -9 -8 -8 0 -12 4 -9 9 3 4 -2 8 -11 8 -10 0 -14 -5 -9 -12 6
-10 4 -10 -7 0 -7 6 -17 12 -22 12 -4 0 -5 -6 -1 -12 6 -10 4 -10 -7 0 -15 14
-33 17 -25 4 3 -5 -1 -9 -9 -9 -8 0 -12 4 -9 9 3 4 -21 8 -53 9 -32 0 -69 2
-83 4 -14 1 -58 6 -98 9 -40 4 -79 9 -86 12 -8 3 -17 1 -21 -5 -3 -6 -12 -11
-18 -11 -8 0 -7 4 2 9 10 7 0 11 -35 16 -27 4 -107 18 -179 32 -71 13 -154 28
-183 33 -29 5 -57 12 -62 15 -6 3 -10 0 -10 -7 0 -9 -3 -10 -8 -2 -9 15 -341
84 -348 73 -3 -5 -13 -9 -22 -8 -14 0 -13 2 3 9 11 5 16 9 10 10 -5 0 -79 11
-163 24 -84 13 -155 19 -158 15 -3 -5 -11 -9 -17 -9 -7 0 -6 4 3 10 11 7 5 10
-25 11 -22 0 -51 2 -65 4 -60 8 -107 8 -120 0 -9 -5 -11 -4 -6 3 4 7 1 12 -9
12 -10 0 -13 -5 -9 -12 5 -8 1 -8 -10 1 -15 13 -19 13 -27 0 -6 -10 -9 -10 -9
-1 0 6 -5 12 -11 12 -5 0 -7 -5 -3 -12 5 -7 3 -8 -6 -3 -15 9 -48 12 -100 8z
m287 -19 c-3 -3 -12 -4 -19 -1 -8 3 -5 6 6 6 11 1 17 -2 13 -5z m90 -10 c-3
-3 -12 -4 -19 -1 -8 3 -5 6 6 6 11 1 17 -2 13 -5z m-600 -20 c-3 -3 -12 -4
-19 -1 -8 3 -5 6 6 6 11 1 17 -2 13 -5z m770 0 c-3 -3 -12 -4 -19 -1 -8 3 -5
6 6 6 11 1 17 -2 13 -5z m70 -10 c-3 -3 -12 -4 -19 -1 -8 3 -5 6 6 6 11 1 17
-2 13 -5z m230 -40 c-3 -3 -12 -4 -19 -1 -8 3 -5 6 6 6 11 1 17 -2 13 -5z
m-1130 -100 c-3 -3 -12 -4 -19 -1 -8 3 -5 6 6 6 11 1 17 -2 13 -5z m-104 -11
c-7 -2 -19 -2 -25 0 -7 3 -2 5 12 5 14 0 19 -2 13 -5z m1844 -9 c-3 -3 -12 -4
-19 -1 -8 3 -5 6 6 6 11 1 17 -2 13 -5z m-1970 -10 c-3 -3 -12 -4 -19 -1 -8 3
-5 6 6 6 11 1 17 -2 13 -5z m720 0 c-3 -3 -12 -4 -19 -1 -8 3 -5 6 6 6 11 1
17 -2 13 -5z m2140 -10 c-3 -3 -12 -4 -19 -1 -8 3 -5 6 6 6 11 1 17 -2 13 -5z
m-2014 -11 c-7 -2 -19 -2 -25 0 -7 3 -2 5 12 5 14 0 19 -2 13 -5z m1324 1 c-3
-3 -12 -4 -19 -1 -8 3 -5 6 6 6 11 1 17 -2 13 -5z m640 0 c-3 -3 -12 -4 -19
-1 -8 3 -5 6 6 6 11 1 17 -2 13 -5z m-554 -11 c-7 -2 -19 -2 -25 0 -7 3 -2 5
12 5 14 0 19 -2 13 -5z m114 -9 c-3 -3 -12 -4 -19 -1 -8 3 -5 6 6 6 11 1 17
-2 13 -5z m240 0 c-3 -3 -12 -4 -19 -1 -8 3 -5 6 6 6 11 1 17 -2 13 -5z m40 0
c-3 -3 -12 -4 -19 -1 -8 3 -5 6 6 6 11 1 17 -2 13 -5z m-1580 -20 c-3 -3 -12
-4 -19 -1 -8 3 -5 6 6 6 11 1 17 -2 13 -5z m360 -70 c-3 -3 -12 -4 -19 -1 -8
3 -5 6 6 6 11 1 17 -2 13 -5z m410 -70 c-3 -3 -12 -4 -19 -1 -8 3 -5 6 6 6 11
1 17 -2 13 -5z m86 -11 c-7 -2 -19 -2 -25 0 -7 3 -2 5 12 5 14 0 19 -2 13 -5z
m430 0 c-7 -2 -19 -2 -25 0 -7 3 -2 5 12 5 14 0 19 -2 13 -5z"/>
<path d="M3510 3205 c29 -30 56 -52 59 -50 6 7 -90 105 -103 105 -6 0 14 -25
44 -55z"/>
<path d="M2739 3086 c-2 -2 -45 -7 -96 -11 -50 -4 -100 -8 -110 -10 -10 -2
-31 -4 -46 -4 -20 -1 -26 -5 -21 -13 5 -10 4 -10 -5 -2 -7 6 -24 9 -39 6 -24
-5 -25 -6 -7 -13 16 -6 17 -8 3 -8 -9 -1 -20 4 -23 9 -4 6 -9 8 -13 6 -7 -4
-25 -7 -124 -21 -26 -4 -46 -10 -43 -14 2 -4 -10 -5 -27 -3 -20 3 -29 1 -24
-6 4 -6 -1 -8 -13 -5 -30 8 -137 -17 -120 -28 9 -6 10 -9 2 -9 -6 0 -14 4 -17
8 -3 5 -92 -8 -198 -29 -261 -52 -489 -90 -568 -95 -172 -11 -213 -16 -199
-25 8 -5 9 -9 3 -9 -5 0 -16 6 -22 12 -10 10 -17 10 -33 0 -12 -8 -18 -9 -14
-3 4 7 -16 11 -62 12 -37 0 -77 2 -88 3 -11 2 -48 6 -82 10 -33 4 -86 13 -117
20 -40 10 -56 10 -56 2 0 -8 -2 -8 -8 0 -4 6 -23 15 -42 19 l-35 7 24 -26 c26
-27 53 -37 31 -11 -9 10 -9 15 -1 15 6 0 12 -4 12 -10 1 -5 2 -16 3 -22 2 -20
157 -100 193 -101 19 -1 28 -4 21 -8 -9 -6 -9 -9 2 -13 90 -31 131 -42 136
-35 3 5 11 9 17 9 8 0 8 -3 -1 -9 -20 -12 64 -33 198 -49 69 -8 382 -7 465 2
143 15 164 19 158 30 -5 8 -3 8 8 0 15 -12 33 -9 284 37 84 15 114 24 100 30
-16 6 -17 8 -3 8 9 1 19 -3 22 -7 3 -5 40 -2 82 7 55 10 72 17 58 22 -16 6
-16 8 -2 8 9 1 20 -4 23 -9 4 -6 11 -8 16 -5 5 4 35 10 66 15 32 6 67 12 78
14 249 49 426 75 525 76 28 0 32 3 20 11 -12 9 -11 10 5 4 25 -8 19 -8 88 -6
41 1 56 4 51 13 -5 7 -3 8 7 2 21 -13 70 -14 63 -2 -5 7 -2 8 7 2 16 -10 13
-9 97 -18 35 -4 102 -13 149 -22 47 -8 95 -12 107 -9 16 5 17 4 7 -4 -11 -7
-6 -11 22 -16 19 -4 41 -4 48 1 8 4 10 3 5 -4 -5 -8 1 -12 15 -12 20 0 21 1 6
23 -8 12 -21 21 -27 19 -6 -1 -9 2 -6 7 15 24 -153 113 -309 164 -119 39 -146
45 -275 62 -25 3 -54 7 -65 9 -11 2 -26 -2 -34 -8 -11 -8 -13 -8 -7 2 5 8 1
12 -13 12 -11 0 -23 -4 -26 -10 -3 -5 -14 -10 -23 -9 -14 0 -13 2 3 9 13 6 -7
9 -62 9 -60 1 -83 -2 -83 -11 0 -8 -3 -9 -8 -3 -7 11 -27 17 -33 11z m124 -13
c-7 -2 -21 -2 -30 0 -10 3 -4 5 12 5 17 0 24 -2 18 -5z m-160 -10 c-7 -2 -21
-2 -30 0 -10 3 -4 5 12 5 17 0 24 -2 18 -5z m364 1 c-3 -3 -12 -4 -19 -1 -8 3
-5 6 6 6 11 1 17 -2 13 -5z m140 -20 c-3 -3 -12 -4 -19 -1 -8 3 -5 6 6 6 11 1
17 -2 13 -5z m-1120 -70 c-3 -3 -12 -4 -19 -1 -8 3 -5 6 6 6 11 1 17 -2 13 -5z
m-150 -30 c-3 -3 -12 -4 -19 -1 -8 3 -5 6 6 6 11 1 17 -2 13 -5z m-100 -20
c-3 -3 -12 -4 -19 -1 -8 3 -5 6 6 6 11 1 17 -2 13 -5z m-100 -20 c-3 -3 -12
-4 -19 -1 -8 3 -5 6 6 6 11 1 17 -2 13 -5z m1390 -20 c-3 -3 -12 -4 -19 -1 -8
3 -5 6 6 6 11 1 17 -2 13 -5z m196 -1 c-7 -2 -19 -2 -25 0 -7 3 -2 5 12 5 14
0 19 -2 13 -5z m-1756 -9 c-3 -3 -12 -4 -19 -1 -8 3 -5 6 6 6 11 1 17 -2 13
-5z m1436 -1 c-7 -2 -21 -2 -30 0 -10 3 -4 5 12 5 17 0 24 -2 18 -5z m404 1
c-3 -3 -12 -4 -19 -1 -8 3 -5 6 6 6 11 1 17 -2 13 -5z m70 -10 c-3 -3 -12 -4
-19 -1 -8 3 -5 6 6 6 11 1 17 -2 13 -5z m-2020 -10 c-3 -3 -12 -4 -19 -1 -8 3
-5 6 6 6 11 1 17 -2 13 -5z m-64 -11 c-7 -2 -19 -2 -25 0 -7 3 -2 5 12 5 14 0
19 -2 13 -5z m1354 1 c-3 -3 -12 -4 -19 -1 -8 3 -5 6 6 6 11 1 17 -2 13 -5z
m-2020 -10 c-3 -3 -12 -4 -19 -1 -8 3 -5 6 6 6 11 1 17 -2 13 -5z m610 0 c-3
-3 -12 -4 -19 -1 -8 3 -5 6 6 6 11 1 17 -2 13 -5z m-130 -10 c-3 -3 -12 -4
-19 -1 -8 3 -5 6 6 6 11 1 17 -2 13 -5z m40 0 c-3 -3 -12 -4 -19 -1 -8 3 -5 6
6 6 11 1 17 -2 13 -5z m-350 -10 c-3 -3 -12 -4 -19 -1 -8 3 -5 6 6 6 11 1 17
-2 13 -5z m1690 0 c-3 -3 -12 -4 -19 -1 -8 3 -5 6 6 6 11 1 17 -2 13 -5z
m-320 -60 c-3 -3 -12 -4 -19 -1 -8 3 -5 6 6 6 11 1 17 -2 13 -5z m-210 -40
c-3 -3 -12 -4 -19 -1 -8 3 -5 6 6 6 11 1 17 -2 13 -5z m-60 -10 c-3 -3 -12 -4
-19 -1 -8 3 -5 6 6 6 11 1 17 -2 13 -5z m-110 -20 c-3 -3 -12 -4 -19 -1 -8 3
-5 6 6 6 11 1 17 -2 13 -5z m-60 -10 c-3 -3 -12 -4 -19 -1 -8 3 -5 6 6 6 11 1
17 -2 13 -5z m-670 -30 c-3 -3 -12 -4 -19 -1 -8 3 -5 6 6 6 11 1 17 -2 13 -5z
m381 -1 c-10 -2 -26 -2 -35 0 -10 3 -2 5 17 5 19 0 27 -2 18 -5z"/>
<path d="M4630 3072 c-74 -5 -226 -34 -284 -53 -94 -31 -216 -91 -209 -102 3
-6 1 -7 -5 -3 -14 9 -75 -22 -67 -34 3 -5 0 -12 -6 -16 -8 -5 -9 -3 -4 6 5 8
3 11 -4 9 -7 -3 -13 -9 -13 -14 0 -6 -4 -15 -8 -20 -13 -16 21 -34 45 -24 11
4 14 8 6 8 -8 1 -11 4 -8 7 4 4 12 3 19 -3 9 -6 43 -3 98 8 47 9 74 18 60 19
-18 2 -20 4 -7 7 10 3 23 1 30 -4 7 -5 18 -8 25 -7 6 1 39 2 73 3 45 1 58 4
53 14 -6 9 -5 9 8 -1 16 -13 64 -12 87 3 9 5 12 4 8 -2 -4 -5 6 -10 23 -10 17
0 27 5 23 10 -4 6 -1 7 8 2 14 -9 18 -10 154 -20 49 -3 91 -8 94 -10 2 -3 11
1 19 8 13 9 14 9 8 0 -5 -9 2 -13 23 -13 17 0 34 -1 39 -2 75 -17 123 -24 128
-17 3 5 13 9 22 8 14 0 13 -2 -3 -8 -17 -7 -17 -8 8 -13 16 -3 27 -1 27 6 0 7
3 7 8 -1 4 -7 23 -15 42 -17 19 -3 65 -11 103 -19 37 -8 70 -11 73 -6 3 5 11
9 17 9 9 0 8 -3 -1 -8 -12 -8 36 -22 125 -37 18 -3 62 -11 98 -19 36 -8 68
-10 71 -5 3 5 11 9 17 9 7 0 6 -4 -3 -10 -8 -5 -10 -10 -5 -10 6 0 60 -9 121
-20 61 -10 133 -22 160 -26 27 -3 51 -8 53 -10 2 -2 13 1 24 7 14 8 18 8 13 0
-5 -7 3 -11 21 -12 15 0 35 -2 43 -3 8 -2 56 -6 105 -10 50 -4 99 -8 110 -10
11 -2 26 2 34 8 11 8 13 8 7 -1 -4 -7 -3 -13 3 -13 5 0 13 5 16 10 4 6 12 7
18 3 10 -6 55 -5 117 2 14 2 40 4 58 4 24 1 31 5 26 14 -6 9 -5 9 7 1 17 -14
80 -5 209 30 56 16 84 28 82 36 -3 11 0 11 12 0 15 -11 20 -7 17 12 0 4 5 5
13 2 21 -8 202 84 249 128 l42 38 -40 -6 c-22 -3 -47 -7 -55 -9 -8 -3 -31 -7
-50 -10 -19 -3 -62 -12 -95 -19 -37 -9 -125 -15 -239 -16 -98 0 -184 -4 -189
-7 -6 -3 -7 -1 -3 5 4 6 -1 11 -11 10 -37 -1 -165 14 -225 26 -36 8 -67 10
-73 5 -5 -5 -14 -9 -20 -9 -5 0 -4 4 2 8 16 10 -230 57 -252 48 -9 -3 -14 -2
-11 3 5 7 -45 20 -86 22 -4 0 -21 4 -38 9 -17 5 -32 5 -35 -1 -4 -5 -14 -9
-23 -8 -14 0 -14 2 2 8 13 5 -16 13 -87 25 -58 10 -111 15 -118 11 -7 -5 -10
-4 -6 2 5 8 -35 19 -153 39 -14 3 -47 9 -75 14 -27 5 -72 12 -100 15 -27 3
-61 7 -75 10 -74 13 -183 15 -198 3 -12 -10 -14 -10 -8 0 10 16 -26 16 -42 0
-9 -9 -12 -9 -12 0 0 7 -14 12 -32 12 -25 0 -29 -3 -18 -10 9 -6 10 -10 3 -10
-6 0 -15 5 -18 10 -9 15 -65 12 -65 -2 0 -9 -3 -9 -9 1 -8 12 -14 13 -36 3
-14 -7 -24 -8 -20 -3 3 6 -3 9 -12 8 -10 -1 -34 -3 -53 -5z m-7 -19 c-7 -2
-19 -2 -25 0 -7 3 -2 5 12 5 14 0 19 -2 13 -5z m-86 -9 c-3 -3 -12 -4 -19 -1
-8 3 -5 6 6 6 11 1 17 -2 13 -5z m660 0 c-3 -3 -12 -4 -19 -1 -8 3 -5 6 6 6
11 1 17 -2 13 -5z m-720 -10 c-3 -3 -12 -4 -19 -1 -8 3 -5 6 6 6 11 1 17 -2
13 -5z m790 0 c-3 -3 -12 -4 -19 -1 -8 3 -5 6 6 6 11 1 17 -2 13 -5z m66 -11
c-7 -2 -19 -2 -25 0 -7 3 -2 5 12 5 14 0 19 -2 13 -5z m114 -19 c-3 -3 -12 -4
-19 -1 -8 3 -5 6 6 6 11 1 17 -2 13 -5z m210 -40 c-3 -3 -12 -4 -19 -1 -8 3
-5 6 6 6 11 1 17 -2 13 -5z m230 -40 c-3 -3 -12 -4 -19 -1 -8 3 -5 6 6 6 11 1
17 -2 13 -5z m110 -20 c-3 -3 -12 -4 -19 -1 -8 3 -5 6 6 6 11 1 17 -2 13 -5z
m-1619 -31 c-10 -2 -28 -2 -40 0 -13 2 -5 4 17 4 22 1 32 -1 23 -4z m309 1
c-3 -3 -12 -4 -19 -1 -8 3 -5 6 6 6 11 1 17 -2 13 -5z m40 0 c-3 -3 -12 -4
-19 -1 -8 3 -5 6 6 6 11 1 17 -2 13 -5z m90 -10 c-3 -3 -12 -4 -19 -1 -8 3 -5
6 6 6 11 1 17 -2 13 -5z m2343 2 c0 -2 -7 -9 -15 -16 -13 -11 -14 -10 -9 4 5
14 24 23 24 12z m-2263 -12 c-3 -3 -12 -4 -19 -1 -8 3 -5 6 6 6 11 1 17 -2 13
-5z m2150 -10 c-3 -3 -12 -4 -19 -1 -8 3 -5 6 6 6 11 1 17 -2 13 -5z m-2030
-10 c-3 -3 -12 -4 -19 -1 -8 3 -5 6 6 6 11 1 17 -2 13 -5z m1370 0 c-3 -3 -12
-4 -19 -1 -8 3 -5 6 6 6 11 1 17 -2 13 -5z m610 0 c-3 -3 -12 -4 -19 -1 -8 3
-5 6 6 6 11 1 17 -2 13 -5z m-504 -11 c-7 -2 -19 -2 -25 0 -7 3 -2 5 12 5 14
0 19 -2 13 -5z m110 -10 c-7 -2 -19 -2 -25 0 -7 3 -2 5 12 5 14 0 19 -2 13 -5z
m-1356 -19 c-3 -3 -12 -4 -19 -1 -8 3 -5 6 6 6 11 1 17 -2 13 -5z m50 -10 c-3
-3 -12 -4 -19 -1 -8 3 -5 6 6 6 11 1 17 -2 13 -5z m156 -31 c-7 -2 -19 -2 -25
0 -7 3 -2 5 12 5 14 0 19 -2 13 -5z m104 -19 c-3 -3 -12 -4 -19 -1 -8 3 -5 6
6 6 11 1 17 -2 13 -5z m160 -30 c-3 -3 -12 -4 -19 -1 -8 3 -5 6 6 6 11 1 17
-2 13 -5z m60 -10 c-3 -3 -12 -4 -19 -1 -8 3 -5 6 6 6 11 1 17 -2 13 -5z m60
-10 c-3 -3 -12 -4 -19 -1 -8 3 -5 6 6 6 11 1 17 -2 13 -5z m60 -10 c-3 -3 -12
-4 -19 -1 -8 3 -5 6 6 6 11 1 17 -2 13 -5z m80 -10 c-3 -3 -12 -4 -19 -1 -8 3
-5 6 6 6 11 1 17 -2 13 -5z m80 -10 c-3 -3 -12 -4 -19 -1 -8 3 -5 6 6 6 11 1
17 -2 13 -5z m110 -10 c-3 -3 -12 -4 -19 -1 -8 3 -5 6 6 6 11 1 17 -2 13 -5z
m101 -11 c-10 -2 -26 -2 -35 0 -10 3 -2 5 17 5 19 0 27 -2 18 -5z m195 0 c-7
-2 -21 -2 -30 0 -10 3 -4 5 12 5 17 0 24 -2 18 -5z"/>
<path d="M3992 2837 c-30 -32 -28 -38 10 -32 40 7 49 15 18 15 -22 0 -23 1 -5
20 25 28 3 25 -23 -3z"/>
<path d="M4340 2822 c-14 -2 -28 -9 -32 -16 -6 -8 -8 -8 -8 0 0 23 -148 -16
-278 -72 -139 -61 -211 -75 -278 -54 -21 6 -88 33 -149 60 -139 60 -189 72
-312 72 -201 1 -249 -2 -233 -12 12 -8 11 -10 -5 -7 -11 1 -24 5 -30 9 -8 4
-140 -12 -170 -21 -3 0 -13 -1 -22 -2 -15 0 -15 -2 2 -9 16 -7 17 -9 3 -9 -9
-1 -20 4 -23 9 -4 6 -10 8 -13 6 -4 -2 -28 -7 -52 -11 -25 -4 -52 -9 -60 -10
-8 -2 -21 -4 -28 -4 -7 -1 -10 -5 -7 -11 3 -6 -1 -7 -9 -4 -20 8 -219 -36
-228 -50 -5 -8 -8 -8 -8 0 0 7 -27 5 -82 -7 -46 -10 -123 -25 -173 -33 -49 -9
-101 -18 -115 -20 -14 -3 -35 -5 -48 -5 -16 -1 -21 -5 -16 -13 5 -9 4 -10 -5
-3 -15 15 -83 6 -74 -9 4 -7 1 -6 -9 1 -8 7 -17 11 -19 9 -7 -7 -243 -21 -354
-21 -55 0 -103 -4 -107 -10 -5 -6 -8 -5 -8 3 0 6 -12 12 -26 12 -17 0 -23 -4
-18 -12 6 -10 4 -10 -8 0 -11 9 -18 10 -23 2 -3 -6 -12 -7 -18 -3 -17 11 -209
3 -224 -8 -7 -7 -14 -6 -18 1 -8 12 -37 9 -47 -5 -5 -6 -8 -5 -8 4 0 11 -3 11
-17 0 -11 -10 -14 -10 -9 -1 8 13 -19 13 -39 0 -6 -4 -17 -3 -24 1 -19 12
-268 -5 -358 -25 -37 -7 -26 -19 19 -22 24 -1 52 -4 63 -6 11 -2 26 2 34 8 11
8 13 8 7 -1 -5 -10 3 -13 31 -14 21 0 54 -2 73 -5 99 -12 109 -12 114 -1 3 9
5 9 5 0 1 -10 76 -13 340 -13 262 0 340 3 344 13 3 6 6 7 6 1 1 -7 24 -10 64
-8 34 2 136 5 226 8 118 4 167 9 173 18 4 7 8 9 8 3 0 -5 21 -9 47 -9 27 1
104 2 173 3 77 1 120 5 111 10 -10 7 -7 9 12 8 14 -1 23 -5 21 -8 -2 -3 38 -4
89 -1 54 2 95 9 99 16 4 6 8 7 8 1 0 -6 100 -10 280 -10 180 0 280 4 280 10 0
6 4 5 8 -1 4 -7 51 -14 112 -18 58 -3 120 -10 138 -15 23 -7 32 -6 32 2 0 8 3
7 9 -2 5 -8 19 -12 35 -9 14 3 23 2 21 -2 -6 -10 140 -34 160 -26 9 3 13 2 10
-4 -3 -6 -1 -10 4 -10 6 0 11 6 11 13 0 7 3 8 8 2 10 -14 65 -17 56 -4 -4 8 0
7 14 0 25 -13 35 -14 28 -2 -7 10 20 9 30 -2 4 -4 14 -7 23 -7 14 0 14 2 1 10
-9 6 -10 10 -3 10 6 0 15 -4 18 -10 3 -5 14 -10 23 -10 15 0 15 2 2 10 -8 5
-10 10 -4 10 5 0 15 -5 21 -11 9 -9 41 -4 130 19 65 17 148 34 185 38 42 4 65
11 61 17 -3 6 -1 7 5 3 6 -4 145 -9 309 -11 164 -3 370 -6 458 -8 88 -1 175 0
192 4 19 4 30 3 27 -2 -8 -13 10 -11 25 4 11 10 13 10 7 0 -5 -10 5 -13 41
-14 26 0 57 -2 68 -4 11 -2 23 1 27 8 6 9 8 8 8 -2 0 -11 3 -11 17 0 11 10 14
10 9 2 -5 -10 6 -13 46 -13 30 0 60 6 67 13 9 7 11 8 7 1 -8 -15 78 -23 101
-10 10 6 14 5 9 -2 -8 -13 96 -17 582 -20 385 -3 516 3 505 22 -5 8 -3 8 8 0
18 -15 132 -6 122 9 -4 6 -1 7 7 2 15 -9 102 -8 134 2 17 5 17 7 4 14 -37 21
-228 33 -228 15 0 -7 -3 -7 -8 1 -4 6 -46 13 -102 16 -55 3 -87 2 -75 -3 16
-7 17 -9 3 -9 -9 -1 -20 4 -23 9 -3 6 -14 10 -23 10 -15 0 -15 -2 -2 -10 9 -6
10 -10 3 -10 -6 0 -15 5 -18 10 -9 15 -27 12 -19 -2 6 -10 4 -10 -7 0 -16 15
-33 16 -23 1 5 -8 1 -8 -14 0 -25 13 -35 14 -28 2 6 -9 -7 -9 -34 2 -27 10
-90 5 -83 -7 3 -6 0 -5 -8 2 -14 13 -33 17 -25 4 2 -4 -5 -9 -17 -9 -15 -2
-18 0 -8 6 8 5 -7 10 -41 13 -30 3 -56 1 -59 -4 -4 -7 -8 -7 -10 0 -2 5 -78
12 -174 16 -94 3 -179 8 -190 10 -11 2 -57 7 -102 10 -45 4 -90 8 -100 10 -10
2 -45 7 -78 11 -33 3 -77 10 -97 15 -27 5 -38 4 -38 -4 0 -7 -3 -7 -8 2 -8 12
-73 26 -129 27 -17 0 -30 3 -28 6 2 3 -52 16 -121 30 -69 14 -127 21 -130 17
-3 -4 -13 -8 -22 -7 -14 0 -13 2 3 9 17 7 17 9 3 9 -20 1 -20 1 -68 13 -19 4
-53 11 -75 14 -22 3 -68 12 -102 19 -45 9 -65 9 -74 1 -9 -8 -10 -8 -5 2 5 8
0 12 -16 13 -13 0 -32 2 -42 4 -63 12 -278 23 -316 17z m7 -18 c-3 -3 -12 -4
-19 -1 -8 3 -5 6 6 6 11 1 17 -2 13 -5z m166 -1 c-7 -2 -19 -2 -25 0 -7 3 -2
5 12 5 14 0 19 -2 13 -5z m-1416 -9 c-3 -3 -12 -4 -19 -1 -8 3 -5 6 6 6 11 1
17 -2 13 -5z m290 0 c-3 -3 -12 -4 -19 -1 -8 3 -5 6 6 6 11 1 17 -2 13 -5z
m1230 0 c-3 -3 -12 -4 -19 -1 -8 3 -5 6 6 6 11 1 17 -2 13 -5z m-1720 -20 c-3
-3 -12 -4 -19 -1 -8 3 -5 6 6 6 11 1 17 -2 13 -5z m2200 -60 c-3 -3 -12 -4
-19 -1 -8 3 -5 6 6 6 11 1 17 -2 13 -5z m50 -10 c-3 -3 -12 -4 -19 -1 -8 3 -5
6 6 6 11 1 17 -2 13 -5z m100 -20 c-3 -3 -12 -4 -19 -1 -8 3 -5 6 6 6 11 1 17
-2 13 -5z m-1440 -30 c-3 -3 -12 -4 -19 -1 -8 3 -5 6 6 6 11 1 17 -2 13 -5z
m46 -1 c-7 -2 -19 -2 -25 0 -7 3 -2 5 12 5 14 0 19 -2 13 -5z m-1730 -30 c-7
-2 -19 -2 -25 0 -7 3 -2 5 12 5 14 0 19 -2 13 -5z m3454 1 c-3 -3 -12 -4 -19
-1 -8 3 -5 6 6 6 11 1 17 -2 13 -5z m-3650 -30 c-3 -3 -12 -4 -19 -1 -8 3 -5
6 6 6 11 1 17 -2 13 -5z m3890 0 c-3 -3 -12 -4 -19 -1 -8 3 -5 6 6 6 11 1 17
-2 13 -5z m136 -11 c-7 -2 -21 -2 -30 0 -10 3 -4 5 12 5 17 0 24 -2 18 -5z
m-4290 -10 c-7 -2 -19 -2 -25 0 -7 3 -2 5 12 5 14 0 19 -2 13 -5z m44 1 c-3
-3 -12 -4 -19 -1 -8 3 -5 6 6 6 11 1 17 -2 13 -5z m4466 -1 c-13 -2 -33 -2
-45 0 -13 2 -3 4 22 4 25 0 35 -2 23 -4z m-4970 -10 c-13 -2 -35 -2 -50 0 -16
2 -5 4 22 4 28 0 40 -2 28 -4z m334 1 c-3 -3 -12 -4 -19 -1 -8 3 -5 6 6 6 11
1 17 -2 13 -5z m-744 -11 c-7 -2 -21 -2 -30 0 -10 3 -4 5 12 5 17 0 24 -2 18
-5z m2219 0 c-62 -2 -161 -2 -220 0 -59 1 -8 3 113 3 121 0 169 -2 107 -3z
m1636 0 c-54 -2 -142 -2 -195 0 -54 1 -10 3 97 3 107 0 151 -2 98 -3z m2165 0
c-7 -2 -19 -2 -25 0 -7 3 -2 5 12 5 14 0 19 -2 13 -5z m-6136 -9 c-3 -3 -12
-4 -19 -1 -8 3 -5 6 6 6 11 1 17 -2 13 -5z m1876 -1 c-7 -2 -19 -2 -25 0 -7 3
-2 5 12 5 14 0 19 -2 13 -5z m700 0 c-7 -2 -19 -2 -25 0 -7 3 -2 5 12 5 14 0
19 -2 13 -5z m1640 0 c-7 -2 -19 -2 -25 0 -7 3 -2 5 12 5 14 0 19 -2 13 -5z
m2151 -4 c3 -3 -4 -5 -14 -6 -11 -1 -20 2 -20 7 0 8 25 8 34 -1z m-4791 -6
c-7 -2 -21 -2 -30 0 -10 3 -4 5 12 5 17 0 24 -2 18 -5z m3144 1 c-3 -3 -12 -4
-19 -1 -8 3 -5 6 6 6 11 1 17 -2 13 -5z m-4680 -10 c-3 -3 -12 -4 -19 -1 -8 3
-5 6 6 6 11 1 17 -2 13 -5z m1296 -1 c-7 -2 -21 -2 -30 0 -10 3 -4 5 12 5 17
0 24 -2 18 -5z m3654 1 c-3 -3 -12 -4 -19 -1 -8 3 -5 6 6 6 11 1 17 -2 13 -5z
m1266 -1 c-7 -2 -19 -2 -25 0 -7 3 -2 5 12 5 14 0 19 -2 13 -5z m-6110 -10
c-7 -2 -19 -2 -25 0 -7 3 -2 5 12 5 14 0 19 -2 13 -5z m870 0 c-7 -2 -21 -2
-30 0 -10 3 -4 5 12 5 17 0 24 -2 18 -5z m50 0 c-7 -2 -19 -2 -25 0 -7 3 -2 5
12 5 14 0 19 -2 13 -5z m74 1 c-3 -3 -12 -4 -19 -1 -8 3 -5 6 6 6 11 1 17 -2
13 -5z m46 -1 c-7 -2 -19 -2 -25 0 -7 3 -2 5 12 5 14 0 19 -2 13 -5z m44 1
c-3 -3 -12 -4 -19 -1 -8 3 -5 6 6 6 11 1 17 -2 13 -5z m3900 0 c-3 -3 -12 -4
-19 -1 -8 3 -5 6 6 6 11 1 17 -2 13 -5z m40 0 c-3 -3 -12 -4 -19 -1 -8 3 -5 6
6 6 11 1 17 -2 13 -5z m40 0 c-3 -3 -12 -4 -19 -1 -8 3 -5 6 6 6 11 1 17 -2
13 -5z m40 0 c-3 -3 -12 -4 -19 -1 -8 3 -5 6 6 6 11 1 17 -2 13 -5z m880 0
c-3 -3 -12 -4 -19 -1 -8 3 -5 6 6 6 11 1 17 -2 13 -5z m-5434 -11 c-83 -2
-223 -2 -310 0 -87 1 -18 3 152 3 171 0 242 -2 158 -3z m5149 0 c-95 -2 -248
-2 -340 0 -92 1 -14 3 173 3 187 0 262 -2 167 -3z m205 1 c-3 -3 -12 -4 -19
-1 -8 3 -5 6 6 6 11 1 17 -2 13 -5z m-3110 -10 c-3 -3 -12 -4 -19 -1 -8 3 -5
6 6 6 11 1 17 -2 13 -5z"/>
</g>
</svg>
